G75*
%MOIN*%
%OFA0B0*%
%FSLAX24Y24*%
%IPPOS*%
%LPD*%
%AMOC8*
5,1,8,0,0,1.08239X$1,22.5*
%
%ADD10C,0.0100*%
%ADD11C,0.0000*%
D10*
X001180Y000180D02*
X007680Y000180D01*
X007671Y000301D01*
X007666Y000423D01*
X007665Y000544D01*
X007668Y000665D01*
X007674Y000787D01*
X007685Y000908D01*
X007699Y001028D01*
X007718Y001148D01*
X007740Y001268D01*
X007766Y001386D01*
X007796Y001504D01*
X007829Y001621D01*
X007867Y001737D01*
X007908Y001851D01*
X007952Y001964D01*
X008001Y002075D01*
X008053Y002185D01*
X008108Y002293D01*
X008167Y002399D01*
X008229Y002504D01*
X008295Y002606D01*
X008364Y002706D01*
X008436Y002804D01*
X008511Y002899D01*
X008589Y002992D01*
X008670Y003082D01*
X008754Y003170D01*
X008841Y003255D01*
X008931Y003337D01*
X009023Y003416D01*
X009118Y003492D01*
X009215Y003565D01*
X009314Y003635D01*
X009416Y003702D01*
X009519Y003765D01*
X009625Y003825D01*
X009732Y003882D01*
X009842Y003935D01*
X009953Y003984D01*
X010065Y004030D01*
X010179Y004072D01*
X010294Y004111D01*
X010410Y004145D01*
X010528Y004176D01*
X010646Y004204D01*
X010765Y004227D01*
X010885Y004246D01*
X011006Y004262D01*
X011127Y004274D01*
X011248Y004282D01*
X011369Y004286D01*
X011491Y004286D01*
X011612Y004282D01*
X011733Y004274D01*
X011854Y004262D01*
X011975Y004246D01*
X012095Y004227D01*
X012214Y004204D01*
X012332Y004176D01*
X012450Y004145D01*
X012566Y004111D01*
X012681Y004072D01*
X012795Y004030D01*
X012907Y003984D01*
X013018Y003935D01*
X013128Y003882D01*
X013235Y003825D01*
X013341Y003765D01*
X013444Y003702D01*
X013546Y003635D01*
X013645Y003565D01*
X013742Y003492D01*
X013837Y003416D01*
X013929Y003337D01*
X014019Y003255D01*
X014106Y003170D01*
X014190Y003082D01*
X014271Y002992D01*
X014349Y002899D01*
X014424Y002804D01*
X014496Y002706D01*
X014565Y002606D01*
X014631Y002504D01*
X014693Y002399D01*
X014752Y002293D01*
X014807Y002185D01*
X014859Y002075D01*
X014908Y001964D01*
X014952Y001851D01*
X014993Y001737D01*
X015031Y001621D01*
X015064Y001504D01*
X015094Y001386D01*
X015120Y001268D01*
X015142Y001148D01*
X015161Y001028D01*
X015175Y000908D01*
X015186Y000787D01*
X015192Y000665D01*
X015195Y000544D01*
X015194Y000423D01*
X015189Y000301D01*
X015180Y000180D01*
X021680Y000180D01*
X021740Y000182D01*
X021801Y000187D01*
X021860Y000196D01*
X021919Y000209D01*
X021978Y000225D01*
X022035Y000245D01*
X022090Y000268D01*
X022145Y000295D01*
X022197Y000324D01*
X022248Y000357D01*
X022297Y000393D01*
X022343Y000431D01*
X022387Y000473D01*
X022429Y000517D01*
X022467Y000563D01*
X022503Y000612D01*
X022536Y000663D01*
X022565Y000715D01*
X022592Y000770D01*
X022615Y000825D01*
X022635Y000882D01*
X022651Y000941D01*
X022664Y001000D01*
X022673Y001059D01*
X022678Y001120D01*
X022680Y001180D01*
X022598Y001453D01*
X022509Y001723D01*
X022413Y001992D01*
X022311Y002258D01*
X022202Y002521D01*
X022088Y002782D01*
X021966Y003040D01*
X021839Y003295D01*
X021705Y003546D01*
X021566Y003795D01*
X021420Y004039D01*
X021268Y004281D01*
X021111Y004518D01*
X020948Y004752D01*
X020779Y004981D01*
X020605Y005207D01*
X020425Y005428D01*
X020240Y005644D01*
X020050Y005856D01*
X019854Y006064D01*
X019654Y006266D01*
X019449Y006464D01*
X019239Y006656D01*
X019024Y006844D01*
X018805Y007026D01*
X018581Y007203D01*
X018354Y007374D01*
X018122Y007540D01*
X017886Y007700D01*
X017646Y007854D01*
X017403Y008002D01*
X017156Y008144D01*
X016906Y008281D01*
X016653Y008411D01*
X016396Y008535D01*
X016137Y008652D01*
X015874Y008764D01*
X015610Y008869D01*
X015342Y008967D01*
X015073Y009059D01*
X014801Y009144D01*
X014527Y009223D01*
X014251Y009295D01*
X013974Y009360D01*
X013695Y009419D01*
X013415Y009471D01*
X013133Y009515D01*
X012851Y009553D01*
X012568Y009585D01*
X012284Y009609D01*
X012000Y009626D01*
X011715Y009637D01*
X011430Y009640D01*
X011145Y009637D01*
X010860Y009626D01*
X010576Y009609D01*
X010292Y009585D01*
X010009Y009553D01*
X009727Y009515D01*
X009445Y009471D01*
X009165Y009419D01*
X008886Y009360D01*
X008609Y009295D01*
X008333Y009223D01*
X008059Y009144D01*
X007787Y009059D01*
X007518Y008967D01*
X007250Y008869D01*
X006986Y008764D01*
X006723Y008652D01*
X006464Y008535D01*
X006207Y008411D01*
X005954Y008281D01*
X005704Y008144D01*
X005457Y008002D01*
X005214Y007854D01*
X004974Y007700D01*
X004738Y007540D01*
X004506Y007374D01*
X004279Y007203D01*
X004055Y007026D01*
X003836Y006844D01*
X003621Y006656D01*
X003411Y006464D01*
X003206Y006266D01*
X003006Y006064D01*
X002810Y005856D01*
X002620Y005644D01*
X002435Y005428D01*
X002255Y005207D01*
X002081Y004981D01*
X001912Y004752D01*
X001749Y004518D01*
X001592Y004281D01*
X001440Y004039D01*
X001294Y003795D01*
X001155Y003546D01*
X001021Y003295D01*
X000894Y003040D01*
X000772Y002782D01*
X000658Y002521D01*
X000549Y002258D01*
X000447Y001992D01*
X000351Y001723D01*
X000262Y001453D01*
X000180Y001180D01*
X000182Y001120D01*
X000187Y001059D01*
X000196Y001000D01*
X000209Y000941D01*
X000225Y000882D01*
X000245Y000825D01*
X000268Y000770D01*
X000295Y000715D01*
X000324Y000663D01*
X000357Y000612D01*
X000393Y000563D01*
X000431Y000517D01*
X000473Y000473D01*
X000517Y000431D01*
X000563Y000393D01*
X000612Y000357D01*
X000663Y000324D01*
X000715Y000295D01*
X000770Y000268D01*
X000825Y000245D01*
X000882Y000225D01*
X000941Y000209D01*
X001000Y000196D01*
X001059Y000187D01*
X001120Y000182D01*
X001180Y000180D01*
D11*
X000925Y001425D02*
X000927Y001475D01*
X000933Y001525D01*
X000943Y001575D01*
X000956Y001623D01*
X000973Y001671D01*
X000994Y001717D01*
X001018Y001761D01*
X001046Y001803D01*
X001077Y001843D01*
X001111Y001880D01*
X001148Y001915D01*
X001187Y001946D01*
X001228Y001975D01*
X001272Y002000D01*
X001318Y002022D01*
X001365Y002040D01*
X001413Y002054D01*
X001462Y002065D01*
X001512Y002072D01*
X001562Y002075D01*
X001613Y002074D01*
X001663Y002069D01*
X001713Y002060D01*
X001761Y002048D01*
X001809Y002031D01*
X001855Y002011D01*
X001900Y001988D01*
X001943Y001961D01*
X001983Y001931D01*
X002021Y001898D01*
X002056Y001862D01*
X002089Y001823D01*
X002118Y001782D01*
X002144Y001739D01*
X002167Y001694D01*
X002186Y001647D01*
X002201Y001599D01*
X002213Y001550D01*
X002221Y001500D01*
X002225Y001450D01*
X002225Y001400D01*
X002221Y001350D01*
X002213Y001300D01*
X002201Y001251D01*
X002186Y001203D01*
X002167Y001156D01*
X002144Y001111D01*
X002118Y001068D01*
X002089Y001027D01*
X002056Y000988D01*
X002021Y000952D01*
X001983Y000919D01*
X001943Y000889D01*
X001900Y000862D01*
X001855Y000839D01*
X001809Y000819D01*
X001761Y000802D01*
X001713Y000790D01*
X001663Y000781D01*
X001613Y000776D01*
X001562Y000775D01*
X001512Y000778D01*
X001462Y000785D01*
X001413Y000796D01*
X001365Y000810D01*
X001318Y000828D01*
X001272Y000850D01*
X001228Y000875D01*
X001187Y000904D01*
X001148Y000935D01*
X001111Y000970D01*
X001077Y001007D01*
X001046Y001047D01*
X001018Y001089D01*
X000994Y001133D01*
X000973Y001179D01*
X000956Y001227D01*
X000943Y001275D01*
X000933Y001325D01*
X000927Y001375D01*
X000925Y001425D01*
X020630Y001430D02*
X020632Y001480D01*
X020638Y001530D01*
X020648Y001580D01*
X020661Y001628D01*
X020678Y001676D01*
X020699Y001722D01*
X020723Y001766D01*
X020751Y001808D01*
X020782Y001848D01*
X020816Y001885D01*
X020853Y001920D01*
X020892Y001951D01*
X020933Y001980D01*
X020977Y002005D01*
X021023Y002027D01*
X021070Y002045D01*
X021118Y002059D01*
X021167Y002070D01*
X021217Y002077D01*
X021267Y002080D01*
X021318Y002079D01*
X021368Y002074D01*
X021418Y002065D01*
X021466Y002053D01*
X021514Y002036D01*
X021560Y002016D01*
X021605Y001993D01*
X021648Y001966D01*
X021688Y001936D01*
X021726Y001903D01*
X021761Y001867D01*
X021794Y001828D01*
X021823Y001787D01*
X021849Y001744D01*
X021872Y001699D01*
X021891Y001652D01*
X021906Y001604D01*
X021918Y001555D01*
X021926Y001505D01*
X021930Y001455D01*
X021930Y001405D01*
X021926Y001355D01*
X021918Y001305D01*
X021906Y001256D01*
X021891Y001208D01*
X021872Y001161D01*
X021849Y001116D01*
X021823Y001073D01*
X021794Y001032D01*
X021761Y000993D01*
X021726Y000957D01*
X021688Y000924D01*
X021648Y000894D01*
X021605Y000867D01*
X021560Y000844D01*
X021514Y000824D01*
X021466Y000807D01*
X021418Y000795D01*
X021368Y000786D01*
X021318Y000781D01*
X021267Y000780D01*
X021217Y000783D01*
X021167Y000790D01*
X021118Y000801D01*
X021070Y000815D01*
X021023Y000833D01*
X020977Y000855D01*
X020933Y000880D01*
X020892Y000909D01*
X020853Y000940D01*
X020816Y000975D01*
X020782Y001012D01*
X020751Y001052D01*
X020723Y001094D01*
X020699Y001138D01*
X020678Y001184D01*
X020661Y001232D01*
X020648Y001280D01*
X020638Y001330D01*
X020632Y001380D01*
X020630Y001430D01*
M02*
