G75*
%MOIN*%
%OFA0B0*%
%FSLAX24Y24*%
%IPPOS*%
%LPD*%
%AMOC8*
5,1,8,0,0,1.08239X$1,22.5*
%
%ADD10C,0.0040*%
%ADD11C,0.0080*%
%ADD12C,0.0010*%
%ADD13C,0.0060*%
D10*
X008200Y004700D02*
X008507Y004700D01*
X008660Y004700D02*
X008967Y004700D01*
X009121Y004700D02*
X009351Y004700D01*
X009428Y004777D01*
X009428Y005084D01*
X009351Y005160D01*
X009121Y005160D01*
X009121Y004700D01*
X008814Y004930D02*
X008660Y004930D01*
X008660Y005160D02*
X008660Y004700D01*
X008200Y004700D02*
X008200Y005160D01*
X008660Y005160D02*
X008967Y005160D01*
X010042Y005007D02*
X010042Y004700D01*
X010042Y004930D02*
X010348Y004930D01*
X010348Y005007D02*
X010348Y004700D01*
X010502Y004700D02*
X010502Y005007D01*
X010655Y005007D02*
X010502Y004853D01*
X010655Y005007D02*
X010732Y005007D01*
X010886Y005007D02*
X010886Y004700D01*
X010886Y004853D02*
X011039Y005007D01*
X011116Y005007D01*
X011346Y005007D02*
X011499Y005007D01*
X011576Y004930D01*
X011576Y004700D01*
X011346Y004700D01*
X011269Y004777D01*
X011346Y004853D01*
X011576Y004853D01*
X011730Y004777D02*
X011806Y004700D01*
X012037Y004700D01*
X012037Y004623D02*
X011960Y004547D01*
X011883Y004547D01*
X012037Y004623D02*
X012037Y005007D01*
X011730Y005007D02*
X011730Y004777D01*
X012650Y005007D02*
X012804Y004700D01*
X012957Y005007D01*
X013111Y005084D02*
X013188Y005160D01*
X013341Y005160D01*
X013418Y005084D01*
X013111Y004777D01*
X013188Y004700D01*
X013341Y004700D01*
X013418Y004777D01*
X013418Y005084D01*
X013111Y005084D02*
X013111Y004777D01*
X013571Y004777D02*
X013648Y004777D01*
X013648Y004700D01*
X013571Y004700D01*
X013571Y004777D01*
X013801Y004700D02*
X014108Y004700D01*
X013955Y004700D02*
X013955Y005160D01*
X013801Y005007D01*
X013190Y005700D02*
X013344Y005853D01*
X013344Y006160D01*
X013037Y006160D02*
X013037Y005853D01*
X013190Y005700D01*
X012883Y005777D02*
X012883Y006084D01*
X012806Y006160D01*
X012653Y006160D01*
X012576Y006084D01*
X012576Y005777D01*
X012653Y005700D01*
X012806Y005700D01*
X012883Y005777D01*
X012423Y005700D02*
X012269Y005853D01*
X012346Y005853D02*
X012116Y005853D01*
X012116Y005700D02*
X012116Y006160D01*
X012346Y006160D01*
X012423Y006084D01*
X012423Y005930D01*
X012346Y005853D01*
X011502Y005777D02*
X011425Y005853D01*
X011272Y005853D01*
X011195Y005930D01*
X011272Y006007D01*
X011502Y006007D01*
X011502Y005777D02*
X011425Y005700D01*
X011195Y005700D01*
X011042Y005700D02*
X011042Y006007D01*
X011042Y005700D02*
X010811Y005700D01*
X010735Y005777D01*
X010735Y006007D01*
X010504Y006007D02*
X010504Y005700D01*
X010428Y005700D02*
X010581Y005700D01*
X010274Y005700D02*
X010121Y005700D01*
X010198Y005700D02*
X010198Y006160D01*
X010121Y006160D01*
X009967Y006007D02*
X009967Y005700D01*
X009737Y005700D01*
X009660Y005777D01*
X009660Y006007D01*
X009507Y006160D02*
X009353Y006160D01*
X009430Y006160D02*
X009430Y005777D01*
X009353Y005700D01*
X009277Y005700D01*
X009200Y005777D01*
X010042Y005007D02*
X010195Y005160D01*
X010348Y005007D01*
X010428Y006007D02*
X010504Y006007D01*
X010504Y006160D02*
X010504Y006237D01*
D11*
X004930Y005430D02*
X004930Y003930D01*
X007180Y005730D02*
X007180Y007230D01*
X009680Y006780D02*
X009680Y008280D01*
X010680Y006930D02*
X012180Y006930D01*
X013180Y006780D02*
X013180Y008280D01*
X015680Y007230D02*
X015680Y005730D01*
X017930Y005430D02*
X017930Y003930D01*
D12*
X017898Y003900D02*
X017970Y003954D01*
X017969Y003953D02*
X018012Y003900D01*
X018057Y003849D01*
X018106Y003801D01*
X018157Y003756D01*
X018211Y003713D01*
X018267Y003674D01*
X018325Y003638D01*
X018385Y003605D01*
X018446Y003576D01*
X018510Y003551D01*
X018574Y003529D01*
X018640Y003510D01*
X018707Y003496D01*
X018774Y003485D01*
X018842Y003478D01*
X018910Y003475D01*
X018979Y003476D01*
X019047Y003481D01*
X019115Y003489D01*
X019182Y003502D01*
X019248Y003518D01*
X019313Y003538D01*
X019378Y003561D01*
X019440Y003588D01*
X019501Y003619D01*
X019560Y003653D01*
X019618Y003690D01*
X019673Y003731D01*
X019725Y003775D01*
X019775Y003821D01*
X019822Y003870D01*
X019867Y003922D01*
X019908Y003976D01*
X019947Y004033D01*
X019982Y004092D01*
X020013Y004152D01*
X020041Y004214D01*
X020066Y004278D01*
X020087Y004343D01*
X020104Y004409D01*
X020118Y004476D01*
X020127Y004544D01*
X020133Y004612D01*
X020135Y004680D01*
X020133Y004748D01*
X020127Y004816D01*
X020118Y004884D01*
X020104Y004951D01*
X020087Y005017D01*
X020066Y005082D01*
X020041Y005146D01*
X020013Y005208D01*
X019982Y005268D01*
X019947Y005327D01*
X019908Y005384D01*
X019867Y005438D01*
X019822Y005490D01*
X019775Y005539D01*
X019725Y005585D01*
X019673Y005629D01*
X019618Y005670D01*
X019560Y005707D01*
X019501Y005741D01*
X019440Y005772D01*
X019378Y005799D01*
X019313Y005822D01*
X019248Y005842D01*
X019182Y005858D01*
X019115Y005871D01*
X019047Y005879D01*
X018979Y005884D01*
X018910Y005885D01*
X018842Y005882D01*
X018774Y005875D01*
X018707Y005864D01*
X018640Y005850D01*
X018574Y005831D01*
X018510Y005809D01*
X018446Y005784D01*
X018385Y005755D01*
X018325Y005722D01*
X018267Y005686D01*
X018211Y005647D01*
X018157Y005604D01*
X018106Y005559D01*
X018057Y005511D01*
X018012Y005460D01*
X017969Y005407D01*
X017898Y005460D01*
X017897Y005461D01*
X017941Y005516D01*
X017989Y005569D01*
X018039Y005620D01*
X018092Y005667D01*
X018147Y005711D01*
X018205Y005753D01*
X018265Y005791D01*
X018326Y005826D01*
X018390Y005857D01*
X018455Y005885D01*
X018522Y005909D01*
X018590Y005930D01*
X018659Y005946D01*
X018729Y005959D01*
X018799Y005968D01*
X018870Y005974D01*
X018941Y005975D01*
X019012Y005972D01*
X019083Y005966D01*
X019153Y005956D01*
X019222Y005942D01*
X019291Y005924D01*
X019359Y005902D01*
X019425Y005877D01*
X019490Y005848D01*
X019553Y005815D01*
X019614Y005779D01*
X019673Y005740D01*
X019730Y005698D01*
X019785Y005653D01*
X019837Y005604D01*
X019886Y005553D01*
X019933Y005500D01*
X019976Y005443D01*
X020016Y005385D01*
X020053Y005324D01*
X020087Y005262D01*
X020117Y005198D01*
X020144Y005132D01*
X020167Y005065D01*
X020186Y004996D01*
X020201Y004927D01*
X020213Y004857D01*
X020221Y004786D01*
X020225Y004715D01*
X020225Y004645D01*
X020221Y004574D01*
X020213Y004503D01*
X020201Y004433D01*
X020186Y004364D01*
X020167Y004295D01*
X020144Y004228D01*
X020117Y004162D01*
X020087Y004098D01*
X020053Y004036D01*
X020016Y003975D01*
X019976Y003917D01*
X019933Y003860D01*
X019886Y003807D01*
X019837Y003756D01*
X019785Y003707D01*
X019730Y003662D01*
X019673Y003620D01*
X019614Y003581D01*
X019553Y003545D01*
X019490Y003512D01*
X019425Y003483D01*
X019359Y003458D01*
X019291Y003436D01*
X019222Y003418D01*
X019153Y003404D01*
X019083Y003394D01*
X019012Y003388D01*
X018941Y003385D01*
X018870Y003386D01*
X018799Y003392D01*
X018729Y003401D01*
X018659Y003414D01*
X018590Y003430D01*
X018522Y003451D01*
X018455Y003475D01*
X018390Y003503D01*
X018326Y003534D01*
X018265Y003569D01*
X018205Y003607D01*
X018147Y003649D01*
X018092Y003693D01*
X018039Y003740D01*
X017989Y003791D01*
X017941Y003844D01*
X017897Y003899D01*
X017904Y003904D01*
X017949Y003849D01*
X017996Y003796D01*
X018047Y003745D01*
X018100Y003698D01*
X018156Y003653D01*
X018214Y003612D01*
X018274Y003574D01*
X018336Y003539D01*
X018400Y003508D01*
X018466Y003481D01*
X018533Y003457D01*
X018602Y003437D01*
X018671Y003420D01*
X018741Y003408D01*
X018812Y003399D01*
X018883Y003395D01*
X018954Y003394D01*
X019025Y003398D01*
X019096Y003405D01*
X019167Y003416D01*
X019236Y003431D01*
X019305Y003450D01*
X019373Y003473D01*
X019439Y003499D01*
X019504Y003529D01*
X019566Y003563D01*
X019627Y003599D01*
X019686Y003640D01*
X019743Y003683D01*
X019797Y003730D01*
X019848Y003779D01*
X019896Y003832D01*
X019942Y003886D01*
X019984Y003944D01*
X020023Y004003D01*
X020059Y004065D01*
X020092Y004128D01*
X020120Y004193D01*
X020146Y004260D01*
X020167Y004328D01*
X020185Y004397D01*
X020198Y004467D01*
X020208Y004538D01*
X020214Y004609D01*
X020216Y004680D01*
X020214Y004751D01*
X020208Y004822D01*
X020198Y004893D01*
X020185Y004963D01*
X020167Y005032D01*
X020146Y005100D01*
X020120Y005167D01*
X020092Y005232D01*
X020059Y005295D01*
X020023Y005357D01*
X019984Y005416D01*
X019942Y005474D01*
X019896Y005528D01*
X019848Y005581D01*
X019797Y005630D01*
X019743Y005677D01*
X019686Y005720D01*
X019627Y005761D01*
X019566Y005797D01*
X019504Y005831D01*
X019439Y005861D01*
X019373Y005887D01*
X019305Y005910D01*
X019236Y005929D01*
X019167Y005944D01*
X019096Y005955D01*
X019025Y005962D01*
X018954Y005966D01*
X018883Y005965D01*
X018812Y005961D01*
X018741Y005952D01*
X018671Y005940D01*
X018602Y005923D01*
X018533Y005903D01*
X018466Y005879D01*
X018400Y005852D01*
X018336Y005821D01*
X018274Y005786D01*
X018214Y005748D01*
X018156Y005707D01*
X018100Y005662D01*
X018047Y005615D01*
X017996Y005564D01*
X017949Y005511D01*
X017904Y005456D01*
X017911Y005450D01*
X017956Y005505D01*
X018003Y005558D01*
X018053Y005608D01*
X018106Y005655D01*
X018161Y005699D01*
X018219Y005741D01*
X018278Y005778D01*
X018340Y005813D01*
X018404Y005844D01*
X018469Y005871D01*
X018536Y005895D01*
X018604Y005915D01*
X018673Y005931D01*
X018742Y005943D01*
X018813Y005952D01*
X018883Y005956D01*
X018954Y005957D01*
X019025Y005953D01*
X019095Y005946D01*
X019165Y005935D01*
X019234Y005920D01*
X019302Y005901D01*
X019370Y005879D01*
X019435Y005853D01*
X019500Y005823D01*
X019562Y005790D01*
X019622Y005753D01*
X019681Y005713D01*
X019737Y005670D01*
X019791Y005624D01*
X019841Y005574D01*
X019890Y005523D01*
X019935Y005468D01*
X019977Y005411D01*
X020016Y005352D01*
X020051Y005291D01*
X020084Y005228D01*
X020112Y005163D01*
X020137Y005097D01*
X020158Y005029D01*
X020176Y004961D01*
X020189Y004891D01*
X020199Y004821D01*
X020205Y004751D01*
X020207Y004680D01*
X020205Y004609D01*
X020199Y004539D01*
X020189Y004469D01*
X020176Y004399D01*
X020158Y004331D01*
X020137Y004263D01*
X020112Y004197D01*
X020084Y004132D01*
X020051Y004069D01*
X020016Y004008D01*
X019977Y003949D01*
X019935Y003892D01*
X019890Y003837D01*
X019841Y003786D01*
X019791Y003736D01*
X019737Y003690D01*
X019681Y003647D01*
X019622Y003607D01*
X019562Y003570D01*
X019500Y003537D01*
X019435Y003507D01*
X019370Y003481D01*
X019302Y003459D01*
X019234Y003440D01*
X019165Y003425D01*
X019095Y003414D01*
X019025Y003407D01*
X018954Y003403D01*
X018883Y003404D01*
X018813Y003408D01*
X018742Y003417D01*
X018673Y003429D01*
X018604Y003445D01*
X018536Y003465D01*
X018469Y003489D01*
X018404Y003516D01*
X018340Y003547D01*
X018278Y003582D01*
X018219Y003619D01*
X018161Y003661D01*
X018106Y003705D01*
X018053Y003752D01*
X018003Y003802D01*
X017956Y003855D01*
X017911Y003910D01*
X017919Y003915D01*
X017963Y003860D01*
X018011Y003807D01*
X018061Y003757D01*
X018114Y003709D01*
X018170Y003665D01*
X018228Y003624D01*
X018288Y003587D01*
X018350Y003552D01*
X018414Y003522D01*
X018480Y003495D01*
X018547Y003471D01*
X018615Y003452D01*
X018685Y003436D01*
X018755Y003424D01*
X018825Y003416D01*
X018896Y003412D01*
X018967Y003413D01*
X019038Y003417D01*
X019109Y003425D01*
X019179Y003437D01*
X019248Y003453D01*
X019316Y003472D01*
X019384Y003496D01*
X019449Y003523D01*
X019513Y003554D01*
X019575Y003588D01*
X019635Y003626D01*
X019693Y003668D01*
X019749Y003712D01*
X019802Y003759D01*
X019852Y003810D01*
X019899Y003863D01*
X019944Y003918D01*
X019985Y003976D01*
X020022Y004036D01*
X020057Y004099D01*
X020088Y004163D01*
X020115Y004228D01*
X020138Y004295D01*
X020158Y004364D01*
X020174Y004433D01*
X020186Y004503D01*
X020194Y004574D01*
X020198Y004644D01*
X020198Y004716D01*
X020194Y004786D01*
X020186Y004857D01*
X020174Y004927D01*
X020158Y004996D01*
X020138Y005065D01*
X020115Y005132D01*
X020088Y005197D01*
X020057Y005261D01*
X020022Y005324D01*
X019985Y005384D01*
X019944Y005442D01*
X019899Y005497D01*
X019852Y005550D01*
X019802Y005601D01*
X019749Y005648D01*
X019693Y005692D01*
X019635Y005734D01*
X019575Y005772D01*
X019513Y005806D01*
X019449Y005837D01*
X019384Y005864D01*
X019316Y005888D01*
X019248Y005907D01*
X019179Y005923D01*
X019109Y005935D01*
X019038Y005943D01*
X018967Y005947D01*
X018896Y005948D01*
X018825Y005944D01*
X018755Y005936D01*
X018685Y005924D01*
X018615Y005908D01*
X018547Y005889D01*
X018480Y005865D01*
X018414Y005838D01*
X018350Y005808D01*
X018288Y005773D01*
X018228Y005736D01*
X018170Y005695D01*
X018114Y005651D01*
X018061Y005603D01*
X018011Y005553D01*
X017963Y005500D01*
X017919Y005445D01*
X017926Y005439D01*
X017970Y005494D01*
X018017Y005547D01*
X018067Y005597D01*
X018120Y005644D01*
X018175Y005688D01*
X018233Y005728D01*
X018292Y005766D01*
X018354Y005800D01*
X018418Y005830D01*
X018483Y005857D01*
X018550Y005880D01*
X018618Y005900D01*
X018686Y005915D01*
X018756Y005927D01*
X018826Y005935D01*
X018897Y005939D01*
X018967Y005938D01*
X019038Y005934D01*
X019108Y005926D01*
X019177Y005914D01*
X019246Y005899D01*
X019314Y005879D01*
X019380Y005856D01*
X019445Y005829D01*
X019509Y005798D01*
X019571Y005764D01*
X019630Y005726D01*
X019688Y005685D01*
X019743Y005641D01*
X019796Y005594D01*
X019845Y005544D01*
X019892Y005492D01*
X019936Y005436D01*
X019977Y005379D01*
X020015Y005319D01*
X020049Y005257D01*
X020079Y005194D01*
X020106Y005129D01*
X020130Y005062D01*
X020149Y004994D01*
X020165Y004925D01*
X020177Y004856D01*
X020185Y004786D01*
X020189Y004715D01*
X020189Y004645D01*
X020185Y004574D01*
X020177Y004504D01*
X020165Y004435D01*
X020149Y004366D01*
X020130Y004298D01*
X020106Y004231D01*
X020079Y004166D01*
X020049Y004103D01*
X020015Y004041D01*
X019977Y003981D01*
X019936Y003924D01*
X019892Y003868D01*
X019845Y003816D01*
X019796Y003766D01*
X019743Y003719D01*
X019688Y003675D01*
X019630Y003634D01*
X019571Y003596D01*
X019509Y003562D01*
X019445Y003531D01*
X019380Y003504D01*
X019314Y003481D01*
X019246Y003461D01*
X019177Y003446D01*
X019108Y003434D01*
X019038Y003426D01*
X018967Y003422D01*
X018897Y003421D01*
X018826Y003425D01*
X018756Y003433D01*
X018686Y003445D01*
X018618Y003460D01*
X018550Y003480D01*
X018483Y003503D01*
X018418Y003530D01*
X018354Y003560D01*
X018292Y003594D01*
X018233Y003632D01*
X018175Y003672D01*
X018120Y003716D01*
X018067Y003763D01*
X018017Y003813D01*
X017970Y003866D01*
X017926Y003921D01*
X017933Y003926D01*
X017977Y003871D01*
X018024Y003819D01*
X018073Y003770D01*
X018126Y003723D01*
X018180Y003680D01*
X018238Y003639D01*
X018297Y003602D01*
X018358Y003568D01*
X018422Y003538D01*
X018486Y003511D01*
X018553Y003488D01*
X018620Y003469D01*
X018688Y003454D01*
X018757Y003442D01*
X018827Y003434D01*
X018897Y003430D01*
X018967Y003431D01*
X019037Y003435D01*
X019106Y003443D01*
X019175Y003454D01*
X019244Y003470D01*
X019311Y003489D01*
X019377Y003513D01*
X019442Y003540D01*
X019505Y003570D01*
X019566Y003604D01*
X019625Y003641D01*
X019683Y003682D01*
X019737Y003726D01*
X019789Y003772D01*
X019839Y003822D01*
X019886Y003874D01*
X019929Y003929D01*
X019970Y003986D01*
X020007Y004045D01*
X020041Y004107D01*
X020071Y004170D01*
X020098Y004235D01*
X020121Y004301D01*
X020140Y004368D01*
X020156Y004436D01*
X020168Y004505D01*
X020176Y004575D01*
X020180Y004645D01*
X020180Y004715D01*
X020176Y004785D01*
X020168Y004855D01*
X020156Y004924D01*
X020140Y004992D01*
X020121Y005059D01*
X020098Y005125D01*
X020071Y005190D01*
X020041Y005253D01*
X020007Y005315D01*
X019970Y005374D01*
X019929Y005431D01*
X019886Y005486D01*
X019839Y005538D01*
X019789Y005588D01*
X019737Y005634D01*
X019683Y005678D01*
X019625Y005719D01*
X019566Y005756D01*
X019505Y005790D01*
X019442Y005820D01*
X019377Y005847D01*
X019311Y005871D01*
X019244Y005890D01*
X019175Y005906D01*
X019106Y005917D01*
X019037Y005925D01*
X018967Y005929D01*
X018897Y005930D01*
X018827Y005926D01*
X018757Y005918D01*
X018688Y005906D01*
X018620Y005891D01*
X018553Y005872D01*
X018486Y005849D01*
X018422Y005822D01*
X018358Y005792D01*
X018297Y005758D01*
X018238Y005721D01*
X018180Y005680D01*
X018126Y005637D01*
X018073Y005590D01*
X018024Y005541D01*
X017977Y005489D01*
X017933Y005434D01*
X017940Y005429D01*
X017984Y005483D01*
X018030Y005535D01*
X018079Y005584D01*
X018131Y005630D01*
X018186Y005673D01*
X018243Y005713D01*
X018302Y005750D01*
X018363Y005784D01*
X018425Y005814D01*
X018490Y005840D01*
X018555Y005863D01*
X018622Y005882D01*
X018690Y005898D01*
X018759Y005909D01*
X018828Y005917D01*
X018897Y005921D01*
X018967Y005920D01*
X019036Y005916D01*
X019105Y005909D01*
X019174Y005897D01*
X019241Y005881D01*
X019308Y005862D01*
X019374Y005839D01*
X019438Y005812D01*
X019501Y005782D01*
X019562Y005748D01*
X019620Y005711D01*
X019677Y005671D01*
X019731Y005628D01*
X019783Y005581D01*
X019832Y005532D01*
X019879Y005480D01*
X019922Y005426D01*
X019962Y005369D01*
X019999Y005310D01*
X020033Y005249D01*
X020063Y005186D01*
X020090Y005122D01*
X020113Y005057D01*
X020132Y004990D01*
X020147Y004922D01*
X020159Y004853D01*
X020167Y004784D01*
X020171Y004715D01*
X020171Y004645D01*
X020167Y004576D01*
X020159Y004507D01*
X020147Y004438D01*
X020132Y004370D01*
X020113Y004303D01*
X020090Y004238D01*
X020063Y004174D01*
X020033Y004111D01*
X019999Y004050D01*
X019962Y003991D01*
X019922Y003934D01*
X019879Y003880D01*
X019832Y003828D01*
X019783Y003779D01*
X019731Y003732D01*
X019677Y003689D01*
X019620Y003649D01*
X019562Y003612D01*
X019501Y003578D01*
X019438Y003548D01*
X019374Y003521D01*
X019308Y003498D01*
X019241Y003479D01*
X019174Y003463D01*
X019105Y003451D01*
X019036Y003444D01*
X018967Y003440D01*
X018897Y003439D01*
X018828Y003443D01*
X018759Y003451D01*
X018690Y003462D01*
X018622Y003478D01*
X018555Y003497D01*
X018490Y003520D01*
X018425Y003546D01*
X018363Y003576D01*
X018302Y003610D01*
X018243Y003647D01*
X018186Y003687D01*
X018131Y003730D01*
X018079Y003776D01*
X018030Y003825D01*
X017984Y003877D01*
X017940Y003931D01*
X017947Y003937D01*
X017991Y003883D01*
X018037Y003832D01*
X018086Y003783D01*
X018137Y003737D01*
X018191Y003694D01*
X018248Y003654D01*
X018306Y003618D01*
X018367Y003584D01*
X018429Y003554D01*
X018493Y003528D01*
X018558Y003506D01*
X018624Y003487D01*
X018692Y003471D01*
X018760Y003460D01*
X018828Y003452D01*
X018897Y003448D01*
X018966Y003449D01*
X019035Y003453D01*
X019104Y003460D01*
X019172Y003472D01*
X019239Y003487D01*
X019306Y003507D01*
X019371Y003530D01*
X019434Y003556D01*
X019497Y003586D01*
X019557Y003619D01*
X019615Y003656D01*
X019672Y003696D01*
X019726Y003739D01*
X019777Y003785D01*
X019826Y003834D01*
X019872Y003886D01*
X019915Y003940D01*
X019955Y003996D01*
X019991Y004055D01*
X020025Y004115D01*
X020055Y004177D01*
X020081Y004241D01*
X020104Y004306D01*
X020123Y004373D01*
X020138Y004440D01*
X020150Y004508D01*
X020158Y004577D01*
X020162Y004645D01*
X020162Y004715D01*
X020158Y004783D01*
X020150Y004852D01*
X020138Y004920D01*
X020123Y004987D01*
X020104Y005054D01*
X020081Y005119D01*
X020055Y005183D01*
X020025Y005245D01*
X019991Y005305D01*
X019955Y005364D01*
X019915Y005420D01*
X019872Y005474D01*
X019826Y005526D01*
X019777Y005575D01*
X019726Y005621D01*
X019672Y005664D01*
X019615Y005704D01*
X019557Y005741D01*
X019497Y005774D01*
X019434Y005804D01*
X019371Y005830D01*
X019306Y005853D01*
X019239Y005873D01*
X019172Y005888D01*
X019104Y005900D01*
X019035Y005907D01*
X018966Y005911D01*
X018897Y005912D01*
X018828Y005908D01*
X018760Y005900D01*
X018692Y005889D01*
X018624Y005873D01*
X018558Y005854D01*
X018493Y005832D01*
X018429Y005806D01*
X018367Y005776D01*
X018306Y005742D01*
X018248Y005706D01*
X018191Y005666D01*
X018137Y005623D01*
X018086Y005577D01*
X018037Y005528D01*
X017991Y005477D01*
X017947Y005423D01*
X017955Y005418D01*
X017998Y005472D01*
X018044Y005523D01*
X018094Y005572D01*
X018145Y005618D01*
X018200Y005661D01*
X018257Y005701D01*
X018315Y005737D01*
X018376Y005771D01*
X018439Y005800D01*
X018503Y005826D01*
X018569Y005848D01*
X018636Y005867D01*
X018703Y005882D01*
X018772Y005893D01*
X018841Y005900D01*
X018910Y005903D01*
X018979Y005902D01*
X019049Y005897D01*
X019117Y005889D01*
X019185Y005876D01*
X019253Y005860D01*
X019319Y005839D01*
X019384Y005816D01*
X019448Y005788D01*
X019510Y005757D01*
X019570Y005722D01*
X019628Y005684D01*
X019684Y005643D01*
X019737Y005599D01*
X019788Y005552D01*
X019836Y005502D01*
X019881Y005449D01*
X019923Y005394D01*
X019962Y005337D01*
X019997Y005277D01*
X020029Y005216D01*
X020058Y005153D01*
X020083Y005088D01*
X020104Y005022D01*
X020122Y004955D01*
X020135Y004887D01*
X020145Y004818D01*
X020151Y004749D01*
X020153Y004680D01*
X020151Y004611D01*
X020145Y004542D01*
X020135Y004473D01*
X020122Y004405D01*
X020104Y004338D01*
X020083Y004272D01*
X020058Y004207D01*
X020029Y004144D01*
X019997Y004083D01*
X019962Y004023D01*
X019923Y003966D01*
X019881Y003911D01*
X019836Y003858D01*
X019788Y003808D01*
X019737Y003761D01*
X019684Y003717D01*
X019628Y003676D01*
X019570Y003638D01*
X019510Y003603D01*
X019448Y003572D01*
X019384Y003544D01*
X019319Y003521D01*
X019253Y003500D01*
X019185Y003484D01*
X019117Y003471D01*
X019049Y003463D01*
X018979Y003458D01*
X018910Y003457D01*
X018841Y003460D01*
X018772Y003467D01*
X018703Y003478D01*
X018636Y003493D01*
X018569Y003512D01*
X018503Y003534D01*
X018439Y003560D01*
X018376Y003589D01*
X018315Y003623D01*
X018257Y003659D01*
X018200Y003699D01*
X018145Y003742D01*
X018094Y003788D01*
X018044Y003837D01*
X017998Y003888D01*
X017955Y003942D01*
X017962Y003948D01*
X018005Y003894D01*
X018051Y003843D01*
X018100Y003794D01*
X018151Y003749D01*
X018205Y003706D01*
X018262Y003667D01*
X018320Y003630D01*
X018380Y003597D01*
X018443Y003568D01*
X018506Y003542D01*
X018572Y003520D01*
X018638Y003502D01*
X018705Y003487D01*
X018773Y003476D01*
X018842Y003469D01*
X018910Y003466D01*
X018979Y003467D01*
X019048Y003472D01*
X019116Y003480D01*
X019184Y003493D01*
X019250Y003509D01*
X019316Y003529D01*
X019381Y003553D01*
X019444Y003580D01*
X019505Y003611D01*
X019565Y003645D01*
X019623Y003683D01*
X019678Y003724D01*
X019731Y003768D01*
X019781Y003815D01*
X019829Y003864D01*
X019874Y003916D01*
X019916Y003971D01*
X019954Y004028D01*
X019989Y004087D01*
X020021Y004148D01*
X020050Y004211D01*
X020074Y004275D01*
X020096Y004341D01*
X020113Y004407D01*
X020126Y004475D01*
X020136Y004543D01*
X020142Y004611D01*
X020144Y004680D01*
X020142Y004749D01*
X020136Y004817D01*
X020126Y004885D01*
X020113Y004953D01*
X020096Y005019D01*
X020074Y005085D01*
X020050Y005149D01*
X020021Y005212D01*
X019989Y005273D01*
X019954Y005332D01*
X019916Y005389D01*
X019874Y005444D01*
X019829Y005496D01*
X019781Y005545D01*
X019731Y005592D01*
X019678Y005636D01*
X019623Y005677D01*
X019565Y005715D01*
X019505Y005749D01*
X019444Y005780D01*
X019381Y005807D01*
X019316Y005831D01*
X019250Y005851D01*
X019184Y005867D01*
X019116Y005880D01*
X019048Y005888D01*
X018979Y005893D01*
X018910Y005894D01*
X018842Y005891D01*
X018773Y005884D01*
X018705Y005873D01*
X018638Y005858D01*
X018572Y005840D01*
X018506Y005818D01*
X018443Y005792D01*
X018380Y005763D01*
X018320Y005730D01*
X018262Y005693D01*
X018205Y005654D01*
X018151Y005611D01*
X018100Y005566D01*
X018051Y005517D01*
X018005Y005466D01*
X017962Y005412D01*
X015648Y005700D02*
X015720Y005754D01*
X015719Y005753D02*
X015762Y005700D01*
X015807Y005649D01*
X015856Y005601D01*
X015907Y005556D01*
X015961Y005513D01*
X016017Y005474D01*
X016075Y005438D01*
X016135Y005405D01*
X016196Y005376D01*
X016260Y005351D01*
X016324Y005329D01*
X016390Y005310D01*
X016457Y005296D01*
X016524Y005285D01*
X016592Y005278D01*
X016660Y005275D01*
X016729Y005276D01*
X016797Y005281D01*
X016865Y005289D01*
X016932Y005302D01*
X016998Y005318D01*
X017063Y005338D01*
X017128Y005361D01*
X017190Y005388D01*
X017251Y005419D01*
X017310Y005453D01*
X017368Y005490D01*
X017423Y005531D01*
X017475Y005575D01*
X017525Y005621D01*
X017572Y005670D01*
X017617Y005722D01*
X017658Y005776D01*
X017697Y005833D01*
X017732Y005892D01*
X017763Y005952D01*
X017791Y006014D01*
X017816Y006078D01*
X017837Y006143D01*
X017854Y006209D01*
X017868Y006276D01*
X017877Y006344D01*
X017883Y006412D01*
X017885Y006480D01*
X017883Y006548D01*
X017877Y006616D01*
X017868Y006684D01*
X017854Y006751D01*
X017837Y006817D01*
X017816Y006882D01*
X017791Y006946D01*
X017763Y007008D01*
X017732Y007068D01*
X017697Y007127D01*
X017658Y007184D01*
X017617Y007238D01*
X017572Y007290D01*
X017525Y007339D01*
X017475Y007385D01*
X017423Y007429D01*
X017368Y007470D01*
X017310Y007507D01*
X017251Y007541D01*
X017190Y007572D01*
X017128Y007599D01*
X017063Y007622D01*
X016998Y007642D01*
X016932Y007658D01*
X016865Y007671D01*
X016797Y007679D01*
X016729Y007684D01*
X016660Y007685D01*
X016592Y007682D01*
X016524Y007675D01*
X016457Y007664D01*
X016390Y007650D01*
X016324Y007631D01*
X016260Y007609D01*
X016196Y007584D01*
X016135Y007555D01*
X016075Y007522D01*
X016017Y007486D01*
X015961Y007447D01*
X015907Y007404D01*
X015856Y007359D01*
X015807Y007311D01*
X015762Y007260D01*
X015719Y007207D01*
X015648Y007260D01*
X015647Y007261D01*
X015691Y007316D01*
X015739Y007369D01*
X015789Y007420D01*
X015842Y007467D01*
X015897Y007511D01*
X015955Y007553D01*
X016015Y007591D01*
X016076Y007626D01*
X016140Y007657D01*
X016205Y007685D01*
X016272Y007709D01*
X016340Y007730D01*
X016409Y007746D01*
X016479Y007759D01*
X016549Y007768D01*
X016620Y007774D01*
X016691Y007775D01*
X016762Y007772D01*
X016833Y007766D01*
X016903Y007756D01*
X016972Y007742D01*
X017041Y007724D01*
X017109Y007702D01*
X017175Y007677D01*
X017240Y007648D01*
X017303Y007615D01*
X017364Y007579D01*
X017423Y007540D01*
X017480Y007498D01*
X017535Y007453D01*
X017587Y007404D01*
X017636Y007353D01*
X017683Y007300D01*
X017726Y007243D01*
X017766Y007185D01*
X017803Y007124D01*
X017837Y007062D01*
X017867Y006998D01*
X017894Y006932D01*
X017917Y006865D01*
X017936Y006796D01*
X017951Y006727D01*
X017963Y006657D01*
X017971Y006586D01*
X017975Y006515D01*
X017975Y006445D01*
X017971Y006374D01*
X017963Y006303D01*
X017951Y006233D01*
X017936Y006164D01*
X017917Y006095D01*
X017894Y006028D01*
X017867Y005962D01*
X017837Y005898D01*
X017803Y005836D01*
X017766Y005775D01*
X017726Y005717D01*
X017683Y005660D01*
X017636Y005607D01*
X017587Y005556D01*
X017535Y005507D01*
X017480Y005462D01*
X017423Y005420D01*
X017364Y005381D01*
X017303Y005345D01*
X017240Y005312D01*
X017175Y005283D01*
X017109Y005258D01*
X017041Y005236D01*
X016972Y005218D01*
X016903Y005204D01*
X016833Y005194D01*
X016762Y005188D01*
X016691Y005185D01*
X016620Y005186D01*
X016549Y005192D01*
X016479Y005201D01*
X016409Y005214D01*
X016340Y005230D01*
X016272Y005251D01*
X016205Y005275D01*
X016140Y005303D01*
X016076Y005334D01*
X016015Y005369D01*
X015955Y005407D01*
X015897Y005449D01*
X015842Y005493D01*
X015789Y005540D01*
X015739Y005591D01*
X015691Y005644D01*
X015647Y005699D01*
X015654Y005704D01*
X015699Y005649D01*
X015746Y005596D01*
X015797Y005545D01*
X015850Y005498D01*
X015906Y005453D01*
X015964Y005412D01*
X016024Y005374D01*
X016086Y005339D01*
X016150Y005308D01*
X016216Y005281D01*
X016283Y005257D01*
X016352Y005237D01*
X016421Y005220D01*
X016491Y005208D01*
X016562Y005199D01*
X016633Y005195D01*
X016704Y005194D01*
X016775Y005198D01*
X016846Y005205D01*
X016917Y005216D01*
X016986Y005231D01*
X017055Y005250D01*
X017123Y005273D01*
X017189Y005299D01*
X017254Y005329D01*
X017316Y005363D01*
X017377Y005399D01*
X017436Y005440D01*
X017493Y005483D01*
X017547Y005530D01*
X017598Y005579D01*
X017646Y005632D01*
X017692Y005686D01*
X017734Y005744D01*
X017773Y005803D01*
X017809Y005865D01*
X017842Y005928D01*
X017870Y005993D01*
X017896Y006060D01*
X017917Y006128D01*
X017935Y006197D01*
X017948Y006267D01*
X017958Y006338D01*
X017964Y006409D01*
X017966Y006480D01*
X017964Y006551D01*
X017958Y006622D01*
X017948Y006693D01*
X017935Y006763D01*
X017917Y006832D01*
X017896Y006900D01*
X017870Y006967D01*
X017842Y007032D01*
X017809Y007095D01*
X017773Y007157D01*
X017734Y007216D01*
X017692Y007274D01*
X017646Y007328D01*
X017598Y007381D01*
X017547Y007430D01*
X017493Y007477D01*
X017436Y007520D01*
X017377Y007561D01*
X017316Y007597D01*
X017254Y007631D01*
X017189Y007661D01*
X017123Y007687D01*
X017055Y007710D01*
X016986Y007729D01*
X016917Y007744D01*
X016846Y007755D01*
X016775Y007762D01*
X016704Y007766D01*
X016633Y007765D01*
X016562Y007761D01*
X016491Y007752D01*
X016421Y007740D01*
X016352Y007723D01*
X016283Y007703D01*
X016216Y007679D01*
X016150Y007652D01*
X016086Y007621D01*
X016024Y007586D01*
X015964Y007548D01*
X015906Y007507D01*
X015850Y007462D01*
X015797Y007415D01*
X015746Y007364D01*
X015699Y007311D01*
X015654Y007256D01*
X015661Y007250D01*
X015706Y007305D01*
X015753Y007358D01*
X015803Y007408D01*
X015856Y007455D01*
X015911Y007499D01*
X015969Y007541D01*
X016028Y007578D01*
X016090Y007613D01*
X016154Y007644D01*
X016219Y007671D01*
X016286Y007695D01*
X016354Y007715D01*
X016423Y007731D01*
X016492Y007743D01*
X016563Y007752D01*
X016633Y007756D01*
X016704Y007757D01*
X016775Y007753D01*
X016845Y007746D01*
X016915Y007735D01*
X016984Y007720D01*
X017052Y007701D01*
X017120Y007679D01*
X017185Y007653D01*
X017250Y007623D01*
X017312Y007590D01*
X017372Y007553D01*
X017431Y007513D01*
X017487Y007470D01*
X017541Y007424D01*
X017591Y007374D01*
X017640Y007323D01*
X017685Y007268D01*
X017727Y007211D01*
X017766Y007152D01*
X017801Y007091D01*
X017834Y007028D01*
X017862Y006963D01*
X017887Y006897D01*
X017908Y006829D01*
X017926Y006761D01*
X017939Y006691D01*
X017949Y006621D01*
X017955Y006551D01*
X017957Y006480D01*
X017955Y006409D01*
X017949Y006339D01*
X017939Y006269D01*
X017926Y006199D01*
X017908Y006131D01*
X017887Y006063D01*
X017862Y005997D01*
X017834Y005932D01*
X017801Y005869D01*
X017766Y005808D01*
X017727Y005749D01*
X017685Y005692D01*
X017640Y005637D01*
X017591Y005586D01*
X017541Y005536D01*
X017487Y005490D01*
X017431Y005447D01*
X017372Y005407D01*
X017312Y005370D01*
X017250Y005337D01*
X017185Y005307D01*
X017120Y005281D01*
X017052Y005259D01*
X016984Y005240D01*
X016915Y005225D01*
X016845Y005214D01*
X016775Y005207D01*
X016704Y005203D01*
X016633Y005204D01*
X016563Y005208D01*
X016492Y005217D01*
X016423Y005229D01*
X016354Y005245D01*
X016286Y005265D01*
X016219Y005289D01*
X016154Y005316D01*
X016090Y005347D01*
X016028Y005382D01*
X015969Y005419D01*
X015911Y005461D01*
X015856Y005505D01*
X015803Y005552D01*
X015753Y005602D01*
X015706Y005655D01*
X015661Y005710D01*
X015669Y005715D01*
X015713Y005660D01*
X015761Y005607D01*
X015811Y005557D01*
X015864Y005509D01*
X015920Y005465D01*
X015978Y005424D01*
X016038Y005387D01*
X016100Y005352D01*
X016164Y005322D01*
X016230Y005295D01*
X016297Y005271D01*
X016365Y005252D01*
X016435Y005236D01*
X016505Y005224D01*
X016575Y005216D01*
X016646Y005212D01*
X016717Y005213D01*
X016788Y005217D01*
X016859Y005225D01*
X016929Y005237D01*
X016998Y005253D01*
X017066Y005272D01*
X017134Y005296D01*
X017199Y005323D01*
X017263Y005354D01*
X017325Y005388D01*
X017385Y005426D01*
X017443Y005468D01*
X017499Y005512D01*
X017552Y005559D01*
X017602Y005610D01*
X017649Y005663D01*
X017694Y005718D01*
X017735Y005776D01*
X017772Y005836D01*
X017807Y005899D01*
X017838Y005963D01*
X017865Y006028D01*
X017888Y006095D01*
X017908Y006164D01*
X017924Y006233D01*
X017936Y006303D01*
X017944Y006374D01*
X017948Y006444D01*
X017948Y006516D01*
X017944Y006586D01*
X017936Y006657D01*
X017924Y006727D01*
X017908Y006796D01*
X017888Y006865D01*
X017865Y006932D01*
X017838Y006997D01*
X017807Y007061D01*
X017772Y007124D01*
X017735Y007184D01*
X017694Y007242D01*
X017649Y007297D01*
X017602Y007350D01*
X017552Y007401D01*
X017499Y007448D01*
X017443Y007492D01*
X017385Y007534D01*
X017325Y007572D01*
X017263Y007606D01*
X017199Y007637D01*
X017134Y007664D01*
X017066Y007688D01*
X016998Y007707D01*
X016929Y007723D01*
X016859Y007735D01*
X016788Y007743D01*
X016717Y007747D01*
X016646Y007748D01*
X016575Y007744D01*
X016505Y007736D01*
X016435Y007724D01*
X016365Y007708D01*
X016297Y007689D01*
X016230Y007665D01*
X016164Y007638D01*
X016100Y007608D01*
X016038Y007573D01*
X015978Y007536D01*
X015920Y007495D01*
X015864Y007451D01*
X015811Y007403D01*
X015761Y007353D01*
X015713Y007300D01*
X015669Y007245D01*
X015676Y007239D01*
X015720Y007294D01*
X015767Y007347D01*
X015817Y007397D01*
X015870Y007444D01*
X015925Y007488D01*
X015983Y007528D01*
X016042Y007566D01*
X016104Y007600D01*
X016168Y007630D01*
X016233Y007657D01*
X016300Y007680D01*
X016368Y007700D01*
X016436Y007715D01*
X016506Y007727D01*
X016576Y007735D01*
X016647Y007739D01*
X016717Y007738D01*
X016788Y007734D01*
X016858Y007726D01*
X016927Y007714D01*
X016996Y007699D01*
X017064Y007679D01*
X017130Y007656D01*
X017195Y007629D01*
X017259Y007598D01*
X017321Y007564D01*
X017380Y007526D01*
X017438Y007485D01*
X017493Y007441D01*
X017546Y007394D01*
X017595Y007344D01*
X017642Y007292D01*
X017686Y007236D01*
X017727Y007179D01*
X017765Y007119D01*
X017799Y007057D01*
X017829Y006994D01*
X017856Y006929D01*
X017880Y006862D01*
X017899Y006794D01*
X017915Y006725D01*
X017927Y006656D01*
X017935Y006586D01*
X017939Y006515D01*
X017939Y006445D01*
X017935Y006374D01*
X017927Y006304D01*
X017915Y006235D01*
X017899Y006166D01*
X017880Y006098D01*
X017856Y006031D01*
X017829Y005966D01*
X017799Y005903D01*
X017765Y005841D01*
X017727Y005781D01*
X017686Y005724D01*
X017642Y005668D01*
X017595Y005616D01*
X017546Y005566D01*
X017493Y005519D01*
X017438Y005475D01*
X017380Y005434D01*
X017321Y005396D01*
X017259Y005362D01*
X017195Y005331D01*
X017130Y005304D01*
X017064Y005281D01*
X016996Y005261D01*
X016927Y005246D01*
X016858Y005234D01*
X016788Y005226D01*
X016717Y005222D01*
X016647Y005221D01*
X016576Y005225D01*
X016506Y005233D01*
X016436Y005245D01*
X016368Y005260D01*
X016300Y005280D01*
X016233Y005303D01*
X016168Y005330D01*
X016104Y005360D01*
X016042Y005394D01*
X015983Y005432D01*
X015925Y005472D01*
X015870Y005516D01*
X015817Y005563D01*
X015767Y005613D01*
X015720Y005666D01*
X015676Y005721D01*
X015683Y005726D01*
X015727Y005671D01*
X015774Y005619D01*
X015823Y005570D01*
X015876Y005523D01*
X015930Y005480D01*
X015988Y005439D01*
X016047Y005402D01*
X016108Y005368D01*
X016172Y005338D01*
X016236Y005311D01*
X016303Y005288D01*
X016370Y005269D01*
X016438Y005254D01*
X016507Y005242D01*
X016577Y005234D01*
X016647Y005230D01*
X016717Y005231D01*
X016787Y005235D01*
X016856Y005243D01*
X016925Y005254D01*
X016994Y005270D01*
X017061Y005289D01*
X017127Y005313D01*
X017192Y005340D01*
X017255Y005370D01*
X017316Y005404D01*
X017375Y005441D01*
X017433Y005482D01*
X017487Y005526D01*
X017539Y005572D01*
X017589Y005622D01*
X017636Y005674D01*
X017679Y005729D01*
X017720Y005786D01*
X017757Y005845D01*
X017791Y005907D01*
X017821Y005970D01*
X017848Y006035D01*
X017871Y006101D01*
X017890Y006168D01*
X017906Y006236D01*
X017918Y006305D01*
X017926Y006375D01*
X017930Y006445D01*
X017930Y006515D01*
X017926Y006585D01*
X017918Y006655D01*
X017906Y006724D01*
X017890Y006792D01*
X017871Y006859D01*
X017848Y006925D01*
X017821Y006990D01*
X017791Y007053D01*
X017757Y007115D01*
X017720Y007174D01*
X017679Y007231D01*
X017636Y007286D01*
X017589Y007338D01*
X017539Y007388D01*
X017487Y007434D01*
X017433Y007478D01*
X017375Y007519D01*
X017316Y007556D01*
X017255Y007590D01*
X017192Y007620D01*
X017127Y007647D01*
X017061Y007671D01*
X016994Y007690D01*
X016925Y007706D01*
X016856Y007717D01*
X016787Y007725D01*
X016717Y007729D01*
X016647Y007730D01*
X016577Y007726D01*
X016507Y007718D01*
X016438Y007706D01*
X016370Y007691D01*
X016303Y007672D01*
X016236Y007649D01*
X016172Y007622D01*
X016108Y007592D01*
X016047Y007558D01*
X015988Y007521D01*
X015930Y007480D01*
X015876Y007437D01*
X015823Y007390D01*
X015774Y007341D01*
X015727Y007289D01*
X015683Y007234D01*
X015690Y007229D01*
X015734Y007283D01*
X015780Y007335D01*
X015829Y007384D01*
X015881Y007430D01*
X015936Y007473D01*
X015993Y007513D01*
X016052Y007550D01*
X016113Y007584D01*
X016175Y007614D01*
X016240Y007640D01*
X016305Y007663D01*
X016372Y007682D01*
X016440Y007698D01*
X016509Y007709D01*
X016578Y007717D01*
X016647Y007721D01*
X016717Y007720D01*
X016786Y007716D01*
X016855Y007709D01*
X016924Y007697D01*
X016991Y007681D01*
X017058Y007662D01*
X017124Y007639D01*
X017188Y007612D01*
X017251Y007582D01*
X017312Y007548D01*
X017370Y007511D01*
X017427Y007471D01*
X017481Y007428D01*
X017533Y007381D01*
X017582Y007332D01*
X017629Y007280D01*
X017672Y007226D01*
X017712Y007169D01*
X017749Y007110D01*
X017783Y007049D01*
X017813Y006986D01*
X017840Y006922D01*
X017863Y006857D01*
X017882Y006790D01*
X017897Y006722D01*
X017909Y006653D01*
X017917Y006584D01*
X017921Y006515D01*
X017921Y006445D01*
X017917Y006376D01*
X017909Y006307D01*
X017897Y006238D01*
X017882Y006170D01*
X017863Y006103D01*
X017840Y006038D01*
X017813Y005974D01*
X017783Y005911D01*
X017749Y005850D01*
X017712Y005791D01*
X017672Y005734D01*
X017629Y005680D01*
X017582Y005628D01*
X017533Y005579D01*
X017481Y005532D01*
X017427Y005489D01*
X017370Y005449D01*
X017312Y005412D01*
X017251Y005378D01*
X017188Y005348D01*
X017124Y005321D01*
X017058Y005298D01*
X016991Y005279D01*
X016924Y005263D01*
X016855Y005251D01*
X016786Y005244D01*
X016717Y005240D01*
X016647Y005239D01*
X016578Y005243D01*
X016509Y005251D01*
X016440Y005262D01*
X016372Y005278D01*
X016305Y005297D01*
X016240Y005320D01*
X016175Y005346D01*
X016113Y005376D01*
X016052Y005410D01*
X015993Y005447D01*
X015936Y005487D01*
X015881Y005530D01*
X015829Y005576D01*
X015780Y005625D01*
X015734Y005677D01*
X015690Y005731D01*
X015697Y005737D01*
X015741Y005683D01*
X015787Y005632D01*
X015836Y005583D01*
X015887Y005537D01*
X015941Y005494D01*
X015998Y005454D01*
X016056Y005418D01*
X016117Y005384D01*
X016179Y005354D01*
X016243Y005328D01*
X016308Y005306D01*
X016374Y005287D01*
X016442Y005271D01*
X016510Y005260D01*
X016578Y005252D01*
X016647Y005248D01*
X016716Y005249D01*
X016785Y005253D01*
X016854Y005260D01*
X016922Y005272D01*
X016989Y005287D01*
X017056Y005307D01*
X017121Y005330D01*
X017184Y005356D01*
X017247Y005386D01*
X017307Y005419D01*
X017365Y005456D01*
X017422Y005496D01*
X017476Y005539D01*
X017527Y005585D01*
X017576Y005634D01*
X017622Y005686D01*
X017665Y005740D01*
X017705Y005796D01*
X017741Y005855D01*
X017775Y005915D01*
X017805Y005977D01*
X017831Y006041D01*
X017854Y006106D01*
X017873Y006173D01*
X017888Y006240D01*
X017900Y006308D01*
X017908Y006377D01*
X017912Y006445D01*
X017912Y006515D01*
X017908Y006583D01*
X017900Y006652D01*
X017888Y006720D01*
X017873Y006787D01*
X017854Y006854D01*
X017831Y006919D01*
X017805Y006983D01*
X017775Y007045D01*
X017741Y007105D01*
X017705Y007164D01*
X017665Y007220D01*
X017622Y007274D01*
X017576Y007326D01*
X017527Y007375D01*
X017476Y007421D01*
X017422Y007464D01*
X017365Y007504D01*
X017307Y007541D01*
X017247Y007574D01*
X017184Y007604D01*
X017121Y007630D01*
X017056Y007653D01*
X016989Y007673D01*
X016922Y007688D01*
X016854Y007700D01*
X016785Y007707D01*
X016716Y007711D01*
X016647Y007712D01*
X016578Y007708D01*
X016510Y007700D01*
X016442Y007689D01*
X016374Y007673D01*
X016308Y007654D01*
X016243Y007632D01*
X016179Y007606D01*
X016117Y007576D01*
X016056Y007542D01*
X015998Y007506D01*
X015941Y007466D01*
X015887Y007423D01*
X015836Y007377D01*
X015787Y007328D01*
X015741Y007277D01*
X015697Y007223D01*
X015705Y007218D01*
X015748Y007272D01*
X015794Y007323D01*
X015844Y007372D01*
X015895Y007418D01*
X015950Y007461D01*
X016007Y007501D01*
X016065Y007537D01*
X016126Y007571D01*
X016189Y007600D01*
X016253Y007626D01*
X016319Y007648D01*
X016386Y007667D01*
X016453Y007682D01*
X016522Y007693D01*
X016591Y007700D01*
X016660Y007703D01*
X016729Y007702D01*
X016799Y007697D01*
X016867Y007689D01*
X016935Y007676D01*
X017003Y007660D01*
X017069Y007639D01*
X017134Y007616D01*
X017198Y007588D01*
X017260Y007557D01*
X017320Y007522D01*
X017378Y007484D01*
X017434Y007443D01*
X017487Y007399D01*
X017538Y007352D01*
X017586Y007302D01*
X017631Y007249D01*
X017673Y007194D01*
X017712Y007137D01*
X017747Y007077D01*
X017779Y007016D01*
X017808Y006953D01*
X017833Y006888D01*
X017854Y006822D01*
X017872Y006755D01*
X017885Y006687D01*
X017895Y006618D01*
X017901Y006549D01*
X017903Y006480D01*
X017901Y006411D01*
X017895Y006342D01*
X017885Y006273D01*
X017872Y006205D01*
X017854Y006138D01*
X017833Y006072D01*
X017808Y006007D01*
X017779Y005944D01*
X017747Y005883D01*
X017712Y005823D01*
X017673Y005766D01*
X017631Y005711D01*
X017586Y005658D01*
X017538Y005608D01*
X017487Y005561D01*
X017434Y005517D01*
X017378Y005476D01*
X017320Y005438D01*
X017260Y005403D01*
X017198Y005372D01*
X017134Y005344D01*
X017069Y005321D01*
X017003Y005300D01*
X016935Y005284D01*
X016867Y005271D01*
X016799Y005263D01*
X016729Y005258D01*
X016660Y005257D01*
X016591Y005260D01*
X016522Y005267D01*
X016453Y005278D01*
X016386Y005293D01*
X016319Y005312D01*
X016253Y005334D01*
X016189Y005360D01*
X016126Y005389D01*
X016065Y005423D01*
X016007Y005459D01*
X015950Y005499D01*
X015895Y005542D01*
X015844Y005588D01*
X015794Y005637D01*
X015748Y005688D01*
X015705Y005742D01*
X015712Y005748D01*
X015755Y005694D01*
X015801Y005643D01*
X015850Y005594D01*
X015901Y005549D01*
X015955Y005506D01*
X016012Y005467D01*
X016070Y005430D01*
X016130Y005397D01*
X016193Y005368D01*
X016256Y005342D01*
X016322Y005320D01*
X016388Y005302D01*
X016455Y005287D01*
X016523Y005276D01*
X016592Y005269D01*
X016660Y005266D01*
X016729Y005267D01*
X016798Y005272D01*
X016866Y005280D01*
X016934Y005293D01*
X017000Y005309D01*
X017066Y005329D01*
X017131Y005353D01*
X017194Y005380D01*
X017255Y005411D01*
X017315Y005445D01*
X017373Y005483D01*
X017428Y005524D01*
X017481Y005568D01*
X017531Y005615D01*
X017579Y005664D01*
X017624Y005716D01*
X017666Y005771D01*
X017704Y005828D01*
X017739Y005887D01*
X017771Y005948D01*
X017800Y006011D01*
X017824Y006075D01*
X017846Y006141D01*
X017863Y006207D01*
X017876Y006275D01*
X017886Y006343D01*
X017892Y006411D01*
X017894Y006480D01*
X017892Y006549D01*
X017886Y006617D01*
X017876Y006685D01*
X017863Y006753D01*
X017846Y006819D01*
X017824Y006885D01*
X017800Y006949D01*
X017771Y007012D01*
X017739Y007073D01*
X017704Y007132D01*
X017666Y007189D01*
X017624Y007244D01*
X017579Y007296D01*
X017531Y007345D01*
X017481Y007392D01*
X017428Y007436D01*
X017373Y007477D01*
X017315Y007515D01*
X017255Y007549D01*
X017194Y007580D01*
X017131Y007607D01*
X017066Y007631D01*
X017000Y007651D01*
X016934Y007667D01*
X016866Y007680D01*
X016798Y007688D01*
X016729Y007693D01*
X016660Y007694D01*
X016592Y007691D01*
X016523Y007684D01*
X016455Y007673D01*
X016388Y007658D01*
X016322Y007640D01*
X016256Y007618D01*
X016193Y007592D01*
X016130Y007563D01*
X016070Y007530D01*
X016012Y007493D01*
X015955Y007454D01*
X015901Y007411D01*
X015850Y007366D01*
X015801Y007317D01*
X015755Y007266D01*
X015712Y007212D01*
X013148Y006750D02*
X013220Y006804D01*
X013219Y006803D02*
X013262Y006750D01*
X013307Y006699D01*
X013356Y006651D01*
X013407Y006606D01*
X013461Y006563D01*
X013517Y006524D01*
X013575Y006488D01*
X013635Y006455D01*
X013696Y006426D01*
X013760Y006401D01*
X013824Y006379D01*
X013890Y006360D01*
X013957Y006346D01*
X014024Y006335D01*
X014092Y006328D01*
X014160Y006325D01*
X014229Y006326D01*
X014297Y006331D01*
X014365Y006339D01*
X014432Y006352D01*
X014498Y006368D01*
X014563Y006388D01*
X014628Y006411D01*
X014690Y006438D01*
X014751Y006469D01*
X014810Y006503D01*
X014868Y006540D01*
X014923Y006581D01*
X014975Y006625D01*
X015025Y006671D01*
X015072Y006720D01*
X015117Y006772D01*
X015158Y006826D01*
X015197Y006883D01*
X015232Y006942D01*
X015263Y007002D01*
X015291Y007064D01*
X015316Y007128D01*
X015337Y007193D01*
X015354Y007259D01*
X015368Y007326D01*
X015377Y007394D01*
X015383Y007462D01*
X015385Y007530D01*
X015383Y007598D01*
X015377Y007666D01*
X015368Y007734D01*
X015354Y007801D01*
X015337Y007867D01*
X015316Y007932D01*
X015291Y007996D01*
X015263Y008058D01*
X015232Y008118D01*
X015197Y008177D01*
X015158Y008234D01*
X015117Y008288D01*
X015072Y008340D01*
X015025Y008389D01*
X014975Y008435D01*
X014923Y008479D01*
X014868Y008520D01*
X014810Y008557D01*
X014751Y008591D01*
X014690Y008622D01*
X014628Y008649D01*
X014563Y008672D01*
X014498Y008692D01*
X014432Y008708D01*
X014365Y008721D01*
X014297Y008729D01*
X014229Y008734D01*
X014160Y008735D01*
X014092Y008732D01*
X014024Y008725D01*
X013957Y008714D01*
X013890Y008700D01*
X013824Y008681D01*
X013760Y008659D01*
X013696Y008634D01*
X013635Y008605D01*
X013575Y008572D01*
X013517Y008536D01*
X013461Y008497D01*
X013407Y008454D01*
X013356Y008409D01*
X013307Y008361D01*
X013262Y008310D01*
X013219Y008257D01*
X013148Y008310D01*
X013147Y008311D01*
X013191Y008366D01*
X013239Y008419D01*
X013289Y008470D01*
X013342Y008517D01*
X013397Y008561D01*
X013455Y008603D01*
X013515Y008641D01*
X013576Y008676D01*
X013640Y008707D01*
X013705Y008735D01*
X013772Y008759D01*
X013840Y008780D01*
X013909Y008796D01*
X013979Y008809D01*
X014049Y008818D01*
X014120Y008824D01*
X014191Y008825D01*
X014262Y008822D01*
X014333Y008816D01*
X014403Y008806D01*
X014472Y008792D01*
X014541Y008774D01*
X014609Y008752D01*
X014675Y008727D01*
X014740Y008698D01*
X014803Y008665D01*
X014864Y008629D01*
X014923Y008590D01*
X014980Y008548D01*
X015035Y008503D01*
X015087Y008454D01*
X015136Y008403D01*
X015183Y008350D01*
X015226Y008293D01*
X015266Y008235D01*
X015303Y008174D01*
X015337Y008112D01*
X015367Y008048D01*
X015394Y007982D01*
X015417Y007915D01*
X015436Y007846D01*
X015451Y007777D01*
X015463Y007707D01*
X015471Y007636D01*
X015475Y007565D01*
X015475Y007495D01*
X015471Y007424D01*
X015463Y007353D01*
X015451Y007283D01*
X015436Y007214D01*
X015417Y007145D01*
X015394Y007078D01*
X015367Y007012D01*
X015337Y006948D01*
X015303Y006886D01*
X015266Y006825D01*
X015226Y006767D01*
X015183Y006710D01*
X015136Y006657D01*
X015087Y006606D01*
X015035Y006557D01*
X014980Y006512D01*
X014923Y006470D01*
X014864Y006431D01*
X014803Y006395D01*
X014740Y006362D01*
X014675Y006333D01*
X014609Y006308D01*
X014541Y006286D01*
X014472Y006268D01*
X014403Y006254D01*
X014333Y006244D01*
X014262Y006238D01*
X014191Y006235D01*
X014120Y006236D01*
X014049Y006242D01*
X013979Y006251D01*
X013909Y006264D01*
X013840Y006280D01*
X013772Y006301D01*
X013705Y006325D01*
X013640Y006353D01*
X013576Y006384D01*
X013515Y006419D01*
X013455Y006457D01*
X013397Y006499D01*
X013342Y006543D01*
X013289Y006590D01*
X013239Y006641D01*
X013191Y006694D01*
X013147Y006749D01*
X013154Y006754D01*
X013199Y006699D01*
X013246Y006646D01*
X013297Y006595D01*
X013350Y006548D01*
X013406Y006503D01*
X013464Y006462D01*
X013524Y006424D01*
X013586Y006389D01*
X013650Y006358D01*
X013716Y006331D01*
X013783Y006307D01*
X013852Y006287D01*
X013921Y006270D01*
X013991Y006258D01*
X014062Y006249D01*
X014133Y006245D01*
X014204Y006244D01*
X014275Y006248D01*
X014346Y006255D01*
X014417Y006266D01*
X014486Y006281D01*
X014555Y006300D01*
X014623Y006323D01*
X014689Y006349D01*
X014754Y006379D01*
X014816Y006413D01*
X014877Y006449D01*
X014936Y006490D01*
X014993Y006533D01*
X015047Y006580D01*
X015098Y006629D01*
X015146Y006682D01*
X015192Y006736D01*
X015234Y006794D01*
X015273Y006853D01*
X015309Y006915D01*
X015342Y006978D01*
X015370Y007043D01*
X015396Y007110D01*
X015417Y007178D01*
X015435Y007247D01*
X015448Y007317D01*
X015458Y007388D01*
X015464Y007459D01*
X015466Y007530D01*
X015464Y007601D01*
X015458Y007672D01*
X015448Y007743D01*
X015435Y007813D01*
X015417Y007882D01*
X015396Y007950D01*
X015370Y008017D01*
X015342Y008082D01*
X015309Y008145D01*
X015273Y008207D01*
X015234Y008266D01*
X015192Y008324D01*
X015146Y008378D01*
X015098Y008431D01*
X015047Y008480D01*
X014993Y008527D01*
X014936Y008570D01*
X014877Y008611D01*
X014816Y008647D01*
X014754Y008681D01*
X014689Y008711D01*
X014623Y008737D01*
X014555Y008760D01*
X014486Y008779D01*
X014417Y008794D01*
X014346Y008805D01*
X014275Y008812D01*
X014204Y008816D01*
X014133Y008815D01*
X014062Y008811D01*
X013991Y008802D01*
X013921Y008790D01*
X013852Y008773D01*
X013783Y008753D01*
X013716Y008729D01*
X013650Y008702D01*
X013586Y008671D01*
X013524Y008636D01*
X013464Y008598D01*
X013406Y008557D01*
X013350Y008512D01*
X013297Y008465D01*
X013246Y008414D01*
X013199Y008361D01*
X013154Y008306D01*
X013161Y008300D01*
X013206Y008355D01*
X013253Y008408D01*
X013303Y008458D01*
X013356Y008505D01*
X013411Y008549D01*
X013469Y008591D01*
X013528Y008628D01*
X013590Y008663D01*
X013654Y008694D01*
X013719Y008721D01*
X013786Y008745D01*
X013854Y008765D01*
X013923Y008781D01*
X013992Y008793D01*
X014063Y008802D01*
X014133Y008806D01*
X014204Y008807D01*
X014275Y008803D01*
X014345Y008796D01*
X014415Y008785D01*
X014484Y008770D01*
X014552Y008751D01*
X014620Y008729D01*
X014685Y008703D01*
X014750Y008673D01*
X014812Y008640D01*
X014872Y008603D01*
X014931Y008563D01*
X014987Y008520D01*
X015041Y008474D01*
X015091Y008424D01*
X015140Y008373D01*
X015185Y008318D01*
X015227Y008261D01*
X015266Y008202D01*
X015301Y008141D01*
X015334Y008078D01*
X015362Y008013D01*
X015387Y007947D01*
X015408Y007879D01*
X015426Y007811D01*
X015439Y007741D01*
X015449Y007671D01*
X015455Y007601D01*
X015457Y007530D01*
X015455Y007459D01*
X015449Y007389D01*
X015439Y007319D01*
X015426Y007249D01*
X015408Y007181D01*
X015387Y007113D01*
X015362Y007047D01*
X015334Y006982D01*
X015301Y006919D01*
X015266Y006858D01*
X015227Y006799D01*
X015185Y006742D01*
X015140Y006687D01*
X015091Y006636D01*
X015041Y006586D01*
X014987Y006540D01*
X014931Y006497D01*
X014872Y006457D01*
X014812Y006420D01*
X014750Y006387D01*
X014685Y006357D01*
X014620Y006331D01*
X014552Y006309D01*
X014484Y006290D01*
X014415Y006275D01*
X014345Y006264D01*
X014275Y006257D01*
X014204Y006253D01*
X014133Y006254D01*
X014063Y006258D01*
X013992Y006267D01*
X013923Y006279D01*
X013854Y006295D01*
X013786Y006315D01*
X013719Y006339D01*
X013654Y006366D01*
X013590Y006397D01*
X013528Y006432D01*
X013469Y006469D01*
X013411Y006511D01*
X013356Y006555D01*
X013303Y006602D01*
X013253Y006652D01*
X013206Y006705D01*
X013161Y006760D01*
X013169Y006765D01*
X013213Y006710D01*
X013261Y006657D01*
X013311Y006607D01*
X013364Y006559D01*
X013420Y006515D01*
X013478Y006474D01*
X013538Y006437D01*
X013600Y006402D01*
X013664Y006372D01*
X013730Y006345D01*
X013797Y006321D01*
X013865Y006302D01*
X013935Y006286D01*
X014005Y006274D01*
X014075Y006266D01*
X014146Y006262D01*
X014217Y006263D01*
X014288Y006267D01*
X014359Y006275D01*
X014429Y006287D01*
X014498Y006303D01*
X014566Y006322D01*
X014634Y006346D01*
X014699Y006373D01*
X014763Y006404D01*
X014825Y006438D01*
X014885Y006476D01*
X014943Y006518D01*
X014999Y006562D01*
X015052Y006609D01*
X015102Y006660D01*
X015149Y006713D01*
X015194Y006768D01*
X015235Y006826D01*
X015272Y006886D01*
X015307Y006949D01*
X015338Y007013D01*
X015365Y007078D01*
X015388Y007145D01*
X015408Y007214D01*
X015424Y007283D01*
X015436Y007353D01*
X015444Y007424D01*
X015448Y007494D01*
X015448Y007566D01*
X015444Y007636D01*
X015436Y007707D01*
X015424Y007777D01*
X015408Y007846D01*
X015388Y007915D01*
X015365Y007982D01*
X015338Y008047D01*
X015307Y008111D01*
X015272Y008174D01*
X015235Y008234D01*
X015194Y008292D01*
X015149Y008347D01*
X015102Y008400D01*
X015052Y008451D01*
X014999Y008498D01*
X014943Y008542D01*
X014885Y008584D01*
X014825Y008622D01*
X014763Y008656D01*
X014699Y008687D01*
X014634Y008714D01*
X014566Y008738D01*
X014498Y008757D01*
X014429Y008773D01*
X014359Y008785D01*
X014288Y008793D01*
X014217Y008797D01*
X014146Y008798D01*
X014075Y008794D01*
X014005Y008786D01*
X013935Y008774D01*
X013865Y008758D01*
X013797Y008739D01*
X013730Y008715D01*
X013664Y008688D01*
X013600Y008658D01*
X013538Y008623D01*
X013478Y008586D01*
X013420Y008545D01*
X013364Y008501D01*
X013311Y008453D01*
X013261Y008403D01*
X013213Y008350D01*
X013169Y008295D01*
X013176Y008289D01*
X013220Y008344D01*
X013267Y008397D01*
X013317Y008447D01*
X013370Y008494D01*
X013425Y008538D01*
X013483Y008578D01*
X013542Y008616D01*
X013604Y008650D01*
X013668Y008680D01*
X013733Y008707D01*
X013800Y008730D01*
X013868Y008750D01*
X013936Y008765D01*
X014006Y008777D01*
X014076Y008785D01*
X014147Y008789D01*
X014217Y008788D01*
X014288Y008784D01*
X014358Y008776D01*
X014427Y008764D01*
X014496Y008749D01*
X014564Y008729D01*
X014630Y008706D01*
X014695Y008679D01*
X014759Y008648D01*
X014821Y008614D01*
X014880Y008576D01*
X014938Y008535D01*
X014993Y008491D01*
X015046Y008444D01*
X015095Y008394D01*
X015142Y008342D01*
X015186Y008286D01*
X015227Y008229D01*
X015265Y008169D01*
X015299Y008107D01*
X015329Y008044D01*
X015356Y007979D01*
X015380Y007912D01*
X015399Y007844D01*
X015415Y007775D01*
X015427Y007706D01*
X015435Y007636D01*
X015439Y007565D01*
X015439Y007495D01*
X015435Y007424D01*
X015427Y007354D01*
X015415Y007285D01*
X015399Y007216D01*
X015380Y007148D01*
X015356Y007081D01*
X015329Y007016D01*
X015299Y006953D01*
X015265Y006891D01*
X015227Y006831D01*
X015186Y006774D01*
X015142Y006718D01*
X015095Y006666D01*
X015046Y006616D01*
X014993Y006569D01*
X014938Y006525D01*
X014880Y006484D01*
X014821Y006446D01*
X014759Y006412D01*
X014695Y006381D01*
X014630Y006354D01*
X014564Y006331D01*
X014496Y006311D01*
X014427Y006296D01*
X014358Y006284D01*
X014288Y006276D01*
X014217Y006272D01*
X014147Y006271D01*
X014076Y006275D01*
X014006Y006283D01*
X013936Y006295D01*
X013868Y006310D01*
X013800Y006330D01*
X013733Y006353D01*
X013668Y006380D01*
X013604Y006410D01*
X013542Y006444D01*
X013483Y006482D01*
X013425Y006522D01*
X013370Y006566D01*
X013317Y006613D01*
X013267Y006663D01*
X013220Y006716D01*
X013176Y006771D01*
X013183Y006776D01*
X013227Y006721D01*
X013274Y006669D01*
X013323Y006620D01*
X013376Y006573D01*
X013430Y006530D01*
X013488Y006489D01*
X013547Y006452D01*
X013608Y006418D01*
X013672Y006388D01*
X013736Y006361D01*
X013803Y006338D01*
X013870Y006319D01*
X013938Y006304D01*
X014007Y006292D01*
X014077Y006284D01*
X014147Y006280D01*
X014217Y006281D01*
X014287Y006285D01*
X014356Y006293D01*
X014425Y006304D01*
X014494Y006320D01*
X014561Y006339D01*
X014627Y006363D01*
X014692Y006390D01*
X014755Y006420D01*
X014816Y006454D01*
X014875Y006491D01*
X014933Y006532D01*
X014987Y006576D01*
X015039Y006622D01*
X015089Y006672D01*
X015136Y006724D01*
X015179Y006779D01*
X015220Y006836D01*
X015257Y006895D01*
X015291Y006957D01*
X015321Y007020D01*
X015348Y007085D01*
X015371Y007151D01*
X015390Y007218D01*
X015406Y007286D01*
X015418Y007355D01*
X015426Y007425D01*
X015430Y007495D01*
X015430Y007565D01*
X015426Y007635D01*
X015418Y007705D01*
X015406Y007774D01*
X015390Y007842D01*
X015371Y007909D01*
X015348Y007975D01*
X015321Y008040D01*
X015291Y008103D01*
X015257Y008165D01*
X015220Y008224D01*
X015179Y008281D01*
X015136Y008336D01*
X015089Y008388D01*
X015039Y008438D01*
X014987Y008484D01*
X014933Y008528D01*
X014875Y008569D01*
X014816Y008606D01*
X014755Y008640D01*
X014692Y008670D01*
X014627Y008697D01*
X014561Y008721D01*
X014494Y008740D01*
X014425Y008756D01*
X014356Y008767D01*
X014287Y008775D01*
X014217Y008779D01*
X014147Y008780D01*
X014077Y008776D01*
X014007Y008768D01*
X013938Y008756D01*
X013870Y008741D01*
X013803Y008722D01*
X013736Y008699D01*
X013672Y008672D01*
X013608Y008642D01*
X013547Y008608D01*
X013488Y008571D01*
X013430Y008530D01*
X013376Y008487D01*
X013323Y008440D01*
X013274Y008391D01*
X013227Y008339D01*
X013183Y008284D01*
X013190Y008279D01*
X013234Y008333D01*
X013280Y008385D01*
X013329Y008434D01*
X013381Y008480D01*
X013436Y008523D01*
X013493Y008563D01*
X013552Y008600D01*
X013613Y008634D01*
X013675Y008664D01*
X013740Y008690D01*
X013805Y008713D01*
X013872Y008732D01*
X013940Y008748D01*
X014009Y008759D01*
X014078Y008767D01*
X014147Y008771D01*
X014217Y008770D01*
X014286Y008766D01*
X014355Y008759D01*
X014424Y008747D01*
X014491Y008731D01*
X014558Y008712D01*
X014624Y008689D01*
X014688Y008662D01*
X014751Y008632D01*
X014812Y008598D01*
X014870Y008561D01*
X014927Y008521D01*
X014981Y008478D01*
X015033Y008431D01*
X015082Y008382D01*
X015129Y008330D01*
X015172Y008276D01*
X015212Y008219D01*
X015249Y008160D01*
X015283Y008099D01*
X015313Y008036D01*
X015340Y007972D01*
X015363Y007907D01*
X015382Y007840D01*
X015397Y007772D01*
X015409Y007703D01*
X015417Y007634D01*
X015421Y007565D01*
X015421Y007495D01*
X015417Y007426D01*
X015409Y007357D01*
X015397Y007288D01*
X015382Y007220D01*
X015363Y007153D01*
X015340Y007088D01*
X015313Y007024D01*
X015283Y006961D01*
X015249Y006900D01*
X015212Y006841D01*
X015172Y006784D01*
X015129Y006730D01*
X015082Y006678D01*
X015033Y006629D01*
X014981Y006582D01*
X014927Y006539D01*
X014870Y006499D01*
X014812Y006462D01*
X014751Y006428D01*
X014688Y006398D01*
X014624Y006371D01*
X014558Y006348D01*
X014491Y006329D01*
X014424Y006313D01*
X014355Y006301D01*
X014286Y006294D01*
X014217Y006290D01*
X014147Y006289D01*
X014078Y006293D01*
X014009Y006301D01*
X013940Y006312D01*
X013872Y006328D01*
X013805Y006347D01*
X013740Y006370D01*
X013675Y006396D01*
X013613Y006426D01*
X013552Y006460D01*
X013493Y006497D01*
X013436Y006537D01*
X013381Y006580D01*
X013329Y006626D01*
X013280Y006675D01*
X013234Y006727D01*
X013190Y006781D01*
X013197Y006787D01*
X013241Y006733D01*
X013287Y006682D01*
X013336Y006633D01*
X013387Y006587D01*
X013441Y006544D01*
X013498Y006504D01*
X013556Y006468D01*
X013617Y006434D01*
X013679Y006404D01*
X013743Y006378D01*
X013808Y006356D01*
X013874Y006337D01*
X013942Y006321D01*
X014010Y006310D01*
X014078Y006302D01*
X014147Y006298D01*
X014216Y006299D01*
X014285Y006303D01*
X014354Y006310D01*
X014422Y006322D01*
X014489Y006337D01*
X014556Y006357D01*
X014621Y006380D01*
X014684Y006406D01*
X014747Y006436D01*
X014807Y006469D01*
X014865Y006506D01*
X014922Y006546D01*
X014976Y006589D01*
X015027Y006635D01*
X015076Y006684D01*
X015122Y006736D01*
X015165Y006790D01*
X015205Y006846D01*
X015241Y006905D01*
X015275Y006965D01*
X015305Y007027D01*
X015331Y007091D01*
X015354Y007156D01*
X015373Y007223D01*
X015388Y007290D01*
X015400Y007358D01*
X015408Y007427D01*
X015412Y007495D01*
X015412Y007565D01*
X015408Y007633D01*
X015400Y007702D01*
X015388Y007770D01*
X015373Y007837D01*
X015354Y007904D01*
X015331Y007969D01*
X015305Y008033D01*
X015275Y008095D01*
X015241Y008155D01*
X015205Y008214D01*
X015165Y008270D01*
X015122Y008324D01*
X015076Y008376D01*
X015027Y008425D01*
X014976Y008471D01*
X014922Y008514D01*
X014865Y008554D01*
X014807Y008591D01*
X014747Y008624D01*
X014684Y008654D01*
X014621Y008680D01*
X014556Y008703D01*
X014489Y008723D01*
X014422Y008738D01*
X014354Y008750D01*
X014285Y008757D01*
X014216Y008761D01*
X014147Y008762D01*
X014078Y008758D01*
X014010Y008750D01*
X013942Y008739D01*
X013874Y008723D01*
X013808Y008704D01*
X013743Y008682D01*
X013679Y008656D01*
X013617Y008626D01*
X013556Y008592D01*
X013498Y008556D01*
X013441Y008516D01*
X013387Y008473D01*
X013336Y008427D01*
X013287Y008378D01*
X013241Y008327D01*
X013197Y008273D01*
X013205Y008268D01*
X013248Y008322D01*
X013294Y008373D01*
X013344Y008422D01*
X013395Y008468D01*
X013450Y008511D01*
X013507Y008551D01*
X013565Y008587D01*
X013626Y008621D01*
X013689Y008650D01*
X013753Y008676D01*
X013819Y008698D01*
X013886Y008717D01*
X013953Y008732D01*
X014022Y008743D01*
X014091Y008750D01*
X014160Y008753D01*
X014229Y008752D01*
X014299Y008747D01*
X014367Y008739D01*
X014435Y008726D01*
X014503Y008710D01*
X014569Y008689D01*
X014634Y008666D01*
X014698Y008638D01*
X014760Y008607D01*
X014820Y008572D01*
X014878Y008534D01*
X014934Y008493D01*
X014987Y008449D01*
X015038Y008402D01*
X015086Y008352D01*
X015131Y008299D01*
X015173Y008244D01*
X015212Y008187D01*
X015247Y008127D01*
X015279Y008066D01*
X015308Y008003D01*
X015333Y007938D01*
X015354Y007872D01*
X015372Y007805D01*
X015385Y007737D01*
X015395Y007668D01*
X015401Y007599D01*
X015403Y007530D01*
X015401Y007461D01*
X015395Y007392D01*
X015385Y007323D01*
X015372Y007255D01*
X015354Y007188D01*
X015333Y007122D01*
X015308Y007057D01*
X015279Y006994D01*
X015247Y006933D01*
X015212Y006873D01*
X015173Y006816D01*
X015131Y006761D01*
X015086Y006708D01*
X015038Y006658D01*
X014987Y006611D01*
X014934Y006567D01*
X014878Y006526D01*
X014820Y006488D01*
X014760Y006453D01*
X014698Y006422D01*
X014634Y006394D01*
X014569Y006371D01*
X014503Y006350D01*
X014435Y006334D01*
X014367Y006321D01*
X014299Y006313D01*
X014229Y006308D01*
X014160Y006307D01*
X014091Y006310D01*
X014022Y006317D01*
X013953Y006328D01*
X013886Y006343D01*
X013819Y006362D01*
X013753Y006384D01*
X013689Y006410D01*
X013626Y006439D01*
X013565Y006473D01*
X013507Y006509D01*
X013450Y006549D01*
X013395Y006592D01*
X013344Y006638D01*
X013294Y006687D01*
X013248Y006738D01*
X013205Y006792D01*
X013212Y006798D01*
X013255Y006744D01*
X013301Y006693D01*
X013350Y006644D01*
X013401Y006599D01*
X013455Y006556D01*
X013512Y006517D01*
X013570Y006480D01*
X013630Y006447D01*
X013693Y006418D01*
X013756Y006392D01*
X013822Y006370D01*
X013888Y006352D01*
X013955Y006337D01*
X014023Y006326D01*
X014092Y006319D01*
X014160Y006316D01*
X014229Y006317D01*
X014298Y006322D01*
X014366Y006330D01*
X014434Y006343D01*
X014500Y006359D01*
X014566Y006379D01*
X014631Y006403D01*
X014694Y006430D01*
X014755Y006461D01*
X014815Y006495D01*
X014873Y006533D01*
X014928Y006574D01*
X014981Y006618D01*
X015031Y006665D01*
X015079Y006714D01*
X015124Y006766D01*
X015166Y006821D01*
X015204Y006878D01*
X015239Y006937D01*
X015271Y006998D01*
X015300Y007061D01*
X015324Y007125D01*
X015346Y007191D01*
X015363Y007257D01*
X015376Y007325D01*
X015386Y007393D01*
X015392Y007461D01*
X015394Y007530D01*
X015392Y007599D01*
X015386Y007667D01*
X015376Y007735D01*
X015363Y007803D01*
X015346Y007869D01*
X015324Y007935D01*
X015300Y007999D01*
X015271Y008062D01*
X015239Y008123D01*
X015204Y008182D01*
X015166Y008239D01*
X015124Y008294D01*
X015079Y008346D01*
X015031Y008395D01*
X014981Y008442D01*
X014928Y008486D01*
X014873Y008527D01*
X014815Y008565D01*
X014755Y008599D01*
X014694Y008630D01*
X014631Y008657D01*
X014566Y008681D01*
X014500Y008701D01*
X014434Y008717D01*
X014366Y008730D01*
X014298Y008738D01*
X014229Y008743D01*
X014160Y008744D01*
X014092Y008741D01*
X014023Y008734D01*
X013955Y008723D01*
X013888Y008708D01*
X013822Y008690D01*
X013756Y008668D01*
X013693Y008642D01*
X013630Y008613D01*
X013570Y008580D01*
X013512Y008543D01*
X013455Y008504D01*
X013401Y008461D01*
X013350Y008416D01*
X013301Y008367D01*
X013255Y008316D01*
X013212Y008262D01*
X012210Y006898D02*
X012156Y006970D01*
X012157Y006969D02*
X012210Y007012D01*
X012261Y007057D01*
X012309Y007106D01*
X012354Y007157D01*
X012397Y007211D01*
X012436Y007267D01*
X012472Y007325D01*
X012505Y007385D01*
X012534Y007446D01*
X012559Y007510D01*
X012581Y007574D01*
X012600Y007640D01*
X012614Y007707D01*
X012625Y007774D01*
X012632Y007842D01*
X012635Y007910D01*
X012634Y007979D01*
X012629Y008047D01*
X012621Y008115D01*
X012608Y008182D01*
X012592Y008248D01*
X012572Y008313D01*
X012549Y008378D01*
X012522Y008440D01*
X012491Y008501D01*
X012457Y008560D01*
X012420Y008618D01*
X012379Y008673D01*
X012335Y008725D01*
X012289Y008775D01*
X012240Y008822D01*
X012188Y008867D01*
X012134Y008908D01*
X012077Y008947D01*
X012018Y008982D01*
X011958Y009013D01*
X011896Y009041D01*
X011832Y009066D01*
X011767Y009087D01*
X011701Y009104D01*
X011634Y009118D01*
X011566Y009127D01*
X011498Y009133D01*
X011430Y009135D01*
X011362Y009133D01*
X011294Y009127D01*
X011226Y009118D01*
X011159Y009104D01*
X011093Y009087D01*
X011028Y009066D01*
X010964Y009041D01*
X010902Y009013D01*
X010842Y008982D01*
X010783Y008947D01*
X010726Y008908D01*
X010672Y008867D01*
X010620Y008822D01*
X010571Y008775D01*
X010525Y008725D01*
X010481Y008673D01*
X010440Y008618D01*
X010403Y008560D01*
X010369Y008501D01*
X010338Y008440D01*
X010311Y008378D01*
X010288Y008313D01*
X010268Y008248D01*
X010252Y008182D01*
X010239Y008115D01*
X010231Y008047D01*
X010226Y007979D01*
X010225Y007910D01*
X010228Y007842D01*
X010235Y007774D01*
X010246Y007707D01*
X010260Y007640D01*
X010279Y007574D01*
X010301Y007510D01*
X010326Y007446D01*
X010355Y007385D01*
X010388Y007325D01*
X010424Y007267D01*
X010463Y007211D01*
X010506Y007157D01*
X010551Y007106D01*
X010599Y007057D01*
X010650Y007012D01*
X010703Y006969D01*
X010650Y006898D01*
X010649Y006897D01*
X010594Y006941D01*
X010541Y006989D01*
X010490Y007039D01*
X010443Y007092D01*
X010399Y007147D01*
X010357Y007205D01*
X010319Y007265D01*
X010284Y007326D01*
X010253Y007390D01*
X010225Y007455D01*
X010201Y007522D01*
X010180Y007590D01*
X010164Y007659D01*
X010151Y007729D01*
X010142Y007799D01*
X010136Y007870D01*
X010135Y007941D01*
X010138Y008012D01*
X010144Y008083D01*
X010154Y008153D01*
X010168Y008222D01*
X010186Y008291D01*
X010208Y008359D01*
X010233Y008425D01*
X010262Y008490D01*
X010295Y008553D01*
X010331Y008614D01*
X010370Y008673D01*
X010412Y008730D01*
X010457Y008785D01*
X010506Y008837D01*
X010557Y008886D01*
X010610Y008933D01*
X010667Y008976D01*
X010725Y009016D01*
X010786Y009053D01*
X010848Y009087D01*
X010912Y009117D01*
X010978Y009144D01*
X011045Y009167D01*
X011114Y009186D01*
X011183Y009201D01*
X011253Y009213D01*
X011324Y009221D01*
X011395Y009225D01*
X011465Y009225D01*
X011536Y009221D01*
X011607Y009213D01*
X011677Y009201D01*
X011746Y009186D01*
X011815Y009167D01*
X011882Y009144D01*
X011948Y009117D01*
X012012Y009087D01*
X012074Y009053D01*
X012135Y009016D01*
X012193Y008976D01*
X012250Y008933D01*
X012303Y008886D01*
X012354Y008837D01*
X012403Y008785D01*
X012448Y008730D01*
X012490Y008673D01*
X012529Y008614D01*
X012565Y008553D01*
X012598Y008490D01*
X012627Y008425D01*
X012652Y008359D01*
X012674Y008291D01*
X012692Y008222D01*
X012706Y008153D01*
X012716Y008083D01*
X012722Y008012D01*
X012725Y007941D01*
X012724Y007870D01*
X012718Y007799D01*
X012709Y007729D01*
X012696Y007659D01*
X012680Y007590D01*
X012659Y007522D01*
X012635Y007455D01*
X012607Y007390D01*
X012576Y007326D01*
X012541Y007265D01*
X012503Y007205D01*
X012461Y007147D01*
X012417Y007092D01*
X012370Y007039D01*
X012319Y006989D01*
X012266Y006941D01*
X012211Y006897D01*
X012206Y006904D01*
X012261Y006949D01*
X012314Y006996D01*
X012365Y007047D01*
X012412Y007100D01*
X012457Y007156D01*
X012498Y007214D01*
X012536Y007274D01*
X012571Y007336D01*
X012602Y007400D01*
X012629Y007466D01*
X012653Y007533D01*
X012673Y007602D01*
X012690Y007671D01*
X012702Y007741D01*
X012711Y007812D01*
X012715Y007883D01*
X012716Y007954D01*
X012712Y008025D01*
X012705Y008096D01*
X012694Y008167D01*
X012679Y008236D01*
X012660Y008305D01*
X012637Y008373D01*
X012611Y008439D01*
X012581Y008504D01*
X012547Y008566D01*
X012511Y008627D01*
X012470Y008686D01*
X012427Y008743D01*
X012380Y008797D01*
X012331Y008848D01*
X012278Y008896D01*
X012224Y008942D01*
X012166Y008984D01*
X012107Y009023D01*
X012045Y009059D01*
X011982Y009092D01*
X011917Y009120D01*
X011850Y009146D01*
X011782Y009167D01*
X011713Y009185D01*
X011643Y009198D01*
X011572Y009208D01*
X011501Y009214D01*
X011430Y009216D01*
X011359Y009214D01*
X011288Y009208D01*
X011217Y009198D01*
X011147Y009185D01*
X011078Y009167D01*
X011010Y009146D01*
X010943Y009120D01*
X010878Y009092D01*
X010815Y009059D01*
X010753Y009023D01*
X010694Y008984D01*
X010636Y008942D01*
X010582Y008896D01*
X010529Y008848D01*
X010480Y008797D01*
X010433Y008743D01*
X010390Y008686D01*
X010349Y008627D01*
X010313Y008566D01*
X010279Y008504D01*
X010249Y008439D01*
X010223Y008373D01*
X010200Y008305D01*
X010181Y008236D01*
X010166Y008167D01*
X010155Y008096D01*
X010148Y008025D01*
X010144Y007954D01*
X010145Y007883D01*
X010149Y007812D01*
X010158Y007741D01*
X010170Y007671D01*
X010187Y007602D01*
X010207Y007533D01*
X010231Y007466D01*
X010258Y007400D01*
X010289Y007336D01*
X010324Y007274D01*
X010362Y007214D01*
X010403Y007156D01*
X010448Y007100D01*
X010495Y007047D01*
X010546Y006996D01*
X010599Y006949D01*
X010654Y006904D01*
X010660Y006911D01*
X010605Y006956D01*
X010552Y007003D01*
X010502Y007053D01*
X010455Y007106D01*
X010411Y007161D01*
X010369Y007219D01*
X010332Y007278D01*
X010297Y007340D01*
X010266Y007404D01*
X010239Y007469D01*
X010215Y007536D01*
X010195Y007604D01*
X010179Y007673D01*
X010167Y007742D01*
X010158Y007813D01*
X010154Y007883D01*
X010153Y007954D01*
X010157Y008025D01*
X010164Y008095D01*
X010175Y008165D01*
X010190Y008234D01*
X010209Y008302D01*
X010231Y008370D01*
X010257Y008435D01*
X010287Y008500D01*
X010320Y008562D01*
X010357Y008622D01*
X010397Y008681D01*
X010440Y008737D01*
X010486Y008791D01*
X010536Y008841D01*
X010587Y008890D01*
X010642Y008935D01*
X010699Y008977D01*
X010758Y009016D01*
X010819Y009051D01*
X010882Y009084D01*
X010947Y009112D01*
X011013Y009137D01*
X011081Y009158D01*
X011149Y009176D01*
X011219Y009189D01*
X011289Y009199D01*
X011359Y009205D01*
X011430Y009207D01*
X011501Y009205D01*
X011571Y009199D01*
X011641Y009189D01*
X011711Y009176D01*
X011779Y009158D01*
X011847Y009137D01*
X011913Y009112D01*
X011978Y009084D01*
X012041Y009051D01*
X012102Y009016D01*
X012161Y008977D01*
X012218Y008935D01*
X012273Y008890D01*
X012324Y008841D01*
X012374Y008791D01*
X012420Y008737D01*
X012463Y008681D01*
X012503Y008622D01*
X012540Y008562D01*
X012573Y008500D01*
X012603Y008435D01*
X012629Y008370D01*
X012651Y008302D01*
X012670Y008234D01*
X012685Y008165D01*
X012696Y008095D01*
X012703Y008025D01*
X012707Y007954D01*
X012706Y007883D01*
X012702Y007813D01*
X012693Y007742D01*
X012681Y007673D01*
X012665Y007604D01*
X012645Y007536D01*
X012621Y007469D01*
X012594Y007404D01*
X012563Y007340D01*
X012528Y007278D01*
X012491Y007219D01*
X012449Y007161D01*
X012405Y007106D01*
X012358Y007053D01*
X012308Y007003D01*
X012255Y006956D01*
X012200Y006911D01*
X012195Y006919D01*
X012250Y006963D01*
X012303Y007011D01*
X012353Y007061D01*
X012401Y007114D01*
X012445Y007170D01*
X012486Y007228D01*
X012523Y007288D01*
X012558Y007350D01*
X012588Y007414D01*
X012615Y007480D01*
X012639Y007547D01*
X012658Y007615D01*
X012674Y007685D01*
X012686Y007755D01*
X012694Y007825D01*
X012698Y007896D01*
X012697Y007967D01*
X012693Y008038D01*
X012685Y008109D01*
X012673Y008179D01*
X012657Y008248D01*
X012638Y008316D01*
X012614Y008384D01*
X012587Y008449D01*
X012556Y008513D01*
X012522Y008575D01*
X012484Y008635D01*
X012442Y008693D01*
X012398Y008749D01*
X012351Y008802D01*
X012300Y008852D01*
X012247Y008899D01*
X012192Y008944D01*
X012134Y008985D01*
X012074Y009022D01*
X012011Y009057D01*
X011947Y009088D01*
X011882Y009115D01*
X011815Y009138D01*
X011746Y009158D01*
X011677Y009174D01*
X011607Y009186D01*
X011536Y009194D01*
X011466Y009198D01*
X011394Y009198D01*
X011324Y009194D01*
X011253Y009186D01*
X011183Y009174D01*
X011114Y009158D01*
X011045Y009138D01*
X010978Y009115D01*
X010913Y009088D01*
X010849Y009057D01*
X010786Y009022D01*
X010726Y008985D01*
X010668Y008944D01*
X010613Y008899D01*
X010560Y008852D01*
X010509Y008802D01*
X010462Y008749D01*
X010418Y008693D01*
X010376Y008635D01*
X010338Y008575D01*
X010304Y008513D01*
X010273Y008449D01*
X010246Y008384D01*
X010222Y008316D01*
X010203Y008248D01*
X010187Y008179D01*
X010175Y008109D01*
X010167Y008038D01*
X010163Y007967D01*
X010162Y007896D01*
X010166Y007825D01*
X010174Y007755D01*
X010186Y007685D01*
X010202Y007615D01*
X010221Y007547D01*
X010245Y007480D01*
X010272Y007414D01*
X010302Y007350D01*
X010337Y007288D01*
X010374Y007228D01*
X010415Y007170D01*
X010459Y007114D01*
X010507Y007061D01*
X010557Y007011D01*
X010610Y006963D01*
X010665Y006919D01*
X010671Y006926D01*
X010616Y006970D01*
X010563Y007017D01*
X010513Y007067D01*
X010466Y007120D01*
X010422Y007175D01*
X010382Y007233D01*
X010344Y007292D01*
X010310Y007354D01*
X010280Y007418D01*
X010253Y007483D01*
X010230Y007550D01*
X010210Y007618D01*
X010195Y007686D01*
X010183Y007756D01*
X010175Y007826D01*
X010171Y007897D01*
X010172Y007967D01*
X010176Y008038D01*
X010184Y008108D01*
X010196Y008177D01*
X010211Y008246D01*
X010231Y008314D01*
X010254Y008380D01*
X010281Y008445D01*
X010312Y008509D01*
X010346Y008571D01*
X010384Y008630D01*
X010425Y008688D01*
X010469Y008743D01*
X010516Y008796D01*
X010566Y008845D01*
X010618Y008892D01*
X010674Y008936D01*
X010731Y008977D01*
X010791Y009015D01*
X010853Y009049D01*
X010916Y009079D01*
X010981Y009106D01*
X011048Y009130D01*
X011116Y009149D01*
X011185Y009165D01*
X011254Y009177D01*
X011324Y009185D01*
X011395Y009189D01*
X011465Y009189D01*
X011536Y009185D01*
X011606Y009177D01*
X011675Y009165D01*
X011744Y009149D01*
X011812Y009130D01*
X011879Y009106D01*
X011944Y009079D01*
X012007Y009049D01*
X012069Y009015D01*
X012129Y008977D01*
X012186Y008936D01*
X012242Y008892D01*
X012294Y008845D01*
X012344Y008796D01*
X012391Y008743D01*
X012435Y008688D01*
X012476Y008630D01*
X012514Y008571D01*
X012548Y008509D01*
X012579Y008445D01*
X012606Y008380D01*
X012629Y008314D01*
X012649Y008246D01*
X012664Y008177D01*
X012676Y008108D01*
X012684Y008038D01*
X012688Y007967D01*
X012689Y007897D01*
X012685Y007826D01*
X012677Y007756D01*
X012665Y007686D01*
X012650Y007618D01*
X012630Y007550D01*
X012607Y007483D01*
X012580Y007418D01*
X012550Y007354D01*
X012516Y007292D01*
X012478Y007233D01*
X012438Y007175D01*
X012394Y007120D01*
X012347Y007067D01*
X012297Y007017D01*
X012244Y006970D01*
X012189Y006926D01*
X012184Y006933D01*
X012239Y006977D01*
X012291Y007024D01*
X012340Y007073D01*
X012387Y007126D01*
X012430Y007180D01*
X012471Y007238D01*
X012508Y007297D01*
X012542Y007358D01*
X012572Y007422D01*
X012599Y007486D01*
X012622Y007553D01*
X012641Y007620D01*
X012656Y007688D01*
X012668Y007757D01*
X012676Y007827D01*
X012680Y007897D01*
X012679Y007967D01*
X012675Y008037D01*
X012667Y008106D01*
X012656Y008175D01*
X012640Y008244D01*
X012621Y008311D01*
X012597Y008377D01*
X012570Y008442D01*
X012540Y008505D01*
X012506Y008566D01*
X012469Y008625D01*
X012428Y008683D01*
X012384Y008737D01*
X012338Y008789D01*
X012288Y008839D01*
X012236Y008886D01*
X012181Y008929D01*
X012124Y008970D01*
X012065Y009007D01*
X012003Y009041D01*
X011940Y009071D01*
X011875Y009098D01*
X011809Y009121D01*
X011742Y009140D01*
X011674Y009156D01*
X011605Y009168D01*
X011535Y009176D01*
X011465Y009180D01*
X011395Y009180D01*
X011325Y009176D01*
X011255Y009168D01*
X011186Y009156D01*
X011118Y009140D01*
X011051Y009121D01*
X010985Y009098D01*
X010920Y009071D01*
X010857Y009041D01*
X010795Y009007D01*
X010736Y008970D01*
X010679Y008929D01*
X010624Y008886D01*
X010572Y008839D01*
X010522Y008789D01*
X010476Y008737D01*
X010432Y008683D01*
X010391Y008625D01*
X010354Y008566D01*
X010320Y008505D01*
X010290Y008442D01*
X010263Y008377D01*
X010239Y008311D01*
X010220Y008244D01*
X010204Y008175D01*
X010193Y008106D01*
X010185Y008037D01*
X010181Y007967D01*
X010180Y007897D01*
X010184Y007827D01*
X010192Y007757D01*
X010204Y007688D01*
X010219Y007620D01*
X010238Y007553D01*
X010261Y007486D01*
X010288Y007422D01*
X010318Y007358D01*
X010352Y007297D01*
X010389Y007238D01*
X010430Y007180D01*
X010473Y007126D01*
X010520Y007073D01*
X010569Y007024D01*
X010621Y006977D01*
X010676Y006933D01*
X010681Y006940D01*
X010627Y006984D01*
X010575Y007030D01*
X010526Y007079D01*
X010480Y007131D01*
X010437Y007186D01*
X010397Y007243D01*
X010360Y007302D01*
X010326Y007363D01*
X010296Y007425D01*
X010270Y007490D01*
X010247Y007555D01*
X010228Y007622D01*
X010212Y007690D01*
X010201Y007759D01*
X010193Y007828D01*
X010189Y007897D01*
X010190Y007967D01*
X010194Y008036D01*
X010201Y008105D01*
X010213Y008174D01*
X010229Y008241D01*
X010248Y008308D01*
X010271Y008374D01*
X010298Y008438D01*
X010328Y008501D01*
X010362Y008562D01*
X010399Y008620D01*
X010439Y008677D01*
X010482Y008731D01*
X010529Y008783D01*
X010578Y008832D01*
X010630Y008879D01*
X010684Y008922D01*
X010741Y008962D01*
X010800Y008999D01*
X010861Y009033D01*
X010924Y009063D01*
X010988Y009090D01*
X011053Y009113D01*
X011120Y009132D01*
X011188Y009147D01*
X011257Y009159D01*
X011326Y009167D01*
X011395Y009171D01*
X011465Y009171D01*
X011534Y009167D01*
X011603Y009159D01*
X011672Y009147D01*
X011740Y009132D01*
X011807Y009113D01*
X011872Y009090D01*
X011936Y009063D01*
X011999Y009033D01*
X012060Y008999D01*
X012119Y008962D01*
X012176Y008922D01*
X012230Y008879D01*
X012282Y008832D01*
X012331Y008783D01*
X012378Y008731D01*
X012421Y008677D01*
X012461Y008620D01*
X012498Y008562D01*
X012532Y008501D01*
X012562Y008438D01*
X012589Y008374D01*
X012612Y008308D01*
X012631Y008241D01*
X012647Y008174D01*
X012659Y008105D01*
X012666Y008036D01*
X012670Y007967D01*
X012671Y007897D01*
X012667Y007828D01*
X012659Y007759D01*
X012648Y007690D01*
X012632Y007622D01*
X012613Y007555D01*
X012590Y007490D01*
X012564Y007425D01*
X012534Y007363D01*
X012500Y007302D01*
X012463Y007243D01*
X012423Y007186D01*
X012380Y007131D01*
X012334Y007079D01*
X012285Y007030D01*
X012233Y006984D01*
X012179Y006940D01*
X012173Y006947D01*
X012227Y006991D01*
X012278Y007037D01*
X012327Y007086D01*
X012373Y007137D01*
X012416Y007191D01*
X012456Y007248D01*
X012492Y007306D01*
X012526Y007367D01*
X012556Y007429D01*
X012582Y007493D01*
X012604Y007558D01*
X012623Y007624D01*
X012639Y007692D01*
X012650Y007760D01*
X012658Y007828D01*
X012662Y007897D01*
X012661Y007966D01*
X012657Y008035D01*
X012650Y008104D01*
X012638Y008172D01*
X012623Y008239D01*
X012603Y008306D01*
X012580Y008371D01*
X012554Y008434D01*
X012524Y008497D01*
X012491Y008557D01*
X012454Y008615D01*
X012414Y008672D01*
X012371Y008726D01*
X012325Y008777D01*
X012276Y008826D01*
X012224Y008872D01*
X012170Y008915D01*
X012114Y008955D01*
X012055Y008991D01*
X011995Y009025D01*
X011933Y009055D01*
X011869Y009081D01*
X011804Y009104D01*
X011737Y009123D01*
X011670Y009138D01*
X011602Y009150D01*
X011533Y009158D01*
X011465Y009162D01*
X011395Y009162D01*
X011327Y009158D01*
X011258Y009150D01*
X011190Y009138D01*
X011123Y009123D01*
X011056Y009104D01*
X010991Y009081D01*
X010927Y009055D01*
X010865Y009025D01*
X010805Y008991D01*
X010746Y008955D01*
X010690Y008915D01*
X010636Y008872D01*
X010584Y008826D01*
X010535Y008777D01*
X010489Y008726D01*
X010446Y008672D01*
X010406Y008615D01*
X010369Y008557D01*
X010336Y008497D01*
X010306Y008434D01*
X010280Y008371D01*
X010257Y008306D01*
X010237Y008239D01*
X010222Y008172D01*
X010210Y008104D01*
X010203Y008035D01*
X010199Y007966D01*
X010198Y007897D01*
X010202Y007828D01*
X010210Y007760D01*
X010221Y007692D01*
X010237Y007624D01*
X010256Y007558D01*
X010278Y007493D01*
X010304Y007429D01*
X010334Y007367D01*
X010368Y007306D01*
X010404Y007248D01*
X010444Y007191D01*
X010487Y007137D01*
X010533Y007086D01*
X010582Y007037D01*
X010633Y006991D01*
X010687Y006947D01*
X010692Y006955D01*
X010638Y006998D01*
X010587Y007044D01*
X010538Y007094D01*
X010492Y007145D01*
X010449Y007200D01*
X010409Y007257D01*
X010373Y007315D01*
X010339Y007376D01*
X010310Y007439D01*
X010284Y007503D01*
X010262Y007569D01*
X010243Y007636D01*
X010228Y007703D01*
X010217Y007772D01*
X010210Y007841D01*
X010207Y007910D01*
X010208Y007979D01*
X010213Y008049D01*
X010221Y008117D01*
X010234Y008185D01*
X010250Y008253D01*
X010271Y008319D01*
X010294Y008384D01*
X010322Y008448D01*
X010353Y008510D01*
X010388Y008570D01*
X010426Y008628D01*
X010467Y008684D01*
X010511Y008737D01*
X010558Y008788D01*
X010608Y008836D01*
X010661Y008881D01*
X010716Y008923D01*
X010773Y008962D01*
X010833Y008997D01*
X010894Y009029D01*
X010957Y009058D01*
X011022Y009083D01*
X011088Y009104D01*
X011155Y009122D01*
X011223Y009135D01*
X011292Y009145D01*
X011361Y009151D01*
X011430Y009153D01*
X011499Y009151D01*
X011568Y009145D01*
X011637Y009135D01*
X011705Y009122D01*
X011772Y009104D01*
X011838Y009083D01*
X011903Y009058D01*
X011966Y009029D01*
X012027Y008997D01*
X012087Y008962D01*
X012144Y008923D01*
X012199Y008881D01*
X012252Y008836D01*
X012302Y008788D01*
X012349Y008737D01*
X012393Y008684D01*
X012434Y008628D01*
X012472Y008570D01*
X012507Y008510D01*
X012538Y008448D01*
X012566Y008384D01*
X012589Y008319D01*
X012610Y008253D01*
X012626Y008185D01*
X012639Y008117D01*
X012647Y008049D01*
X012652Y007979D01*
X012653Y007910D01*
X012650Y007841D01*
X012643Y007772D01*
X012632Y007703D01*
X012617Y007636D01*
X012598Y007569D01*
X012576Y007503D01*
X012550Y007439D01*
X012521Y007376D01*
X012487Y007315D01*
X012451Y007257D01*
X012411Y007200D01*
X012368Y007145D01*
X012322Y007094D01*
X012273Y007044D01*
X012222Y006998D01*
X012168Y006955D01*
X012162Y006962D01*
X012216Y007005D01*
X012267Y007051D01*
X012316Y007100D01*
X012361Y007151D01*
X012404Y007205D01*
X012443Y007262D01*
X012480Y007320D01*
X012513Y007380D01*
X012542Y007443D01*
X012568Y007506D01*
X012590Y007572D01*
X012608Y007638D01*
X012623Y007705D01*
X012634Y007773D01*
X012641Y007842D01*
X012644Y007910D01*
X012643Y007979D01*
X012638Y008048D01*
X012630Y008116D01*
X012617Y008184D01*
X012601Y008250D01*
X012581Y008316D01*
X012557Y008381D01*
X012530Y008444D01*
X012499Y008505D01*
X012465Y008565D01*
X012427Y008623D01*
X012386Y008678D01*
X012342Y008731D01*
X012295Y008781D01*
X012246Y008829D01*
X012194Y008874D01*
X012139Y008916D01*
X012082Y008954D01*
X012023Y008989D01*
X011962Y009021D01*
X011899Y009050D01*
X011835Y009074D01*
X011769Y009096D01*
X011703Y009113D01*
X011635Y009126D01*
X011567Y009136D01*
X011499Y009142D01*
X011430Y009144D01*
X011361Y009142D01*
X011293Y009136D01*
X011225Y009126D01*
X011157Y009113D01*
X011091Y009096D01*
X011025Y009074D01*
X010961Y009050D01*
X010898Y009021D01*
X010837Y008989D01*
X010778Y008954D01*
X010721Y008916D01*
X010666Y008874D01*
X010614Y008829D01*
X010565Y008781D01*
X010518Y008731D01*
X010474Y008678D01*
X010433Y008623D01*
X010395Y008565D01*
X010361Y008505D01*
X010330Y008444D01*
X010303Y008381D01*
X010279Y008316D01*
X010259Y008250D01*
X010243Y008184D01*
X010230Y008116D01*
X010222Y008048D01*
X010217Y007979D01*
X010216Y007910D01*
X010219Y007842D01*
X010226Y007773D01*
X010237Y007705D01*
X010252Y007638D01*
X010270Y007572D01*
X010292Y007506D01*
X010318Y007443D01*
X010347Y007380D01*
X010380Y007320D01*
X010417Y007262D01*
X010456Y007205D01*
X010499Y007151D01*
X010544Y007100D01*
X010593Y007051D01*
X010644Y007005D01*
X010698Y006962D01*
X009712Y008310D02*
X009640Y008256D01*
X009641Y008257D02*
X009598Y008310D01*
X009553Y008361D01*
X009504Y008409D01*
X009453Y008454D01*
X009399Y008497D01*
X009343Y008536D01*
X009285Y008572D01*
X009225Y008605D01*
X009164Y008634D01*
X009100Y008659D01*
X009036Y008681D01*
X008970Y008700D01*
X008903Y008714D01*
X008836Y008725D01*
X008768Y008732D01*
X008700Y008735D01*
X008631Y008734D01*
X008563Y008729D01*
X008495Y008721D01*
X008428Y008708D01*
X008362Y008692D01*
X008297Y008672D01*
X008232Y008649D01*
X008170Y008622D01*
X008109Y008591D01*
X008050Y008557D01*
X007992Y008520D01*
X007937Y008479D01*
X007885Y008435D01*
X007835Y008389D01*
X007788Y008340D01*
X007743Y008288D01*
X007702Y008234D01*
X007663Y008177D01*
X007628Y008118D01*
X007597Y008058D01*
X007569Y007996D01*
X007544Y007932D01*
X007523Y007867D01*
X007506Y007801D01*
X007492Y007734D01*
X007483Y007666D01*
X007477Y007598D01*
X007475Y007530D01*
X007477Y007462D01*
X007483Y007394D01*
X007492Y007326D01*
X007506Y007259D01*
X007523Y007193D01*
X007544Y007128D01*
X007569Y007064D01*
X007597Y007002D01*
X007628Y006942D01*
X007663Y006883D01*
X007702Y006826D01*
X007743Y006772D01*
X007788Y006720D01*
X007835Y006671D01*
X007885Y006625D01*
X007937Y006581D01*
X007992Y006540D01*
X008050Y006503D01*
X008109Y006469D01*
X008170Y006438D01*
X008232Y006411D01*
X008297Y006388D01*
X008362Y006368D01*
X008428Y006352D01*
X008495Y006339D01*
X008563Y006331D01*
X008631Y006326D01*
X008700Y006325D01*
X008768Y006328D01*
X008836Y006335D01*
X008903Y006346D01*
X008970Y006360D01*
X009036Y006379D01*
X009100Y006401D01*
X009164Y006426D01*
X009225Y006455D01*
X009285Y006488D01*
X009343Y006524D01*
X009399Y006563D01*
X009453Y006606D01*
X009504Y006651D01*
X009553Y006699D01*
X009598Y006750D01*
X009641Y006803D01*
X009712Y006750D01*
X009713Y006749D01*
X009669Y006694D01*
X009621Y006641D01*
X009571Y006590D01*
X009518Y006543D01*
X009463Y006499D01*
X009405Y006457D01*
X009345Y006419D01*
X009284Y006384D01*
X009220Y006353D01*
X009155Y006325D01*
X009088Y006301D01*
X009020Y006280D01*
X008951Y006264D01*
X008881Y006251D01*
X008811Y006242D01*
X008740Y006236D01*
X008669Y006235D01*
X008598Y006238D01*
X008527Y006244D01*
X008457Y006254D01*
X008388Y006268D01*
X008319Y006286D01*
X008251Y006308D01*
X008185Y006333D01*
X008120Y006362D01*
X008057Y006395D01*
X007996Y006431D01*
X007937Y006470D01*
X007880Y006512D01*
X007825Y006557D01*
X007773Y006606D01*
X007724Y006657D01*
X007677Y006710D01*
X007634Y006767D01*
X007594Y006825D01*
X007557Y006886D01*
X007523Y006948D01*
X007493Y007012D01*
X007466Y007078D01*
X007443Y007145D01*
X007424Y007214D01*
X007409Y007283D01*
X007397Y007353D01*
X007389Y007424D01*
X007385Y007495D01*
X007385Y007565D01*
X007389Y007636D01*
X007397Y007707D01*
X007409Y007777D01*
X007424Y007846D01*
X007443Y007915D01*
X007466Y007982D01*
X007493Y008048D01*
X007523Y008112D01*
X007557Y008174D01*
X007594Y008235D01*
X007634Y008293D01*
X007677Y008350D01*
X007724Y008403D01*
X007773Y008454D01*
X007825Y008503D01*
X007880Y008548D01*
X007937Y008590D01*
X007996Y008629D01*
X008057Y008665D01*
X008120Y008698D01*
X008185Y008727D01*
X008251Y008752D01*
X008319Y008774D01*
X008388Y008792D01*
X008457Y008806D01*
X008527Y008816D01*
X008598Y008822D01*
X008669Y008825D01*
X008740Y008824D01*
X008811Y008818D01*
X008881Y008809D01*
X008951Y008796D01*
X009020Y008780D01*
X009088Y008759D01*
X009155Y008735D01*
X009220Y008707D01*
X009284Y008676D01*
X009345Y008641D01*
X009405Y008603D01*
X009463Y008561D01*
X009518Y008517D01*
X009571Y008470D01*
X009621Y008419D01*
X009669Y008366D01*
X009713Y008311D01*
X009706Y008306D01*
X009661Y008361D01*
X009614Y008414D01*
X009563Y008465D01*
X009510Y008512D01*
X009454Y008557D01*
X009396Y008598D01*
X009336Y008636D01*
X009274Y008671D01*
X009210Y008702D01*
X009144Y008729D01*
X009077Y008753D01*
X009008Y008773D01*
X008939Y008790D01*
X008869Y008802D01*
X008798Y008811D01*
X008727Y008815D01*
X008656Y008816D01*
X008585Y008812D01*
X008514Y008805D01*
X008443Y008794D01*
X008374Y008779D01*
X008305Y008760D01*
X008237Y008737D01*
X008171Y008711D01*
X008106Y008681D01*
X008044Y008647D01*
X007983Y008611D01*
X007924Y008570D01*
X007867Y008527D01*
X007813Y008480D01*
X007762Y008431D01*
X007714Y008378D01*
X007668Y008324D01*
X007626Y008266D01*
X007587Y008207D01*
X007551Y008145D01*
X007518Y008082D01*
X007490Y008017D01*
X007464Y007950D01*
X007443Y007882D01*
X007425Y007813D01*
X007412Y007743D01*
X007402Y007672D01*
X007396Y007601D01*
X007394Y007530D01*
X007396Y007459D01*
X007402Y007388D01*
X007412Y007317D01*
X007425Y007247D01*
X007443Y007178D01*
X007464Y007110D01*
X007490Y007043D01*
X007518Y006978D01*
X007551Y006915D01*
X007587Y006853D01*
X007626Y006794D01*
X007668Y006736D01*
X007714Y006682D01*
X007762Y006629D01*
X007813Y006580D01*
X007867Y006533D01*
X007924Y006490D01*
X007983Y006449D01*
X008044Y006413D01*
X008106Y006379D01*
X008171Y006349D01*
X008237Y006323D01*
X008305Y006300D01*
X008374Y006281D01*
X008443Y006266D01*
X008514Y006255D01*
X008585Y006248D01*
X008656Y006244D01*
X008727Y006245D01*
X008798Y006249D01*
X008869Y006258D01*
X008939Y006270D01*
X009008Y006287D01*
X009077Y006307D01*
X009144Y006331D01*
X009210Y006358D01*
X009274Y006389D01*
X009336Y006424D01*
X009396Y006462D01*
X009454Y006503D01*
X009510Y006548D01*
X009563Y006595D01*
X009614Y006646D01*
X009661Y006699D01*
X009706Y006754D01*
X009699Y006760D01*
X009654Y006705D01*
X009607Y006652D01*
X009557Y006602D01*
X009504Y006555D01*
X009449Y006511D01*
X009391Y006469D01*
X009332Y006432D01*
X009270Y006397D01*
X009206Y006366D01*
X009141Y006339D01*
X009074Y006315D01*
X009006Y006295D01*
X008937Y006279D01*
X008868Y006267D01*
X008797Y006258D01*
X008727Y006254D01*
X008656Y006253D01*
X008585Y006257D01*
X008515Y006264D01*
X008445Y006275D01*
X008376Y006290D01*
X008308Y006309D01*
X008240Y006331D01*
X008175Y006357D01*
X008110Y006387D01*
X008048Y006420D01*
X007988Y006457D01*
X007929Y006497D01*
X007873Y006540D01*
X007819Y006586D01*
X007769Y006636D01*
X007720Y006687D01*
X007675Y006742D01*
X007633Y006799D01*
X007594Y006858D01*
X007559Y006919D01*
X007526Y006982D01*
X007498Y007047D01*
X007473Y007113D01*
X007452Y007181D01*
X007434Y007249D01*
X007421Y007319D01*
X007411Y007389D01*
X007405Y007459D01*
X007403Y007530D01*
X007405Y007601D01*
X007411Y007671D01*
X007421Y007741D01*
X007434Y007811D01*
X007452Y007879D01*
X007473Y007947D01*
X007498Y008013D01*
X007526Y008078D01*
X007559Y008141D01*
X007594Y008202D01*
X007633Y008261D01*
X007675Y008318D01*
X007720Y008373D01*
X007769Y008424D01*
X007819Y008474D01*
X007873Y008520D01*
X007929Y008563D01*
X007988Y008603D01*
X008048Y008640D01*
X008110Y008673D01*
X008175Y008703D01*
X008240Y008729D01*
X008308Y008751D01*
X008376Y008770D01*
X008445Y008785D01*
X008515Y008796D01*
X008585Y008803D01*
X008656Y008807D01*
X008727Y008806D01*
X008797Y008802D01*
X008868Y008793D01*
X008937Y008781D01*
X009006Y008765D01*
X009074Y008745D01*
X009141Y008721D01*
X009206Y008694D01*
X009270Y008663D01*
X009332Y008628D01*
X009391Y008591D01*
X009449Y008549D01*
X009504Y008505D01*
X009557Y008458D01*
X009607Y008408D01*
X009654Y008355D01*
X009699Y008300D01*
X009691Y008295D01*
X009647Y008350D01*
X009599Y008403D01*
X009549Y008453D01*
X009496Y008501D01*
X009440Y008545D01*
X009382Y008586D01*
X009322Y008623D01*
X009260Y008658D01*
X009196Y008688D01*
X009130Y008715D01*
X009063Y008739D01*
X008995Y008758D01*
X008925Y008774D01*
X008855Y008786D01*
X008785Y008794D01*
X008714Y008798D01*
X008643Y008797D01*
X008572Y008793D01*
X008501Y008785D01*
X008431Y008773D01*
X008362Y008757D01*
X008294Y008738D01*
X008226Y008714D01*
X008161Y008687D01*
X008097Y008656D01*
X008035Y008622D01*
X007975Y008584D01*
X007917Y008542D01*
X007861Y008498D01*
X007808Y008451D01*
X007758Y008400D01*
X007711Y008347D01*
X007666Y008292D01*
X007625Y008234D01*
X007588Y008174D01*
X007553Y008111D01*
X007522Y008047D01*
X007495Y007982D01*
X007472Y007915D01*
X007452Y007846D01*
X007436Y007777D01*
X007424Y007707D01*
X007416Y007636D01*
X007412Y007566D01*
X007412Y007494D01*
X007416Y007424D01*
X007424Y007353D01*
X007436Y007283D01*
X007452Y007214D01*
X007472Y007145D01*
X007495Y007078D01*
X007522Y007013D01*
X007553Y006949D01*
X007588Y006886D01*
X007625Y006826D01*
X007666Y006768D01*
X007711Y006713D01*
X007758Y006660D01*
X007808Y006609D01*
X007861Y006562D01*
X007917Y006518D01*
X007975Y006476D01*
X008035Y006438D01*
X008097Y006404D01*
X008161Y006373D01*
X008226Y006346D01*
X008294Y006322D01*
X008362Y006303D01*
X008431Y006287D01*
X008501Y006275D01*
X008572Y006267D01*
X008643Y006263D01*
X008714Y006262D01*
X008785Y006266D01*
X008855Y006274D01*
X008925Y006286D01*
X008995Y006302D01*
X009063Y006321D01*
X009130Y006345D01*
X009196Y006372D01*
X009260Y006402D01*
X009322Y006437D01*
X009382Y006474D01*
X009440Y006515D01*
X009496Y006559D01*
X009549Y006607D01*
X009599Y006657D01*
X009647Y006710D01*
X009691Y006765D01*
X009684Y006771D01*
X009640Y006716D01*
X009593Y006663D01*
X009543Y006613D01*
X009490Y006566D01*
X009435Y006522D01*
X009377Y006482D01*
X009318Y006444D01*
X009256Y006410D01*
X009192Y006380D01*
X009127Y006353D01*
X009060Y006330D01*
X008992Y006310D01*
X008924Y006295D01*
X008854Y006283D01*
X008784Y006275D01*
X008713Y006271D01*
X008643Y006272D01*
X008572Y006276D01*
X008502Y006284D01*
X008433Y006296D01*
X008364Y006311D01*
X008296Y006331D01*
X008230Y006354D01*
X008165Y006381D01*
X008101Y006412D01*
X008039Y006446D01*
X007980Y006484D01*
X007922Y006525D01*
X007867Y006569D01*
X007814Y006616D01*
X007765Y006666D01*
X007718Y006718D01*
X007674Y006774D01*
X007633Y006831D01*
X007595Y006891D01*
X007561Y006953D01*
X007531Y007016D01*
X007504Y007081D01*
X007480Y007148D01*
X007461Y007216D01*
X007445Y007285D01*
X007433Y007354D01*
X007425Y007424D01*
X007421Y007495D01*
X007421Y007565D01*
X007425Y007636D01*
X007433Y007706D01*
X007445Y007775D01*
X007461Y007844D01*
X007480Y007912D01*
X007504Y007979D01*
X007531Y008044D01*
X007561Y008107D01*
X007595Y008169D01*
X007633Y008229D01*
X007674Y008286D01*
X007718Y008342D01*
X007765Y008394D01*
X007814Y008444D01*
X007867Y008491D01*
X007922Y008535D01*
X007980Y008576D01*
X008039Y008614D01*
X008101Y008648D01*
X008165Y008679D01*
X008230Y008706D01*
X008296Y008729D01*
X008364Y008749D01*
X008433Y008764D01*
X008502Y008776D01*
X008572Y008784D01*
X008643Y008788D01*
X008713Y008789D01*
X008784Y008785D01*
X008854Y008777D01*
X008924Y008765D01*
X008992Y008750D01*
X009060Y008730D01*
X009127Y008707D01*
X009192Y008680D01*
X009256Y008650D01*
X009318Y008616D01*
X009377Y008578D01*
X009435Y008538D01*
X009490Y008494D01*
X009543Y008447D01*
X009593Y008397D01*
X009640Y008344D01*
X009684Y008289D01*
X009677Y008284D01*
X009633Y008339D01*
X009586Y008391D01*
X009537Y008440D01*
X009484Y008487D01*
X009430Y008530D01*
X009372Y008571D01*
X009313Y008608D01*
X009252Y008642D01*
X009188Y008672D01*
X009124Y008699D01*
X009057Y008722D01*
X008990Y008741D01*
X008922Y008756D01*
X008853Y008768D01*
X008783Y008776D01*
X008713Y008780D01*
X008643Y008779D01*
X008573Y008775D01*
X008504Y008767D01*
X008435Y008756D01*
X008366Y008740D01*
X008299Y008721D01*
X008233Y008697D01*
X008168Y008670D01*
X008105Y008640D01*
X008044Y008606D01*
X007985Y008569D01*
X007927Y008528D01*
X007873Y008484D01*
X007821Y008438D01*
X007771Y008388D01*
X007724Y008336D01*
X007681Y008281D01*
X007640Y008224D01*
X007603Y008165D01*
X007569Y008103D01*
X007539Y008040D01*
X007512Y007975D01*
X007489Y007909D01*
X007470Y007842D01*
X007454Y007774D01*
X007442Y007705D01*
X007434Y007635D01*
X007430Y007565D01*
X007430Y007495D01*
X007434Y007425D01*
X007442Y007355D01*
X007454Y007286D01*
X007470Y007218D01*
X007489Y007151D01*
X007512Y007085D01*
X007539Y007020D01*
X007569Y006957D01*
X007603Y006895D01*
X007640Y006836D01*
X007681Y006779D01*
X007724Y006724D01*
X007771Y006672D01*
X007821Y006622D01*
X007873Y006576D01*
X007927Y006532D01*
X007985Y006491D01*
X008044Y006454D01*
X008105Y006420D01*
X008168Y006390D01*
X008233Y006363D01*
X008299Y006339D01*
X008366Y006320D01*
X008435Y006304D01*
X008504Y006293D01*
X008573Y006285D01*
X008643Y006281D01*
X008713Y006280D01*
X008783Y006284D01*
X008853Y006292D01*
X008922Y006304D01*
X008990Y006319D01*
X009057Y006338D01*
X009124Y006361D01*
X009188Y006388D01*
X009252Y006418D01*
X009313Y006452D01*
X009372Y006489D01*
X009430Y006530D01*
X009484Y006573D01*
X009537Y006620D01*
X009586Y006669D01*
X009633Y006721D01*
X009677Y006776D01*
X009670Y006781D01*
X009626Y006727D01*
X009580Y006675D01*
X009531Y006626D01*
X009479Y006580D01*
X009424Y006537D01*
X009367Y006497D01*
X009308Y006460D01*
X009247Y006426D01*
X009185Y006396D01*
X009120Y006370D01*
X009055Y006347D01*
X008988Y006328D01*
X008920Y006312D01*
X008851Y006301D01*
X008782Y006293D01*
X008713Y006289D01*
X008643Y006290D01*
X008574Y006294D01*
X008505Y006301D01*
X008436Y006313D01*
X008369Y006329D01*
X008302Y006348D01*
X008236Y006371D01*
X008172Y006398D01*
X008109Y006428D01*
X008048Y006462D01*
X007990Y006499D01*
X007933Y006539D01*
X007879Y006582D01*
X007827Y006629D01*
X007778Y006678D01*
X007731Y006730D01*
X007688Y006784D01*
X007648Y006841D01*
X007611Y006900D01*
X007577Y006961D01*
X007547Y007024D01*
X007520Y007088D01*
X007497Y007153D01*
X007478Y007220D01*
X007463Y007288D01*
X007451Y007357D01*
X007443Y007426D01*
X007439Y007495D01*
X007439Y007565D01*
X007443Y007634D01*
X007451Y007703D01*
X007463Y007772D01*
X007478Y007840D01*
X007497Y007907D01*
X007520Y007972D01*
X007547Y008036D01*
X007577Y008099D01*
X007611Y008160D01*
X007648Y008219D01*
X007688Y008276D01*
X007731Y008330D01*
X007778Y008382D01*
X007827Y008431D01*
X007879Y008478D01*
X007933Y008521D01*
X007990Y008561D01*
X008048Y008598D01*
X008109Y008632D01*
X008172Y008662D01*
X008236Y008689D01*
X008302Y008712D01*
X008369Y008731D01*
X008436Y008747D01*
X008505Y008759D01*
X008574Y008766D01*
X008643Y008770D01*
X008713Y008771D01*
X008782Y008767D01*
X008851Y008759D01*
X008920Y008748D01*
X008988Y008732D01*
X009055Y008713D01*
X009120Y008690D01*
X009185Y008664D01*
X009247Y008634D01*
X009308Y008600D01*
X009367Y008563D01*
X009424Y008523D01*
X009479Y008480D01*
X009531Y008434D01*
X009580Y008385D01*
X009626Y008333D01*
X009670Y008279D01*
X009663Y008273D01*
X009619Y008327D01*
X009573Y008378D01*
X009524Y008427D01*
X009473Y008473D01*
X009419Y008516D01*
X009362Y008556D01*
X009304Y008592D01*
X009243Y008626D01*
X009181Y008656D01*
X009117Y008682D01*
X009052Y008704D01*
X008986Y008723D01*
X008918Y008739D01*
X008850Y008750D01*
X008782Y008758D01*
X008713Y008762D01*
X008644Y008761D01*
X008575Y008757D01*
X008506Y008750D01*
X008438Y008738D01*
X008371Y008723D01*
X008304Y008703D01*
X008239Y008680D01*
X008176Y008654D01*
X008113Y008624D01*
X008053Y008591D01*
X007995Y008554D01*
X007938Y008514D01*
X007884Y008471D01*
X007833Y008425D01*
X007784Y008376D01*
X007738Y008324D01*
X007695Y008270D01*
X007655Y008214D01*
X007619Y008155D01*
X007585Y008095D01*
X007555Y008033D01*
X007529Y007969D01*
X007506Y007904D01*
X007487Y007837D01*
X007472Y007770D01*
X007460Y007702D01*
X007452Y007633D01*
X007448Y007565D01*
X007448Y007495D01*
X007452Y007427D01*
X007460Y007358D01*
X007472Y007290D01*
X007487Y007223D01*
X007506Y007156D01*
X007529Y007091D01*
X007555Y007027D01*
X007585Y006965D01*
X007619Y006905D01*
X007655Y006846D01*
X007695Y006790D01*
X007738Y006736D01*
X007784Y006684D01*
X007833Y006635D01*
X007884Y006589D01*
X007938Y006546D01*
X007995Y006506D01*
X008053Y006469D01*
X008113Y006436D01*
X008176Y006406D01*
X008239Y006380D01*
X008304Y006357D01*
X008371Y006337D01*
X008438Y006322D01*
X008506Y006310D01*
X008575Y006303D01*
X008644Y006299D01*
X008713Y006298D01*
X008782Y006302D01*
X008850Y006310D01*
X008918Y006321D01*
X008986Y006337D01*
X009052Y006356D01*
X009117Y006378D01*
X009181Y006404D01*
X009243Y006434D01*
X009304Y006468D01*
X009362Y006504D01*
X009419Y006544D01*
X009473Y006587D01*
X009524Y006633D01*
X009573Y006682D01*
X009619Y006733D01*
X009663Y006787D01*
X009655Y006792D01*
X009612Y006738D01*
X009566Y006687D01*
X009516Y006638D01*
X009465Y006592D01*
X009410Y006549D01*
X009353Y006509D01*
X009295Y006473D01*
X009234Y006439D01*
X009171Y006410D01*
X009107Y006384D01*
X009041Y006362D01*
X008974Y006343D01*
X008907Y006328D01*
X008838Y006317D01*
X008769Y006310D01*
X008700Y006307D01*
X008631Y006308D01*
X008561Y006313D01*
X008493Y006321D01*
X008425Y006334D01*
X008357Y006350D01*
X008291Y006371D01*
X008226Y006394D01*
X008162Y006422D01*
X008100Y006453D01*
X008040Y006488D01*
X007982Y006526D01*
X007926Y006567D01*
X007873Y006611D01*
X007822Y006658D01*
X007774Y006708D01*
X007729Y006761D01*
X007687Y006816D01*
X007648Y006873D01*
X007613Y006933D01*
X007581Y006994D01*
X007552Y007057D01*
X007527Y007122D01*
X007506Y007188D01*
X007488Y007255D01*
X007475Y007323D01*
X007465Y007392D01*
X007459Y007461D01*
X007457Y007530D01*
X007459Y007599D01*
X007465Y007668D01*
X007475Y007737D01*
X007488Y007805D01*
X007506Y007872D01*
X007527Y007938D01*
X007552Y008003D01*
X007581Y008066D01*
X007613Y008127D01*
X007648Y008187D01*
X007687Y008244D01*
X007729Y008299D01*
X007774Y008352D01*
X007822Y008402D01*
X007873Y008449D01*
X007926Y008493D01*
X007982Y008534D01*
X008040Y008572D01*
X008100Y008607D01*
X008162Y008638D01*
X008226Y008666D01*
X008291Y008689D01*
X008357Y008710D01*
X008425Y008726D01*
X008493Y008739D01*
X008561Y008747D01*
X008631Y008752D01*
X008700Y008753D01*
X008769Y008750D01*
X008838Y008743D01*
X008907Y008732D01*
X008974Y008717D01*
X009041Y008698D01*
X009107Y008676D01*
X009171Y008650D01*
X009234Y008621D01*
X009295Y008587D01*
X009353Y008551D01*
X009410Y008511D01*
X009465Y008468D01*
X009516Y008422D01*
X009566Y008373D01*
X009612Y008322D01*
X009655Y008268D01*
X009648Y008262D01*
X009605Y008316D01*
X009559Y008367D01*
X009510Y008416D01*
X009459Y008461D01*
X009405Y008504D01*
X009348Y008543D01*
X009290Y008580D01*
X009230Y008613D01*
X009167Y008642D01*
X009104Y008668D01*
X009038Y008690D01*
X008972Y008708D01*
X008905Y008723D01*
X008837Y008734D01*
X008768Y008741D01*
X008700Y008744D01*
X008631Y008743D01*
X008562Y008738D01*
X008494Y008730D01*
X008426Y008717D01*
X008360Y008701D01*
X008294Y008681D01*
X008229Y008657D01*
X008166Y008630D01*
X008105Y008599D01*
X008045Y008565D01*
X007987Y008527D01*
X007932Y008486D01*
X007879Y008442D01*
X007829Y008395D01*
X007781Y008346D01*
X007736Y008294D01*
X007694Y008239D01*
X007656Y008182D01*
X007621Y008123D01*
X007589Y008062D01*
X007560Y007999D01*
X007536Y007935D01*
X007514Y007869D01*
X007497Y007803D01*
X007484Y007735D01*
X007474Y007667D01*
X007468Y007599D01*
X007466Y007530D01*
X007468Y007461D01*
X007474Y007393D01*
X007484Y007325D01*
X007497Y007257D01*
X007514Y007191D01*
X007536Y007125D01*
X007560Y007061D01*
X007589Y006998D01*
X007621Y006937D01*
X007656Y006878D01*
X007694Y006821D01*
X007736Y006766D01*
X007781Y006714D01*
X007829Y006665D01*
X007879Y006618D01*
X007932Y006574D01*
X007987Y006533D01*
X008045Y006495D01*
X008105Y006461D01*
X008166Y006430D01*
X008229Y006403D01*
X008294Y006379D01*
X008360Y006359D01*
X008426Y006343D01*
X008494Y006330D01*
X008562Y006322D01*
X008631Y006317D01*
X008700Y006316D01*
X008768Y006319D01*
X008837Y006326D01*
X008905Y006337D01*
X008972Y006352D01*
X009038Y006370D01*
X009104Y006392D01*
X009167Y006418D01*
X009230Y006447D01*
X009290Y006480D01*
X009348Y006517D01*
X009405Y006556D01*
X009459Y006599D01*
X009510Y006644D01*
X009559Y006693D01*
X009605Y006744D01*
X009648Y006798D01*
X007212Y007260D02*
X007140Y007206D01*
X007141Y007207D02*
X007098Y007260D01*
X007053Y007311D01*
X007004Y007359D01*
X006953Y007404D01*
X006899Y007447D01*
X006843Y007486D01*
X006785Y007522D01*
X006725Y007555D01*
X006664Y007584D01*
X006600Y007609D01*
X006536Y007631D01*
X006470Y007650D01*
X006403Y007664D01*
X006336Y007675D01*
X006268Y007682D01*
X006200Y007685D01*
X006131Y007684D01*
X006063Y007679D01*
X005995Y007671D01*
X005928Y007658D01*
X005862Y007642D01*
X005797Y007622D01*
X005732Y007599D01*
X005670Y007572D01*
X005609Y007541D01*
X005550Y007507D01*
X005492Y007470D01*
X005437Y007429D01*
X005385Y007385D01*
X005335Y007339D01*
X005288Y007290D01*
X005243Y007238D01*
X005202Y007184D01*
X005163Y007127D01*
X005128Y007068D01*
X005097Y007008D01*
X005069Y006946D01*
X005044Y006882D01*
X005023Y006817D01*
X005006Y006751D01*
X004992Y006684D01*
X004983Y006616D01*
X004977Y006548D01*
X004975Y006480D01*
X004977Y006412D01*
X004983Y006344D01*
X004992Y006276D01*
X005006Y006209D01*
X005023Y006143D01*
X005044Y006078D01*
X005069Y006014D01*
X005097Y005952D01*
X005128Y005892D01*
X005163Y005833D01*
X005202Y005776D01*
X005243Y005722D01*
X005288Y005670D01*
X005335Y005621D01*
X005385Y005575D01*
X005437Y005531D01*
X005492Y005490D01*
X005550Y005453D01*
X005609Y005419D01*
X005670Y005388D01*
X005732Y005361D01*
X005797Y005338D01*
X005862Y005318D01*
X005928Y005302D01*
X005995Y005289D01*
X006063Y005281D01*
X006131Y005276D01*
X006200Y005275D01*
X006268Y005278D01*
X006336Y005285D01*
X006403Y005296D01*
X006470Y005310D01*
X006536Y005329D01*
X006600Y005351D01*
X006664Y005376D01*
X006725Y005405D01*
X006785Y005438D01*
X006843Y005474D01*
X006899Y005513D01*
X006953Y005556D01*
X007004Y005601D01*
X007053Y005649D01*
X007098Y005700D01*
X007141Y005753D01*
X007212Y005700D01*
X007213Y005699D01*
X007169Y005644D01*
X007121Y005591D01*
X007071Y005540D01*
X007018Y005493D01*
X006963Y005449D01*
X006905Y005407D01*
X006845Y005369D01*
X006784Y005334D01*
X006720Y005303D01*
X006655Y005275D01*
X006588Y005251D01*
X006520Y005230D01*
X006451Y005214D01*
X006381Y005201D01*
X006311Y005192D01*
X006240Y005186D01*
X006169Y005185D01*
X006098Y005188D01*
X006027Y005194D01*
X005957Y005204D01*
X005888Y005218D01*
X005819Y005236D01*
X005751Y005258D01*
X005685Y005283D01*
X005620Y005312D01*
X005557Y005345D01*
X005496Y005381D01*
X005437Y005420D01*
X005380Y005462D01*
X005325Y005507D01*
X005273Y005556D01*
X005224Y005607D01*
X005177Y005660D01*
X005134Y005717D01*
X005094Y005775D01*
X005057Y005836D01*
X005023Y005898D01*
X004993Y005962D01*
X004966Y006028D01*
X004943Y006095D01*
X004924Y006164D01*
X004909Y006233D01*
X004897Y006303D01*
X004889Y006374D01*
X004885Y006445D01*
X004885Y006515D01*
X004889Y006586D01*
X004897Y006657D01*
X004909Y006727D01*
X004924Y006796D01*
X004943Y006865D01*
X004966Y006932D01*
X004993Y006998D01*
X005023Y007062D01*
X005057Y007124D01*
X005094Y007185D01*
X005134Y007243D01*
X005177Y007300D01*
X005224Y007353D01*
X005273Y007404D01*
X005325Y007453D01*
X005380Y007498D01*
X005437Y007540D01*
X005496Y007579D01*
X005557Y007615D01*
X005620Y007648D01*
X005685Y007677D01*
X005751Y007702D01*
X005819Y007724D01*
X005888Y007742D01*
X005957Y007756D01*
X006027Y007766D01*
X006098Y007772D01*
X006169Y007775D01*
X006240Y007774D01*
X006311Y007768D01*
X006381Y007759D01*
X006451Y007746D01*
X006520Y007730D01*
X006588Y007709D01*
X006655Y007685D01*
X006720Y007657D01*
X006784Y007626D01*
X006845Y007591D01*
X006905Y007553D01*
X006963Y007511D01*
X007018Y007467D01*
X007071Y007420D01*
X007121Y007369D01*
X007169Y007316D01*
X007213Y007261D01*
X007206Y007256D01*
X007161Y007311D01*
X007114Y007364D01*
X007063Y007415D01*
X007010Y007462D01*
X006954Y007507D01*
X006896Y007548D01*
X006836Y007586D01*
X006774Y007621D01*
X006710Y007652D01*
X006644Y007679D01*
X006577Y007703D01*
X006508Y007723D01*
X006439Y007740D01*
X006369Y007752D01*
X006298Y007761D01*
X006227Y007765D01*
X006156Y007766D01*
X006085Y007762D01*
X006014Y007755D01*
X005943Y007744D01*
X005874Y007729D01*
X005805Y007710D01*
X005737Y007687D01*
X005671Y007661D01*
X005606Y007631D01*
X005544Y007597D01*
X005483Y007561D01*
X005424Y007520D01*
X005367Y007477D01*
X005313Y007430D01*
X005262Y007381D01*
X005214Y007328D01*
X005168Y007274D01*
X005126Y007216D01*
X005087Y007157D01*
X005051Y007095D01*
X005018Y007032D01*
X004990Y006967D01*
X004964Y006900D01*
X004943Y006832D01*
X004925Y006763D01*
X004912Y006693D01*
X004902Y006622D01*
X004896Y006551D01*
X004894Y006480D01*
X004896Y006409D01*
X004902Y006338D01*
X004912Y006267D01*
X004925Y006197D01*
X004943Y006128D01*
X004964Y006060D01*
X004990Y005993D01*
X005018Y005928D01*
X005051Y005865D01*
X005087Y005803D01*
X005126Y005744D01*
X005168Y005686D01*
X005214Y005632D01*
X005262Y005579D01*
X005313Y005530D01*
X005367Y005483D01*
X005424Y005440D01*
X005483Y005399D01*
X005544Y005363D01*
X005606Y005329D01*
X005671Y005299D01*
X005737Y005273D01*
X005805Y005250D01*
X005874Y005231D01*
X005943Y005216D01*
X006014Y005205D01*
X006085Y005198D01*
X006156Y005194D01*
X006227Y005195D01*
X006298Y005199D01*
X006369Y005208D01*
X006439Y005220D01*
X006508Y005237D01*
X006577Y005257D01*
X006644Y005281D01*
X006710Y005308D01*
X006774Y005339D01*
X006836Y005374D01*
X006896Y005412D01*
X006954Y005453D01*
X007010Y005498D01*
X007063Y005545D01*
X007114Y005596D01*
X007161Y005649D01*
X007206Y005704D01*
X007199Y005710D01*
X007154Y005655D01*
X007107Y005602D01*
X007057Y005552D01*
X007004Y005505D01*
X006949Y005461D01*
X006891Y005419D01*
X006832Y005382D01*
X006770Y005347D01*
X006706Y005316D01*
X006641Y005289D01*
X006574Y005265D01*
X006506Y005245D01*
X006437Y005229D01*
X006368Y005217D01*
X006297Y005208D01*
X006227Y005204D01*
X006156Y005203D01*
X006085Y005207D01*
X006015Y005214D01*
X005945Y005225D01*
X005876Y005240D01*
X005808Y005259D01*
X005740Y005281D01*
X005675Y005307D01*
X005610Y005337D01*
X005548Y005370D01*
X005488Y005407D01*
X005429Y005447D01*
X005373Y005490D01*
X005319Y005536D01*
X005269Y005586D01*
X005220Y005637D01*
X005175Y005692D01*
X005133Y005749D01*
X005094Y005808D01*
X005059Y005869D01*
X005026Y005932D01*
X004998Y005997D01*
X004973Y006063D01*
X004952Y006131D01*
X004934Y006199D01*
X004921Y006269D01*
X004911Y006339D01*
X004905Y006409D01*
X004903Y006480D01*
X004905Y006551D01*
X004911Y006621D01*
X004921Y006691D01*
X004934Y006761D01*
X004952Y006829D01*
X004973Y006897D01*
X004998Y006963D01*
X005026Y007028D01*
X005059Y007091D01*
X005094Y007152D01*
X005133Y007211D01*
X005175Y007268D01*
X005220Y007323D01*
X005269Y007374D01*
X005319Y007424D01*
X005373Y007470D01*
X005429Y007513D01*
X005488Y007553D01*
X005548Y007590D01*
X005610Y007623D01*
X005675Y007653D01*
X005740Y007679D01*
X005808Y007701D01*
X005876Y007720D01*
X005945Y007735D01*
X006015Y007746D01*
X006085Y007753D01*
X006156Y007757D01*
X006227Y007756D01*
X006297Y007752D01*
X006368Y007743D01*
X006437Y007731D01*
X006506Y007715D01*
X006574Y007695D01*
X006641Y007671D01*
X006706Y007644D01*
X006770Y007613D01*
X006832Y007578D01*
X006891Y007541D01*
X006949Y007499D01*
X007004Y007455D01*
X007057Y007408D01*
X007107Y007358D01*
X007154Y007305D01*
X007199Y007250D01*
X007191Y007245D01*
X007147Y007300D01*
X007099Y007353D01*
X007049Y007403D01*
X006996Y007451D01*
X006940Y007495D01*
X006882Y007536D01*
X006822Y007573D01*
X006760Y007608D01*
X006696Y007638D01*
X006630Y007665D01*
X006563Y007689D01*
X006495Y007708D01*
X006425Y007724D01*
X006355Y007736D01*
X006285Y007744D01*
X006214Y007748D01*
X006143Y007747D01*
X006072Y007743D01*
X006001Y007735D01*
X005931Y007723D01*
X005862Y007707D01*
X005794Y007688D01*
X005726Y007664D01*
X005661Y007637D01*
X005597Y007606D01*
X005535Y007572D01*
X005475Y007534D01*
X005417Y007492D01*
X005361Y007448D01*
X005308Y007401D01*
X005258Y007350D01*
X005211Y007297D01*
X005166Y007242D01*
X005125Y007184D01*
X005088Y007124D01*
X005053Y007061D01*
X005022Y006997D01*
X004995Y006932D01*
X004972Y006865D01*
X004952Y006796D01*
X004936Y006727D01*
X004924Y006657D01*
X004916Y006586D01*
X004912Y006516D01*
X004912Y006444D01*
X004916Y006374D01*
X004924Y006303D01*
X004936Y006233D01*
X004952Y006164D01*
X004972Y006095D01*
X004995Y006028D01*
X005022Y005963D01*
X005053Y005899D01*
X005088Y005836D01*
X005125Y005776D01*
X005166Y005718D01*
X005211Y005663D01*
X005258Y005610D01*
X005308Y005559D01*
X005361Y005512D01*
X005417Y005468D01*
X005475Y005426D01*
X005535Y005388D01*
X005597Y005354D01*
X005661Y005323D01*
X005726Y005296D01*
X005794Y005272D01*
X005862Y005253D01*
X005931Y005237D01*
X006001Y005225D01*
X006072Y005217D01*
X006143Y005213D01*
X006214Y005212D01*
X006285Y005216D01*
X006355Y005224D01*
X006425Y005236D01*
X006495Y005252D01*
X006563Y005271D01*
X006630Y005295D01*
X006696Y005322D01*
X006760Y005352D01*
X006822Y005387D01*
X006882Y005424D01*
X006940Y005465D01*
X006996Y005509D01*
X007049Y005557D01*
X007099Y005607D01*
X007147Y005660D01*
X007191Y005715D01*
X007184Y005721D01*
X007140Y005666D01*
X007093Y005613D01*
X007043Y005563D01*
X006990Y005516D01*
X006935Y005472D01*
X006877Y005432D01*
X006818Y005394D01*
X006756Y005360D01*
X006692Y005330D01*
X006627Y005303D01*
X006560Y005280D01*
X006492Y005260D01*
X006424Y005245D01*
X006354Y005233D01*
X006284Y005225D01*
X006213Y005221D01*
X006143Y005222D01*
X006072Y005226D01*
X006002Y005234D01*
X005933Y005246D01*
X005864Y005261D01*
X005796Y005281D01*
X005730Y005304D01*
X005665Y005331D01*
X005601Y005362D01*
X005539Y005396D01*
X005480Y005434D01*
X005422Y005475D01*
X005367Y005519D01*
X005314Y005566D01*
X005265Y005616D01*
X005218Y005668D01*
X005174Y005724D01*
X005133Y005781D01*
X005095Y005841D01*
X005061Y005903D01*
X005031Y005966D01*
X005004Y006031D01*
X004980Y006098D01*
X004961Y006166D01*
X004945Y006235D01*
X004933Y006304D01*
X004925Y006374D01*
X004921Y006445D01*
X004921Y006515D01*
X004925Y006586D01*
X004933Y006656D01*
X004945Y006725D01*
X004961Y006794D01*
X004980Y006862D01*
X005004Y006929D01*
X005031Y006994D01*
X005061Y007057D01*
X005095Y007119D01*
X005133Y007179D01*
X005174Y007236D01*
X005218Y007292D01*
X005265Y007344D01*
X005314Y007394D01*
X005367Y007441D01*
X005422Y007485D01*
X005480Y007526D01*
X005539Y007564D01*
X005601Y007598D01*
X005665Y007629D01*
X005730Y007656D01*
X005796Y007679D01*
X005864Y007699D01*
X005933Y007714D01*
X006002Y007726D01*
X006072Y007734D01*
X006143Y007738D01*
X006213Y007739D01*
X006284Y007735D01*
X006354Y007727D01*
X006424Y007715D01*
X006492Y007700D01*
X006560Y007680D01*
X006627Y007657D01*
X006692Y007630D01*
X006756Y007600D01*
X006818Y007566D01*
X006877Y007528D01*
X006935Y007488D01*
X006990Y007444D01*
X007043Y007397D01*
X007093Y007347D01*
X007140Y007294D01*
X007184Y007239D01*
X007177Y007234D01*
X007133Y007289D01*
X007086Y007341D01*
X007037Y007390D01*
X006984Y007437D01*
X006930Y007480D01*
X006872Y007521D01*
X006813Y007558D01*
X006752Y007592D01*
X006688Y007622D01*
X006624Y007649D01*
X006557Y007672D01*
X006490Y007691D01*
X006422Y007706D01*
X006353Y007718D01*
X006283Y007726D01*
X006213Y007730D01*
X006143Y007729D01*
X006073Y007725D01*
X006004Y007717D01*
X005935Y007706D01*
X005866Y007690D01*
X005799Y007671D01*
X005733Y007647D01*
X005668Y007620D01*
X005605Y007590D01*
X005544Y007556D01*
X005485Y007519D01*
X005427Y007478D01*
X005373Y007434D01*
X005321Y007388D01*
X005271Y007338D01*
X005224Y007286D01*
X005181Y007231D01*
X005140Y007174D01*
X005103Y007115D01*
X005069Y007053D01*
X005039Y006990D01*
X005012Y006925D01*
X004989Y006859D01*
X004970Y006792D01*
X004954Y006724D01*
X004942Y006655D01*
X004934Y006585D01*
X004930Y006515D01*
X004930Y006445D01*
X004934Y006375D01*
X004942Y006305D01*
X004954Y006236D01*
X004970Y006168D01*
X004989Y006101D01*
X005012Y006035D01*
X005039Y005970D01*
X005069Y005907D01*
X005103Y005845D01*
X005140Y005786D01*
X005181Y005729D01*
X005224Y005674D01*
X005271Y005622D01*
X005321Y005572D01*
X005373Y005526D01*
X005427Y005482D01*
X005485Y005441D01*
X005544Y005404D01*
X005605Y005370D01*
X005668Y005340D01*
X005733Y005313D01*
X005799Y005289D01*
X005866Y005270D01*
X005935Y005254D01*
X006004Y005243D01*
X006073Y005235D01*
X006143Y005231D01*
X006213Y005230D01*
X006283Y005234D01*
X006353Y005242D01*
X006422Y005254D01*
X006490Y005269D01*
X006557Y005288D01*
X006624Y005311D01*
X006688Y005338D01*
X006752Y005368D01*
X006813Y005402D01*
X006872Y005439D01*
X006930Y005480D01*
X006984Y005523D01*
X007037Y005570D01*
X007086Y005619D01*
X007133Y005671D01*
X007177Y005726D01*
X007170Y005731D01*
X007126Y005677D01*
X007080Y005625D01*
X007031Y005576D01*
X006979Y005530D01*
X006924Y005487D01*
X006867Y005447D01*
X006808Y005410D01*
X006747Y005376D01*
X006685Y005346D01*
X006620Y005320D01*
X006555Y005297D01*
X006488Y005278D01*
X006420Y005262D01*
X006351Y005251D01*
X006282Y005243D01*
X006213Y005239D01*
X006143Y005240D01*
X006074Y005244D01*
X006005Y005251D01*
X005936Y005263D01*
X005869Y005279D01*
X005802Y005298D01*
X005736Y005321D01*
X005672Y005348D01*
X005609Y005378D01*
X005548Y005412D01*
X005490Y005449D01*
X005433Y005489D01*
X005379Y005532D01*
X005327Y005579D01*
X005278Y005628D01*
X005231Y005680D01*
X005188Y005734D01*
X005148Y005791D01*
X005111Y005850D01*
X005077Y005911D01*
X005047Y005974D01*
X005020Y006038D01*
X004997Y006103D01*
X004978Y006170D01*
X004963Y006238D01*
X004951Y006307D01*
X004943Y006376D01*
X004939Y006445D01*
X004939Y006515D01*
X004943Y006584D01*
X004951Y006653D01*
X004963Y006722D01*
X004978Y006790D01*
X004997Y006857D01*
X005020Y006922D01*
X005047Y006986D01*
X005077Y007049D01*
X005111Y007110D01*
X005148Y007169D01*
X005188Y007226D01*
X005231Y007280D01*
X005278Y007332D01*
X005327Y007381D01*
X005379Y007428D01*
X005433Y007471D01*
X005490Y007511D01*
X005548Y007548D01*
X005609Y007582D01*
X005672Y007612D01*
X005736Y007639D01*
X005802Y007662D01*
X005869Y007681D01*
X005936Y007697D01*
X006005Y007709D01*
X006074Y007716D01*
X006143Y007720D01*
X006213Y007721D01*
X006282Y007717D01*
X006351Y007709D01*
X006420Y007698D01*
X006488Y007682D01*
X006555Y007663D01*
X006620Y007640D01*
X006685Y007614D01*
X006747Y007584D01*
X006808Y007550D01*
X006867Y007513D01*
X006924Y007473D01*
X006979Y007430D01*
X007031Y007384D01*
X007080Y007335D01*
X007126Y007283D01*
X007170Y007229D01*
X007163Y007223D01*
X007119Y007277D01*
X007073Y007328D01*
X007024Y007377D01*
X006973Y007423D01*
X006919Y007466D01*
X006862Y007506D01*
X006804Y007542D01*
X006743Y007576D01*
X006681Y007606D01*
X006617Y007632D01*
X006552Y007654D01*
X006486Y007673D01*
X006418Y007689D01*
X006350Y007700D01*
X006282Y007708D01*
X006213Y007712D01*
X006144Y007711D01*
X006075Y007707D01*
X006006Y007700D01*
X005938Y007688D01*
X005871Y007673D01*
X005804Y007653D01*
X005739Y007630D01*
X005676Y007604D01*
X005613Y007574D01*
X005553Y007541D01*
X005495Y007504D01*
X005438Y007464D01*
X005384Y007421D01*
X005333Y007375D01*
X005284Y007326D01*
X005238Y007274D01*
X005195Y007220D01*
X005155Y007164D01*
X005119Y007105D01*
X005085Y007045D01*
X005055Y006983D01*
X005029Y006919D01*
X005006Y006854D01*
X004987Y006787D01*
X004972Y006720D01*
X004960Y006652D01*
X004952Y006583D01*
X004948Y006515D01*
X004948Y006445D01*
X004952Y006377D01*
X004960Y006308D01*
X004972Y006240D01*
X004987Y006173D01*
X005006Y006106D01*
X005029Y006041D01*
X005055Y005977D01*
X005085Y005915D01*
X005119Y005855D01*
X005155Y005796D01*
X005195Y005740D01*
X005238Y005686D01*
X005284Y005634D01*
X005333Y005585D01*
X005384Y005539D01*
X005438Y005496D01*
X005495Y005456D01*
X005553Y005419D01*
X005613Y005386D01*
X005676Y005356D01*
X005739Y005330D01*
X005804Y005307D01*
X005871Y005287D01*
X005938Y005272D01*
X006006Y005260D01*
X006075Y005253D01*
X006144Y005249D01*
X006213Y005248D01*
X006282Y005252D01*
X006350Y005260D01*
X006418Y005271D01*
X006486Y005287D01*
X006552Y005306D01*
X006617Y005328D01*
X006681Y005354D01*
X006743Y005384D01*
X006804Y005418D01*
X006862Y005454D01*
X006919Y005494D01*
X006973Y005537D01*
X007024Y005583D01*
X007073Y005632D01*
X007119Y005683D01*
X007163Y005737D01*
X007155Y005742D01*
X007112Y005688D01*
X007066Y005637D01*
X007016Y005588D01*
X006965Y005542D01*
X006910Y005499D01*
X006853Y005459D01*
X006795Y005423D01*
X006734Y005389D01*
X006671Y005360D01*
X006607Y005334D01*
X006541Y005312D01*
X006474Y005293D01*
X006407Y005278D01*
X006338Y005267D01*
X006269Y005260D01*
X006200Y005257D01*
X006131Y005258D01*
X006061Y005263D01*
X005993Y005271D01*
X005925Y005284D01*
X005857Y005300D01*
X005791Y005321D01*
X005726Y005344D01*
X005662Y005372D01*
X005600Y005403D01*
X005540Y005438D01*
X005482Y005476D01*
X005426Y005517D01*
X005373Y005561D01*
X005322Y005608D01*
X005274Y005658D01*
X005229Y005711D01*
X005187Y005766D01*
X005148Y005823D01*
X005113Y005883D01*
X005081Y005944D01*
X005052Y006007D01*
X005027Y006072D01*
X005006Y006138D01*
X004988Y006205D01*
X004975Y006273D01*
X004965Y006342D01*
X004959Y006411D01*
X004957Y006480D01*
X004959Y006549D01*
X004965Y006618D01*
X004975Y006687D01*
X004988Y006755D01*
X005006Y006822D01*
X005027Y006888D01*
X005052Y006953D01*
X005081Y007016D01*
X005113Y007077D01*
X005148Y007137D01*
X005187Y007194D01*
X005229Y007249D01*
X005274Y007302D01*
X005322Y007352D01*
X005373Y007399D01*
X005426Y007443D01*
X005482Y007484D01*
X005540Y007522D01*
X005600Y007557D01*
X005662Y007588D01*
X005726Y007616D01*
X005791Y007639D01*
X005857Y007660D01*
X005925Y007676D01*
X005993Y007689D01*
X006061Y007697D01*
X006131Y007702D01*
X006200Y007703D01*
X006269Y007700D01*
X006338Y007693D01*
X006407Y007682D01*
X006474Y007667D01*
X006541Y007648D01*
X006607Y007626D01*
X006671Y007600D01*
X006734Y007571D01*
X006795Y007537D01*
X006853Y007501D01*
X006910Y007461D01*
X006965Y007418D01*
X007016Y007372D01*
X007066Y007323D01*
X007112Y007272D01*
X007155Y007218D01*
X007148Y007212D01*
X007105Y007266D01*
X007059Y007317D01*
X007010Y007366D01*
X006959Y007411D01*
X006905Y007454D01*
X006848Y007493D01*
X006790Y007530D01*
X006730Y007563D01*
X006667Y007592D01*
X006604Y007618D01*
X006538Y007640D01*
X006472Y007658D01*
X006405Y007673D01*
X006337Y007684D01*
X006268Y007691D01*
X006200Y007694D01*
X006131Y007693D01*
X006062Y007688D01*
X005994Y007680D01*
X005926Y007667D01*
X005860Y007651D01*
X005794Y007631D01*
X005729Y007607D01*
X005666Y007580D01*
X005605Y007549D01*
X005545Y007515D01*
X005487Y007477D01*
X005432Y007436D01*
X005379Y007392D01*
X005329Y007345D01*
X005281Y007296D01*
X005236Y007244D01*
X005194Y007189D01*
X005156Y007132D01*
X005121Y007073D01*
X005089Y007012D01*
X005060Y006949D01*
X005036Y006885D01*
X005014Y006819D01*
X004997Y006753D01*
X004984Y006685D01*
X004974Y006617D01*
X004968Y006549D01*
X004966Y006480D01*
X004968Y006411D01*
X004974Y006343D01*
X004984Y006275D01*
X004997Y006207D01*
X005014Y006141D01*
X005036Y006075D01*
X005060Y006011D01*
X005089Y005948D01*
X005121Y005887D01*
X005156Y005828D01*
X005194Y005771D01*
X005236Y005716D01*
X005281Y005664D01*
X005329Y005615D01*
X005379Y005568D01*
X005432Y005524D01*
X005487Y005483D01*
X005545Y005445D01*
X005605Y005411D01*
X005666Y005380D01*
X005729Y005353D01*
X005794Y005329D01*
X005860Y005309D01*
X005926Y005293D01*
X005994Y005280D01*
X006062Y005272D01*
X006131Y005267D01*
X006200Y005266D01*
X006268Y005269D01*
X006337Y005276D01*
X006405Y005287D01*
X006472Y005302D01*
X006538Y005320D01*
X006604Y005342D01*
X006667Y005368D01*
X006730Y005397D01*
X006790Y005430D01*
X006848Y005467D01*
X006905Y005506D01*
X006959Y005549D01*
X007010Y005594D01*
X007059Y005643D01*
X007105Y005694D01*
X007148Y005748D01*
X004962Y005460D02*
X004890Y005406D01*
X004891Y005407D02*
X004848Y005460D01*
X004803Y005511D01*
X004754Y005559D01*
X004703Y005604D01*
X004649Y005647D01*
X004593Y005686D01*
X004535Y005722D01*
X004475Y005755D01*
X004414Y005784D01*
X004350Y005809D01*
X004286Y005831D01*
X004220Y005850D01*
X004153Y005864D01*
X004086Y005875D01*
X004018Y005882D01*
X003950Y005885D01*
X003881Y005884D01*
X003813Y005879D01*
X003745Y005871D01*
X003678Y005858D01*
X003612Y005842D01*
X003547Y005822D01*
X003482Y005799D01*
X003420Y005772D01*
X003359Y005741D01*
X003300Y005707D01*
X003242Y005670D01*
X003187Y005629D01*
X003135Y005585D01*
X003085Y005539D01*
X003038Y005490D01*
X002993Y005438D01*
X002952Y005384D01*
X002913Y005327D01*
X002878Y005268D01*
X002847Y005208D01*
X002819Y005146D01*
X002794Y005082D01*
X002773Y005017D01*
X002756Y004951D01*
X002742Y004884D01*
X002733Y004816D01*
X002727Y004748D01*
X002725Y004680D01*
X002727Y004612D01*
X002733Y004544D01*
X002742Y004476D01*
X002756Y004409D01*
X002773Y004343D01*
X002794Y004278D01*
X002819Y004214D01*
X002847Y004152D01*
X002878Y004092D01*
X002913Y004033D01*
X002952Y003976D01*
X002993Y003922D01*
X003038Y003870D01*
X003085Y003821D01*
X003135Y003775D01*
X003187Y003731D01*
X003242Y003690D01*
X003300Y003653D01*
X003359Y003619D01*
X003420Y003588D01*
X003482Y003561D01*
X003547Y003538D01*
X003612Y003518D01*
X003678Y003502D01*
X003745Y003489D01*
X003813Y003481D01*
X003881Y003476D01*
X003950Y003475D01*
X004018Y003478D01*
X004086Y003485D01*
X004153Y003496D01*
X004220Y003510D01*
X004286Y003529D01*
X004350Y003551D01*
X004414Y003576D01*
X004475Y003605D01*
X004535Y003638D01*
X004593Y003674D01*
X004649Y003713D01*
X004703Y003756D01*
X004754Y003801D01*
X004803Y003849D01*
X004848Y003900D01*
X004891Y003953D01*
X004962Y003900D01*
X004963Y003899D01*
X004919Y003844D01*
X004871Y003791D01*
X004821Y003740D01*
X004768Y003693D01*
X004713Y003649D01*
X004655Y003607D01*
X004595Y003569D01*
X004534Y003534D01*
X004470Y003503D01*
X004405Y003475D01*
X004338Y003451D01*
X004270Y003430D01*
X004201Y003414D01*
X004131Y003401D01*
X004061Y003392D01*
X003990Y003386D01*
X003919Y003385D01*
X003848Y003388D01*
X003777Y003394D01*
X003707Y003404D01*
X003638Y003418D01*
X003569Y003436D01*
X003501Y003458D01*
X003435Y003483D01*
X003370Y003512D01*
X003307Y003545D01*
X003246Y003581D01*
X003187Y003620D01*
X003130Y003662D01*
X003075Y003707D01*
X003023Y003756D01*
X002974Y003807D01*
X002927Y003860D01*
X002884Y003917D01*
X002844Y003975D01*
X002807Y004036D01*
X002773Y004098D01*
X002743Y004162D01*
X002716Y004228D01*
X002693Y004295D01*
X002674Y004364D01*
X002659Y004433D01*
X002647Y004503D01*
X002639Y004574D01*
X002635Y004645D01*
X002635Y004715D01*
X002639Y004786D01*
X002647Y004857D01*
X002659Y004927D01*
X002674Y004996D01*
X002693Y005065D01*
X002716Y005132D01*
X002743Y005198D01*
X002773Y005262D01*
X002807Y005324D01*
X002844Y005385D01*
X002884Y005443D01*
X002927Y005500D01*
X002974Y005553D01*
X003023Y005604D01*
X003075Y005653D01*
X003130Y005698D01*
X003187Y005740D01*
X003246Y005779D01*
X003307Y005815D01*
X003370Y005848D01*
X003435Y005877D01*
X003501Y005902D01*
X003569Y005924D01*
X003638Y005942D01*
X003707Y005956D01*
X003777Y005966D01*
X003848Y005972D01*
X003919Y005975D01*
X003990Y005974D01*
X004061Y005968D01*
X004131Y005959D01*
X004201Y005946D01*
X004270Y005930D01*
X004338Y005909D01*
X004405Y005885D01*
X004470Y005857D01*
X004534Y005826D01*
X004595Y005791D01*
X004655Y005753D01*
X004713Y005711D01*
X004768Y005667D01*
X004821Y005620D01*
X004871Y005569D01*
X004919Y005516D01*
X004963Y005461D01*
X004956Y005456D01*
X004911Y005511D01*
X004864Y005564D01*
X004813Y005615D01*
X004760Y005662D01*
X004704Y005707D01*
X004646Y005748D01*
X004586Y005786D01*
X004524Y005821D01*
X004460Y005852D01*
X004394Y005879D01*
X004327Y005903D01*
X004258Y005923D01*
X004189Y005940D01*
X004119Y005952D01*
X004048Y005961D01*
X003977Y005965D01*
X003906Y005966D01*
X003835Y005962D01*
X003764Y005955D01*
X003693Y005944D01*
X003624Y005929D01*
X003555Y005910D01*
X003487Y005887D01*
X003421Y005861D01*
X003356Y005831D01*
X003294Y005797D01*
X003233Y005761D01*
X003174Y005720D01*
X003117Y005677D01*
X003063Y005630D01*
X003012Y005581D01*
X002964Y005528D01*
X002918Y005474D01*
X002876Y005416D01*
X002837Y005357D01*
X002801Y005295D01*
X002768Y005232D01*
X002740Y005167D01*
X002714Y005100D01*
X002693Y005032D01*
X002675Y004963D01*
X002662Y004893D01*
X002652Y004822D01*
X002646Y004751D01*
X002644Y004680D01*
X002646Y004609D01*
X002652Y004538D01*
X002662Y004467D01*
X002675Y004397D01*
X002693Y004328D01*
X002714Y004260D01*
X002740Y004193D01*
X002768Y004128D01*
X002801Y004065D01*
X002837Y004003D01*
X002876Y003944D01*
X002918Y003886D01*
X002964Y003832D01*
X003012Y003779D01*
X003063Y003730D01*
X003117Y003683D01*
X003174Y003640D01*
X003233Y003599D01*
X003294Y003563D01*
X003356Y003529D01*
X003421Y003499D01*
X003487Y003473D01*
X003555Y003450D01*
X003624Y003431D01*
X003693Y003416D01*
X003764Y003405D01*
X003835Y003398D01*
X003906Y003394D01*
X003977Y003395D01*
X004048Y003399D01*
X004119Y003408D01*
X004189Y003420D01*
X004258Y003437D01*
X004327Y003457D01*
X004394Y003481D01*
X004460Y003508D01*
X004524Y003539D01*
X004586Y003574D01*
X004646Y003612D01*
X004704Y003653D01*
X004760Y003698D01*
X004813Y003745D01*
X004864Y003796D01*
X004911Y003849D01*
X004956Y003904D01*
X004949Y003910D01*
X004904Y003855D01*
X004857Y003802D01*
X004807Y003752D01*
X004754Y003705D01*
X004699Y003661D01*
X004641Y003619D01*
X004582Y003582D01*
X004520Y003547D01*
X004456Y003516D01*
X004391Y003489D01*
X004324Y003465D01*
X004256Y003445D01*
X004187Y003429D01*
X004118Y003417D01*
X004047Y003408D01*
X003977Y003404D01*
X003906Y003403D01*
X003835Y003407D01*
X003765Y003414D01*
X003695Y003425D01*
X003626Y003440D01*
X003558Y003459D01*
X003490Y003481D01*
X003425Y003507D01*
X003360Y003537D01*
X003298Y003570D01*
X003238Y003607D01*
X003179Y003647D01*
X003123Y003690D01*
X003069Y003736D01*
X003019Y003786D01*
X002970Y003837D01*
X002925Y003892D01*
X002883Y003949D01*
X002844Y004008D01*
X002809Y004069D01*
X002776Y004132D01*
X002748Y004197D01*
X002723Y004263D01*
X002702Y004331D01*
X002684Y004399D01*
X002671Y004469D01*
X002661Y004539D01*
X002655Y004609D01*
X002653Y004680D01*
X002655Y004751D01*
X002661Y004821D01*
X002671Y004891D01*
X002684Y004961D01*
X002702Y005029D01*
X002723Y005097D01*
X002748Y005163D01*
X002776Y005228D01*
X002809Y005291D01*
X002844Y005352D01*
X002883Y005411D01*
X002925Y005468D01*
X002970Y005523D01*
X003019Y005574D01*
X003069Y005624D01*
X003123Y005670D01*
X003179Y005713D01*
X003238Y005753D01*
X003298Y005790D01*
X003360Y005823D01*
X003425Y005853D01*
X003490Y005879D01*
X003558Y005901D01*
X003626Y005920D01*
X003695Y005935D01*
X003765Y005946D01*
X003835Y005953D01*
X003906Y005957D01*
X003977Y005956D01*
X004047Y005952D01*
X004118Y005943D01*
X004187Y005931D01*
X004256Y005915D01*
X004324Y005895D01*
X004391Y005871D01*
X004456Y005844D01*
X004520Y005813D01*
X004582Y005778D01*
X004641Y005741D01*
X004699Y005699D01*
X004754Y005655D01*
X004807Y005608D01*
X004857Y005558D01*
X004904Y005505D01*
X004949Y005450D01*
X004941Y005445D01*
X004897Y005500D01*
X004849Y005553D01*
X004799Y005603D01*
X004746Y005651D01*
X004690Y005695D01*
X004632Y005736D01*
X004572Y005773D01*
X004510Y005808D01*
X004446Y005838D01*
X004380Y005865D01*
X004313Y005889D01*
X004245Y005908D01*
X004175Y005924D01*
X004105Y005936D01*
X004035Y005944D01*
X003964Y005948D01*
X003893Y005947D01*
X003822Y005943D01*
X003751Y005935D01*
X003681Y005923D01*
X003612Y005907D01*
X003544Y005888D01*
X003476Y005864D01*
X003411Y005837D01*
X003347Y005806D01*
X003285Y005772D01*
X003225Y005734D01*
X003167Y005692D01*
X003111Y005648D01*
X003058Y005601D01*
X003008Y005550D01*
X002961Y005497D01*
X002916Y005442D01*
X002875Y005384D01*
X002838Y005324D01*
X002803Y005261D01*
X002772Y005197D01*
X002745Y005132D01*
X002722Y005065D01*
X002702Y004996D01*
X002686Y004927D01*
X002674Y004857D01*
X002666Y004786D01*
X002662Y004716D01*
X002662Y004644D01*
X002666Y004574D01*
X002674Y004503D01*
X002686Y004433D01*
X002702Y004364D01*
X002722Y004295D01*
X002745Y004228D01*
X002772Y004163D01*
X002803Y004099D01*
X002838Y004036D01*
X002875Y003976D01*
X002916Y003918D01*
X002961Y003863D01*
X003008Y003810D01*
X003058Y003759D01*
X003111Y003712D01*
X003167Y003668D01*
X003225Y003626D01*
X003285Y003588D01*
X003347Y003554D01*
X003411Y003523D01*
X003476Y003496D01*
X003544Y003472D01*
X003612Y003453D01*
X003681Y003437D01*
X003751Y003425D01*
X003822Y003417D01*
X003893Y003413D01*
X003964Y003412D01*
X004035Y003416D01*
X004105Y003424D01*
X004175Y003436D01*
X004245Y003452D01*
X004313Y003471D01*
X004380Y003495D01*
X004446Y003522D01*
X004510Y003552D01*
X004572Y003587D01*
X004632Y003624D01*
X004690Y003665D01*
X004746Y003709D01*
X004799Y003757D01*
X004849Y003807D01*
X004897Y003860D01*
X004941Y003915D01*
X004934Y003921D01*
X004890Y003866D01*
X004843Y003813D01*
X004793Y003763D01*
X004740Y003716D01*
X004685Y003672D01*
X004627Y003632D01*
X004568Y003594D01*
X004506Y003560D01*
X004442Y003530D01*
X004377Y003503D01*
X004310Y003480D01*
X004242Y003460D01*
X004174Y003445D01*
X004104Y003433D01*
X004034Y003425D01*
X003963Y003421D01*
X003893Y003422D01*
X003822Y003426D01*
X003752Y003434D01*
X003683Y003446D01*
X003614Y003461D01*
X003546Y003481D01*
X003480Y003504D01*
X003415Y003531D01*
X003351Y003562D01*
X003289Y003596D01*
X003230Y003634D01*
X003172Y003675D01*
X003117Y003719D01*
X003064Y003766D01*
X003015Y003816D01*
X002968Y003868D01*
X002924Y003924D01*
X002883Y003981D01*
X002845Y004041D01*
X002811Y004103D01*
X002781Y004166D01*
X002754Y004231D01*
X002730Y004298D01*
X002711Y004366D01*
X002695Y004435D01*
X002683Y004504D01*
X002675Y004574D01*
X002671Y004645D01*
X002671Y004715D01*
X002675Y004786D01*
X002683Y004856D01*
X002695Y004925D01*
X002711Y004994D01*
X002730Y005062D01*
X002754Y005129D01*
X002781Y005194D01*
X002811Y005257D01*
X002845Y005319D01*
X002883Y005379D01*
X002924Y005436D01*
X002968Y005492D01*
X003015Y005544D01*
X003064Y005594D01*
X003117Y005641D01*
X003172Y005685D01*
X003230Y005726D01*
X003289Y005764D01*
X003351Y005798D01*
X003415Y005829D01*
X003480Y005856D01*
X003546Y005879D01*
X003614Y005899D01*
X003683Y005914D01*
X003752Y005926D01*
X003822Y005934D01*
X003893Y005938D01*
X003963Y005939D01*
X004034Y005935D01*
X004104Y005927D01*
X004174Y005915D01*
X004242Y005900D01*
X004310Y005880D01*
X004377Y005857D01*
X004442Y005830D01*
X004506Y005800D01*
X004568Y005766D01*
X004627Y005728D01*
X004685Y005688D01*
X004740Y005644D01*
X004793Y005597D01*
X004843Y005547D01*
X004890Y005494D01*
X004934Y005439D01*
X004927Y005434D01*
X004883Y005489D01*
X004836Y005541D01*
X004787Y005590D01*
X004734Y005637D01*
X004680Y005680D01*
X004622Y005721D01*
X004563Y005758D01*
X004502Y005792D01*
X004438Y005822D01*
X004374Y005849D01*
X004307Y005872D01*
X004240Y005891D01*
X004172Y005906D01*
X004103Y005918D01*
X004033Y005926D01*
X003963Y005930D01*
X003893Y005929D01*
X003823Y005925D01*
X003754Y005917D01*
X003685Y005906D01*
X003616Y005890D01*
X003549Y005871D01*
X003483Y005847D01*
X003418Y005820D01*
X003355Y005790D01*
X003294Y005756D01*
X003235Y005719D01*
X003177Y005678D01*
X003123Y005634D01*
X003071Y005588D01*
X003021Y005538D01*
X002974Y005486D01*
X002931Y005431D01*
X002890Y005374D01*
X002853Y005315D01*
X002819Y005253D01*
X002789Y005190D01*
X002762Y005125D01*
X002739Y005059D01*
X002720Y004992D01*
X002704Y004924D01*
X002692Y004855D01*
X002684Y004785D01*
X002680Y004715D01*
X002680Y004645D01*
X002684Y004575D01*
X002692Y004505D01*
X002704Y004436D01*
X002720Y004368D01*
X002739Y004301D01*
X002762Y004235D01*
X002789Y004170D01*
X002819Y004107D01*
X002853Y004045D01*
X002890Y003986D01*
X002931Y003929D01*
X002974Y003874D01*
X003021Y003822D01*
X003071Y003772D01*
X003123Y003726D01*
X003177Y003682D01*
X003235Y003641D01*
X003294Y003604D01*
X003355Y003570D01*
X003418Y003540D01*
X003483Y003513D01*
X003549Y003489D01*
X003616Y003470D01*
X003685Y003454D01*
X003754Y003443D01*
X003823Y003435D01*
X003893Y003431D01*
X003963Y003430D01*
X004033Y003434D01*
X004103Y003442D01*
X004172Y003454D01*
X004240Y003469D01*
X004307Y003488D01*
X004374Y003511D01*
X004438Y003538D01*
X004502Y003568D01*
X004563Y003602D01*
X004622Y003639D01*
X004680Y003680D01*
X004734Y003723D01*
X004787Y003770D01*
X004836Y003819D01*
X004883Y003871D01*
X004927Y003926D01*
X004920Y003931D01*
X004876Y003877D01*
X004830Y003825D01*
X004781Y003776D01*
X004729Y003730D01*
X004674Y003687D01*
X004617Y003647D01*
X004558Y003610D01*
X004497Y003576D01*
X004435Y003546D01*
X004370Y003520D01*
X004305Y003497D01*
X004238Y003478D01*
X004170Y003462D01*
X004101Y003451D01*
X004032Y003443D01*
X003963Y003439D01*
X003893Y003440D01*
X003824Y003444D01*
X003755Y003451D01*
X003686Y003463D01*
X003619Y003479D01*
X003552Y003498D01*
X003486Y003521D01*
X003422Y003548D01*
X003359Y003578D01*
X003298Y003612D01*
X003240Y003649D01*
X003183Y003689D01*
X003129Y003732D01*
X003077Y003779D01*
X003028Y003828D01*
X002981Y003880D01*
X002938Y003934D01*
X002898Y003991D01*
X002861Y004050D01*
X002827Y004111D01*
X002797Y004174D01*
X002770Y004238D01*
X002747Y004303D01*
X002728Y004370D01*
X002713Y004438D01*
X002701Y004507D01*
X002693Y004576D01*
X002689Y004645D01*
X002689Y004715D01*
X002693Y004784D01*
X002701Y004853D01*
X002713Y004922D01*
X002728Y004990D01*
X002747Y005057D01*
X002770Y005122D01*
X002797Y005186D01*
X002827Y005249D01*
X002861Y005310D01*
X002898Y005369D01*
X002938Y005426D01*
X002981Y005480D01*
X003028Y005532D01*
X003077Y005581D01*
X003129Y005628D01*
X003183Y005671D01*
X003240Y005711D01*
X003298Y005748D01*
X003359Y005782D01*
X003422Y005812D01*
X003486Y005839D01*
X003552Y005862D01*
X003619Y005881D01*
X003686Y005897D01*
X003755Y005909D01*
X003824Y005916D01*
X003893Y005920D01*
X003963Y005921D01*
X004032Y005917D01*
X004101Y005909D01*
X004170Y005898D01*
X004238Y005882D01*
X004305Y005863D01*
X004370Y005840D01*
X004435Y005814D01*
X004497Y005784D01*
X004558Y005750D01*
X004617Y005713D01*
X004674Y005673D01*
X004729Y005630D01*
X004781Y005584D01*
X004830Y005535D01*
X004876Y005483D01*
X004920Y005429D01*
X004913Y005423D01*
X004869Y005477D01*
X004823Y005528D01*
X004774Y005577D01*
X004723Y005623D01*
X004669Y005666D01*
X004612Y005706D01*
X004554Y005742D01*
X004493Y005776D01*
X004431Y005806D01*
X004367Y005832D01*
X004302Y005854D01*
X004236Y005873D01*
X004168Y005889D01*
X004100Y005900D01*
X004032Y005908D01*
X003963Y005912D01*
X003894Y005911D01*
X003825Y005907D01*
X003756Y005900D01*
X003688Y005888D01*
X003621Y005873D01*
X003554Y005853D01*
X003489Y005830D01*
X003426Y005804D01*
X003363Y005774D01*
X003303Y005741D01*
X003245Y005704D01*
X003188Y005664D01*
X003134Y005621D01*
X003083Y005575D01*
X003034Y005526D01*
X002988Y005474D01*
X002945Y005420D01*
X002905Y005364D01*
X002869Y005305D01*
X002835Y005245D01*
X002805Y005183D01*
X002779Y005119D01*
X002756Y005054D01*
X002737Y004987D01*
X002722Y004920D01*
X002710Y004852D01*
X002702Y004783D01*
X002698Y004715D01*
X002698Y004645D01*
X002702Y004577D01*
X002710Y004508D01*
X002722Y004440D01*
X002737Y004373D01*
X002756Y004306D01*
X002779Y004241D01*
X002805Y004177D01*
X002835Y004115D01*
X002869Y004055D01*
X002905Y003996D01*
X002945Y003940D01*
X002988Y003886D01*
X003034Y003834D01*
X003083Y003785D01*
X003134Y003739D01*
X003188Y003696D01*
X003245Y003656D01*
X003303Y003619D01*
X003363Y003586D01*
X003426Y003556D01*
X003489Y003530D01*
X003554Y003507D01*
X003621Y003487D01*
X003688Y003472D01*
X003756Y003460D01*
X003825Y003453D01*
X003894Y003449D01*
X003963Y003448D01*
X004032Y003452D01*
X004100Y003460D01*
X004168Y003471D01*
X004236Y003487D01*
X004302Y003506D01*
X004367Y003528D01*
X004431Y003554D01*
X004493Y003584D01*
X004554Y003618D01*
X004612Y003654D01*
X004669Y003694D01*
X004723Y003737D01*
X004774Y003783D01*
X004823Y003832D01*
X004869Y003883D01*
X004913Y003937D01*
X004905Y003942D01*
X004862Y003888D01*
X004816Y003837D01*
X004766Y003788D01*
X004715Y003742D01*
X004660Y003699D01*
X004603Y003659D01*
X004545Y003623D01*
X004484Y003589D01*
X004421Y003560D01*
X004357Y003534D01*
X004291Y003512D01*
X004224Y003493D01*
X004157Y003478D01*
X004088Y003467D01*
X004019Y003460D01*
X003950Y003457D01*
X003881Y003458D01*
X003811Y003463D01*
X003743Y003471D01*
X003675Y003484D01*
X003607Y003500D01*
X003541Y003521D01*
X003476Y003544D01*
X003412Y003572D01*
X003350Y003603D01*
X003290Y003638D01*
X003232Y003676D01*
X003176Y003717D01*
X003123Y003761D01*
X003072Y003808D01*
X003024Y003858D01*
X002979Y003911D01*
X002937Y003966D01*
X002898Y004023D01*
X002863Y004083D01*
X002831Y004144D01*
X002802Y004207D01*
X002777Y004272D01*
X002756Y004338D01*
X002738Y004405D01*
X002725Y004473D01*
X002715Y004542D01*
X002709Y004611D01*
X002707Y004680D01*
X002709Y004749D01*
X002715Y004818D01*
X002725Y004887D01*
X002738Y004955D01*
X002756Y005022D01*
X002777Y005088D01*
X002802Y005153D01*
X002831Y005216D01*
X002863Y005277D01*
X002898Y005337D01*
X002937Y005394D01*
X002979Y005449D01*
X003024Y005502D01*
X003072Y005552D01*
X003123Y005599D01*
X003176Y005643D01*
X003232Y005684D01*
X003290Y005722D01*
X003350Y005757D01*
X003412Y005788D01*
X003476Y005816D01*
X003541Y005839D01*
X003607Y005860D01*
X003675Y005876D01*
X003743Y005889D01*
X003811Y005897D01*
X003881Y005902D01*
X003950Y005903D01*
X004019Y005900D01*
X004088Y005893D01*
X004157Y005882D01*
X004224Y005867D01*
X004291Y005848D01*
X004357Y005826D01*
X004421Y005800D01*
X004484Y005771D01*
X004545Y005737D01*
X004603Y005701D01*
X004660Y005661D01*
X004715Y005618D01*
X004766Y005572D01*
X004816Y005523D01*
X004862Y005472D01*
X004905Y005418D01*
X004898Y005412D01*
X004855Y005466D01*
X004809Y005517D01*
X004760Y005566D01*
X004709Y005611D01*
X004655Y005654D01*
X004598Y005693D01*
X004540Y005730D01*
X004480Y005763D01*
X004417Y005792D01*
X004354Y005818D01*
X004288Y005840D01*
X004222Y005858D01*
X004155Y005873D01*
X004087Y005884D01*
X004018Y005891D01*
X003950Y005894D01*
X003881Y005893D01*
X003812Y005888D01*
X003744Y005880D01*
X003676Y005867D01*
X003610Y005851D01*
X003544Y005831D01*
X003479Y005807D01*
X003416Y005780D01*
X003355Y005749D01*
X003295Y005715D01*
X003237Y005677D01*
X003182Y005636D01*
X003129Y005592D01*
X003079Y005545D01*
X003031Y005496D01*
X002986Y005444D01*
X002944Y005389D01*
X002906Y005332D01*
X002871Y005273D01*
X002839Y005212D01*
X002810Y005149D01*
X002786Y005085D01*
X002764Y005019D01*
X002747Y004953D01*
X002734Y004885D01*
X002724Y004817D01*
X002718Y004749D01*
X002716Y004680D01*
X002718Y004611D01*
X002724Y004543D01*
X002734Y004475D01*
X002747Y004407D01*
X002764Y004341D01*
X002786Y004275D01*
X002810Y004211D01*
X002839Y004148D01*
X002871Y004087D01*
X002906Y004028D01*
X002944Y003971D01*
X002986Y003916D01*
X003031Y003864D01*
X003079Y003815D01*
X003129Y003768D01*
X003182Y003724D01*
X003237Y003683D01*
X003295Y003645D01*
X003355Y003611D01*
X003416Y003580D01*
X003479Y003553D01*
X003544Y003529D01*
X003610Y003509D01*
X003676Y003493D01*
X003744Y003480D01*
X003812Y003472D01*
X003881Y003467D01*
X003950Y003466D01*
X004018Y003469D01*
X004087Y003476D01*
X004155Y003487D01*
X004222Y003502D01*
X004288Y003520D01*
X004354Y003542D01*
X004417Y003568D01*
X004480Y003597D01*
X004540Y003630D01*
X004598Y003667D01*
X004655Y003706D01*
X004709Y003749D01*
X004760Y003794D01*
X004809Y003843D01*
X004855Y003894D01*
X004898Y003948D01*
D13*
X002930Y004680D02*
X002932Y004743D01*
X002938Y004805D01*
X002948Y004867D01*
X002961Y004929D01*
X002979Y004989D01*
X003000Y005048D01*
X003025Y005106D01*
X003054Y005162D01*
X003086Y005216D01*
X003121Y005268D01*
X003159Y005317D01*
X003201Y005365D01*
X003245Y005409D01*
X003293Y005451D01*
X003342Y005489D01*
X003394Y005524D01*
X003448Y005556D01*
X003504Y005585D01*
X003562Y005610D01*
X003621Y005631D01*
X003681Y005649D01*
X003743Y005662D01*
X003805Y005672D01*
X003867Y005678D01*
X003930Y005680D01*
X003993Y005678D01*
X004055Y005672D01*
X004117Y005662D01*
X004179Y005649D01*
X004239Y005631D01*
X004298Y005610D01*
X004356Y005585D01*
X004412Y005556D01*
X004466Y005524D01*
X004518Y005489D01*
X004567Y005451D01*
X004615Y005409D01*
X004659Y005365D01*
X004701Y005317D01*
X004739Y005268D01*
X004774Y005216D01*
X004806Y005162D01*
X004835Y005106D01*
X004860Y005048D01*
X004881Y004989D01*
X004899Y004929D01*
X004912Y004867D01*
X004922Y004805D01*
X004928Y004743D01*
X004930Y004680D01*
X004928Y004617D01*
X004922Y004555D01*
X004912Y004493D01*
X004899Y004431D01*
X004881Y004371D01*
X004860Y004312D01*
X004835Y004254D01*
X004806Y004198D01*
X004774Y004144D01*
X004739Y004092D01*
X004701Y004043D01*
X004659Y003995D01*
X004615Y003951D01*
X004567Y003909D01*
X004518Y003871D01*
X004466Y003836D01*
X004412Y003804D01*
X004356Y003775D01*
X004298Y003750D01*
X004239Y003729D01*
X004179Y003711D01*
X004117Y003698D01*
X004055Y003688D01*
X003993Y003682D01*
X003930Y003680D01*
X003867Y003682D01*
X003805Y003688D01*
X003743Y003698D01*
X003681Y003711D01*
X003621Y003729D01*
X003562Y003750D01*
X003504Y003775D01*
X003448Y003804D01*
X003394Y003836D01*
X003342Y003871D01*
X003293Y003909D01*
X003245Y003951D01*
X003201Y003995D01*
X003159Y004043D01*
X003121Y004092D01*
X003086Y004144D01*
X003054Y004198D01*
X003025Y004254D01*
X003000Y004312D01*
X002979Y004371D01*
X002961Y004431D01*
X002948Y004493D01*
X002938Y004555D01*
X002932Y004617D01*
X002930Y004680D01*
X005180Y006480D02*
X005182Y006543D01*
X005188Y006605D01*
X005198Y006667D01*
X005211Y006729D01*
X005229Y006789D01*
X005250Y006848D01*
X005275Y006906D01*
X005304Y006962D01*
X005336Y007016D01*
X005371Y007068D01*
X005409Y007117D01*
X005451Y007165D01*
X005495Y007209D01*
X005543Y007251D01*
X005592Y007289D01*
X005644Y007324D01*
X005698Y007356D01*
X005754Y007385D01*
X005812Y007410D01*
X005871Y007431D01*
X005931Y007449D01*
X005993Y007462D01*
X006055Y007472D01*
X006117Y007478D01*
X006180Y007480D01*
X006243Y007478D01*
X006305Y007472D01*
X006367Y007462D01*
X006429Y007449D01*
X006489Y007431D01*
X006548Y007410D01*
X006606Y007385D01*
X006662Y007356D01*
X006716Y007324D01*
X006768Y007289D01*
X006817Y007251D01*
X006865Y007209D01*
X006909Y007165D01*
X006951Y007117D01*
X006989Y007068D01*
X007024Y007016D01*
X007056Y006962D01*
X007085Y006906D01*
X007110Y006848D01*
X007131Y006789D01*
X007149Y006729D01*
X007162Y006667D01*
X007172Y006605D01*
X007178Y006543D01*
X007180Y006480D01*
X007178Y006417D01*
X007172Y006355D01*
X007162Y006293D01*
X007149Y006231D01*
X007131Y006171D01*
X007110Y006112D01*
X007085Y006054D01*
X007056Y005998D01*
X007024Y005944D01*
X006989Y005892D01*
X006951Y005843D01*
X006909Y005795D01*
X006865Y005751D01*
X006817Y005709D01*
X006768Y005671D01*
X006716Y005636D01*
X006662Y005604D01*
X006606Y005575D01*
X006548Y005550D01*
X006489Y005529D01*
X006429Y005511D01*
X006367Y005498D01*
X006305Y005488D01*
X006243Y005482D01*
X006180Y005480D01*
X006117Y005482D01*
X006055Y005488D01*
X005993Y005498D01*
X005931Y005511D01*
X005871Y005529D01*
X005812Y005550D01*
X005754Y005575D01*
X005698Y005604D01*
X005644Y005636D01*
X005592Y005671D01*
X005543Y005709D01*
X005495Y005751D01*
X005451Y005795D01*
X005409Y005843D01*
X005371Y005892D01*
X005336Y005944D01*
X005304Y005998D01*
X005275Y006054D01*
X005250Y006112D01*
X005229Y006171D01*
X005211Y006231D01*
X005198Y006293D01*
X005188Y006355D01*
X005182Y006417D01*
X005180Y006480D01*
X007680Y007530D02*
X007682Y007593D01*
X007688Y007655D01*
X007698Y007717D01*
X007711Y007779D01*
X007729Y007839D01*
X007750Y007898D01*
X007775Y007956D01*
X007804Y008012D01*
X007836Y008066D01*
X007871Y008118D01*
X007909Y008167D01*
X007951Y008215D01*
X007995Y008259D01*
X008043Y008301D01*
X008092Y008339D01*
X008144Y008374D01*
X008198Y008406D01*
X008254Y008435D01*
X008312Y008460D01*
X008371Y008481D01*
X008431Y008499D01*
X008493Y008512D01*
X008555Y008522D01*
X008617Y008528D01*
X008680Y008530D01*
X008743Y008528D01*
X008805Y008522D01*
X008867Y008512D01*
X008929Y008499D01*
X008989Y008481D01*
X009048Y008460D01*
X009106Y008435D01*
X009162Y008406D01*
X009216Y008374D01*
X009268Y008339D01*
X009317Y008301D01*
X009365Y008259D01*
X009409Y008215D01*
X009451Y008167D01*
X009489Y008118D01*
X009524Y008066D01*
X009556Y008012D01*
X009585Y007956D01*
X009610Y007898D01*
X009631Y007839D01*
X009649Y007779D01*
X009662Y007717D01*
X009672Y007655D01*
X009678Y007593D01*
X009680Y007530D01*
X009678Y007467D01*
X009672Y007405D01*
X009662Y007343D01*
X009649Y007281D01*
X009631Y007221D01*
X009610Y007162D01*
X009585Y007104D01*
X009556Y007048D01*
X009524Y006994D01*
X009489Y006942D01*
X009451Y006893D01*
X009409Y006845D01*
X009365Y006801D01*
X009317Y006759D01*
X009268Y006721D01*
X009216Y006686D01*
X009162Y006654D01*
X009106Y006625D01*
X009048Y006600D01*
X008989Y006579D01*
X008929Y006561D01*
X008867Y006548D01*
X008805Y006538D01*
X008743Y006532D01*
X008680Y006530D01*
X008617Y006532D01*
X008555Y006538D01*
X008493Y006548D01*
X008431Y006561D01*
X008371Y006579D01*
X008312Y006600D01*
X008254Y006625D01*
X008198Y006654D01*
X008144Y006686D01*
X008092Y006721D01*
X008043Y006759D01*
X007995Y006801D01*
X007951Y006845D01*
X007909Y006893D01*
X007871Y006942D01*
X007836Y006994D01*
X007804Y007048D01*
X007775Y007104D01*
X007750Y007162D01*
X007729Y007221D01*
X007711Y007281D01*
X007698Y007343D01*
X007688Y007405D01*
X007682Y007467D01*
X007680Y007530D01*
X010430Y007930D02*
X010432Y007993D01*
X010438Y008055D01*
X010448Y008117D01*
X010461Y008179D01*
X010479Y008239D01*
X010500Y008298D01*
X010525Y008356D01*
X010554Y008412D01*
X010586Y008466D01*
X010621Y008518D01*
X010659Y008567D01*
X010701Y008615D01*
X010745Y008659D01*
X010793Y008701D01*
X010842Y008739D01*
X010894Y008774D01*
X010948Y008806D01*
X011004Y008835D01*
X011062Y008860D01*
X011121Y008881D01*
X011181Y008899D01*
X011243Y008912D01*
X011305Y008922D01*
X011367Y008928D01*
X011430Y008930D01*
X011493Y008928D01*
X011555Y008922D01*
X011617Y008912D01*
X011679Y008899D01*
X011739Y008881D01*
X011798Y008860D01*
X011856Y008835D01*
X011912Y008806D01*
X011966Y008774D01*
X012018Y008739D01*
X012067Y008701D01*
X012115Y008659D01*
X012159Y008615D01*
X012201Y008567D01*
X012239Y008518D01*
X012274Y008466D01*
X012306Y008412D01*
X012335Y008356D01*
X012360Y008298D01*
X012381Y008239D01*
X012399Y008179D01*
X012412Y008117D01*
X012422Y008055D01*
X012428Y007993D01*
X012430Y007930D01*
X012428Y007867D01*
X012422Y007805D01*
X012412Y007743D01*
X012399Y007681D01*
X012381Y007621D01*
X012360Y007562D01*
X012335Y007504D01*
X012306Y007448D01*
X012274Y007394D01*
X012239Y007342D01*
X012201Y007293D01*
X012159Y007245D01*
X012115Y007201D01*
X012067Y007159D01*
X012018Y007121D01*
X011966Y007086D01*
X011912Y007054D01*
X011856Y007025D01*
X011798Y007000D01*
X011739Y006979D01*
X011679Y006961D01*
X011617Y006948D01*
X011555Y006938D01*
X011493Y006932D01*
X011430Y006930D01*
X011367Y006932D01*
X011305Y006938D01*
X011243Y006948D01*
X011181Y006961D01*
X011121Y006979D01*
X011062Y007000D01*
X011004Y007025D01*
X010948Y007054D01*
X010894Y007086D01*
X010842Y007121D01*
X010793Y007159D01*
X010745Y007201D01*
X010701Y007245D01*
X010659Y007293D01*
X010621Y007342D01*
X010586Y007394D01*
X010554Y007448D01*
X010525Y007504D01*
X010500Y007562D01*
X010479Y007621D01*
X010461Y007681D01*
X010448Y007743D01*
X010438Y007805D01*
X010432Y007867D01*
X010430Y007930D01*
X013180Y007530D02*
X013182Y007593D01*
X013188Y007655D01*
X013198Y007717D01*
X013211Y007779D01*
X013229Y007839D01*
X013250Y007898D01*
X013275Y007956D01*
X013304Y008012D01*
X013336Y008066D01*
X013371Y008118D01*
X013409Y008167D01*
X013451Y008215D01*
X013495Y008259D01*
X013543Y008301D01*
X013592Y008339D01*
X013644Y008374D01*
X013698Y008406D01*
X013754Y008435D01*
X013812Y008460D01*
X013871Y008481D01*
X013931Y008499D01*
X013993Y008512D01*
X014055Y008522D01*
X014117Y008528D01*
X014180Y008530D01*
X014243Y008528D01*
X014305Y008522D01*
X014367Y008512D01*
X014429Y008499D01*
X014489Y008481D01*
X014548Y008460D01*
X014606Y008435D01*
X014662Y008406D01*
X014716Y008374D01*
X014768Y008339D01*
X014817Y008301D01*
X014865Y008259D01*
X014909Y008215D01*
X014951Y008167D01*
X014989Y008118D01*
X015024Y008066D01*
X015056Y008012D01*
X015085Y007956D01*
X015110Y007898D01*
X015131Y007839D01*
X015149Y007779D01*
X015162Y007717D01*
X015172Y007655D01*
X015178Y007593D01*
X015180Y007530D01*
X015178Y007467D01*
X015172Y007405D01*
X015162Y007343D01*
X015149Y007281D01*
X015131Y007221D01*
X015110Y007162D01*
X015085Y007104D01*
X015056Y007048D01*
X015024Y006994D01*
X014989Y006942D01*
X014951Y006893D01*
X014909Y006845D01*
X014865Y006801D01*
X014817Y006759D01*
X014768Y006721D01*
X014716Y006686D01*
X014662Y006654D01*
X014606Y006625D01*
X014548Y006600D01*
X014489Y006579D01*
X014429Y006561D01*
X014367Y006548D01*
X014305Y006538D01*
X014243Y006532D01*
X014180Y006530D01*
X014117Y006532D01*
X014055Y006538D01*
X013993Y006548D01*
X013931Y006561D01*
X013871Y006579D01*
X013812Y006600D01*
X013754Y006625D01*
X013698Y006654D01*
X013644Y006686D01*
X013592Y006721D01*
X013543Y006759D01*
X013495Y006801D01*
X013451Y006845D01*
X013409Y006893D01*
X013371Y006942D01*
X013336Y006994D01*
X013304Y007048D01*
X013275Y007104D01*
X013250Y007162D01*
X013229Y007221D01*
X013211Y007281D01*
X013198Y007343D01*
X013188Y007405D01*
X013182Y007467D01*
X013180Y007530D01*
X015680Y006480D02*
X015682Y006543D01*
X015688Y006605D01*
X015698Y006667D01*
X015711Y006729D01*
X015729Y006789D01*
X015750Y006848D01*
X015775Y006906D01*
X015804Y006962D01*
X015836Y007016D01*
X015871Y007068D01*
X015909Y007117D01*
X015951Y007165D01*
X015995Y007209D01*
X016043Y007251D01*
X016092Y007289D01*
X016144Y007324D01*
X016198Y007356D01*
X016254Y007385D01*
X016312Y007410D01*
X016371Y007431D01*
X016431Y007449D01*
X016493Y007462D01*
X016555Y007472D01*
X016617Y007478D01*
X016680Y007480D01*
X016743Y007478D01*
X016805Y007472D01*
X016867Y007462D01*
X016929Y007449D01*
X016989Y007431D01*
X017048Y007410D01*
X017106Y007385D01*
X017162Y007356D01*
X017216Y007324D01*
X017268Y007289D01*
X017317Y007251D01*
X017365Y007209D01*
X017409Y007165D01*
X017451Y007117D01*
X017489Y007068D01*
X017524Y007016D01*
X017556Y006962D01*
X017585Y006906D01*
X017610Y006848D01*
X017631Y006789D01*
X017649Y006729D01*
X017662Y006667D01*
X017672Y006605D01*
X017678Y006543D01*
X017680Y006480D01*
X017678Y006417D01*
X017672Y006355D01*
X017662Y006293D01*
X017649Y006231D01*
X017631Y006171D01*
X017610Y006112D01*
X017585Y006054D01*
X017556Y005998D01*
X017524Y005944D01*
X017489Y005892D01*
X017451Y005843D01*
X017409Y005795D01*
X017365Y005751D01*
X017317Y005709D01*
X017268Y005671D01*
X017216Y005636D01*
X017162Y005604D01*
X017106Y005575D01*
X017048Y005550D01*
X016989Y005529D01*
X016929Y005511D01*
X016867Y005498D01*
X016805Y005488D01*
X016743Y005482D01*
X016680Y005480D01*
X016617Y005482D01*
X016555Y005488D01*
X016493Y005498D01*
X016431Y005511D01*
X016371Y005529D01*
X016312Y005550D01*
X016254Y005575D01*
X016198Y005604D01*
X016144Y005636D01*
X016092Y005671D01*
X016043Y005709D01*
X015995Y005751D01*
X015951Y005795D01*
X015909Y005843D01*
X015871Y005892D01*
X015836Y005944D01*
X015804Y005998D01*
X015775Y006054D01*
X015750Y006112D01*
X015729Y006171D01*
X015711Y006231D01*
X015698Y006293D01*
X015688Y006355D01*
X015682Y006417D01*
X015680Y006480D01*
X017930Y004680D02*
X017932Y004743D01*
X017938Y004805D01*
X017948Y004867D01*
X017961Y004929D01*
X017979Y004989D01*
X018000Y005048D01*
X018025Y005106D01*
X018054Y005162D01*
X018086Y005216D01*
X018121Y005268D01*
X018159Y005317D01*
X018201Y005365D01*
X018245Y005409D01*
X018293Y005451D01*
X018342Y005489D01*
X018394Y005524D01*
X018448Y005556D01*
X018504Y005585D01*
X018562Y005610D01*
X018621Y005631D01*
X018681Y005649D01*
X018743Y005662D01*
X018805Y005672D01*
X018867Y005678D01*
X018930Y005680D01*
X018993Y005678D01*
X019055Y005672D01*
X019117Y005662D01*
X019179Y005649D01*
X019239Y005631D01*
X019298Y005610D01*
X019356Y005585D01*
X019412Y005556D01*
X019466Y005524D01*
X019518Y005489D01*
X019567Y005451D01*
X019615Y005409D01*
X019659Y005365D01*
X019701Y005317D01*
X019739Y005268D01*
X019774Y005216D01*
X019806Y005162D01*
X019835Y005106D01*
X019860Y005048D01*
X019881Y004989D01*
X019899Y004929D01*
X019912Y004867D01*
X019922Y004805D01*
X019928Y004743D01*
X019930Y004680D01*
X019928Y004617D01*
X019922Y004555D01*
X019912Y004493D01*
X019899Y004431D01*
X019881Y004371D01*
X019860Y004312D01*
X019835Y004254D01*
X019806Y004198D01*
X019774Y004144D01*
X019739Y004092D01*
X019701Y004043D01*
X019659Y003995D01*
X019615Y003951D01*
X019567Y003909D01*
X019518Y003871D01*
X019466Y003836D01*
X019412Y003804D01*
X019356Y003775D01*
X019298Y003750D01*
X019239Y003729D01*
X019179Y003711D01*
X019117Y003698D01*
X019055Y003688D01*
X018993Y003682D01*
X018930Y003680D01*
X018867Y003682D01*
X018805Y003688D01*
X018743Y003698D01*
X018681Y003711D01*
X018621Y003729D01*
X018562Y003750D01*
X018504Y003775D01*
X018448Y003804D01*
X018394Y003836D01*
X018342Y003871D01*
X018293Y003909D01*
X018245Y003951D01*
X018201Y003995D01*
X018159Y004043D01*
X018121Y004092D01*
X018086Y004144D01*
X018054Y004198D01*
X018025Y004254D01*
X018000Y004312D01*
X017979Y004371D01*
X017961Y004431D01*
X017948Y004493D01*
X017938Y004555D01*
X017932Y004617D01*
X017930Y004680D01*
M02*
