G75*
%MOIN*%
%OFA0B0*%
%FSLAX24Y24*%
%IPPOS*%
%LPD*%
%AMOC8*
5,1,8,0,0,1.08239X$1,22.5*
%
%ADD10C,0.0040*%
%ADD11C,0.0060*%
%ADD12C,0.0080*%
%ADD13R,0.4000X0.0400*%
%ADD14C,0.0059*%
D10*
X003450Y002556D02*
X003527Y002479D01*
X003450Y002556D02*
X003450Y002709D01*
X003527Y002786D01*
X003680Y002786D01*
X003757Y002709D01*
X003757Y002633D01*
X003680Y002479D01*
X003910Y002479D01*
X003910Y002786D01*
X003910Y002940D02*
X003603Y002940D01*
X003450Y003093D01*
X003603Y003247D01*
X003910Y003247D01*
X004450Y003236D02*
X004910Y003236D01*
X004910Y003390D02*
X004910Y003620D01*
X004834Y003697D01*
X004527Y003697D01*
X004450Y003620D01*
X004450Y003390D01*
X004910Y003390D01*
X004910Y002929D02*
X004450Y003236D01*
X004450Y002929D02*
X004910Y002929D01*
X004834Y002776D02*
X004910Y002699D01*
X004910Y002546D01*
X004834Y002469D01*
X004527Y002469D01*
X004450Y002546D01*
X004450Y002699D01*
X004527Y002776D01*
X004680Y002776D01*
X004680Y002622D01*
X006500Y002572D02*
X006960Y002572D01*
X006807Y002419D01*
X006500Y002419D02*
X006500Y002726D01*
X006577Y002879D02*
X006884Y003186D01*
X006577Y003186D01*
X006500Y003109D01*
X006500Y002956D01*
X006577Y002879D01*
X006884Y002879D01*
X006960Y002956D01*
X006960Y003109D01*
X006884Y003186D01*
X006960Y003340D02*
X006500Y003340D01*
X006653Y003340D02*
X006960Y003647D01*
X006730Y003416D02*
X006500Y003647D01*
X007601Y004550D02*
X007754Y004550D01*
X007677Y004550D02*
X007677Y005010D01*
X007754Y005010D01*
X007908Y004780D02*
X007984Y004857D01*
X008138Y004857D01*
X008215Y004780D01*
X008215Y004627D01*
X008138Y004550D01*
X007984Y004550D01*
X007908Y004627D01*
X007908Y004780D01*
X008368Y004780D02*
X008368Y004627D01*
X008445Y004550D01*
X008598Y004550D01*
X008675Y004627D01*
X008675Y004780D01*
X008598Y004857D01*
X008445Y004857D01*
X008368Y004780D01*
X008828Y004780D02*
X008828Y004627D01*
X008905Y004550D01*
X009135Y004550D01*
X008905Y004857D02*
X008828Y004780D01*
X008905Y004857D02*
X009135Y004857D01*
X009135Y004397D01*
X009519Y004550D02*
X009519Y004857D01*
X009519Y004703D02*
X009365Y004857D01*
X009289Y004857D01*
X009672Y004780D02*
X009672Y004703D01*
X009979Y004703D01*
X009979Y004627D02*
X009979Y004780D01*
X009903Y004857D01*
X009749Y004857D01*
X009672Y004780D01*
X009749Y004550D02*
X009903Y004550D01*
X009979Y004627D01*
X010133Y004857D02*
X010286Y004550D01*
X010440Y004857D01*
X010670Y004857D02*
X010670Y004550D01*
X010747Y004550D02*
X010593Y004550D01*
X010900Y004550D02*
X011207Y004550D01*
X011207Y005010D01*
X010747Y004857D02*
X010670Y004857D01*
X010670Y005010D02*
X010670Y005087D01*
X011821Y004780D02*
X011821Y004550D01*
X011821Y004780D02*
X011898Y004857D01*
X012128Y004857D01*
X012128Y004550D01*
X012281Y004550D02*
X012435Y004550D01*
X012358Y004550D02*
X012358Y004857D01*
X012435Y004857D01*
X012358Y005010D02*
X012358Y005087D01*
X013049Y004780D02*
X013049Y004550D01*
X013049Y004780D02*
X013125Y004857D01*
X013356Y004857D01*
X013356Y004550D01*
X013509Y004857D02*
X013586Y004857D01*
X013739Y004703D01*
X013739Y004550D02*
X013739Y004857D01*
X013893Y004780D02*
X013969Y004857D01*
X014123Y004857D01*
X014200Y004780D01*
X014200Y004627D01*
X014123Y004550D01*
X013969Y004550D01*
X013893Y004627D01*
X013893Y004780D01*
X014353Y004703D02*
X014353Y004627D01*
X014430Y004550D01*
X014660Y004550D01*
X014660Y005010D01*
X014430Y005010D01*
X014353Y004934D01*
X014353Y004857D01*
X014430Y004780D01*
X014660Y004780D01*
X014430Y004780D02*
X014353Y004703D01*
X015693Y004160D02*
X016000Y003853D01*
X015923Y003930D02*
X015693Y003700D01*
X016000Y003700D02*
X016000Y004160D01*
X016307Y004160D02*
X016307Y003700D01*
X016460Y003700D02*
X016153Y003700D01*
X016460Y004007D02*
X016307Y004160D01*
X016438Y000860D02*
X016362Y000784D01*
X016362Y000707D01*
X016438Y000630D01*
X016592Y000630D01*
X016668Y000707D01*
X016668Y000784D01*
X016592Y000860D01*
X016438Y000860D01*
X016208Y000707D02*
X016055Y000860D01*
X016055Y000400D01*
X016208Y000400D02*
X015901Y000400D01*
X015748Y000630D02*
X015441Y000630D01*
X015517Y000400D02*
X015517Y000860D01*
X015748Y000630D01*
X016362Y000553D02*
X016362Y000477D01*
X016438Y000400D01*
X016592Y000400D01*
X016668Y000477D01*
X016668Y000553D01*
X016592Y000630D01*
X016438Y000630D02*
X016362Y000553D01*
X016822Y000477D02*
X016822Y000784D01*
X017129Y000477D01*
X017052Y000400D01*
X016899Y000400D01*
X016822Y000477D01*
X017129Y000477D02*
X017129Y000784D01*
X017052Y000860D01*
X016899Y000860D01*
X016822Y000784D01*
X017282Y000784D02*
X017282Y000707D01*
X017589Y000400D01*
X017282Y000400D01*
X017743Y000477D02*
X017819Y000400D01*
X017973Y000400D01*
X018050Y000477D01*
X017743Y000784D01*
X017743Y000477D01*
X018050Y000477D02*
X018050Y000784D01*
X017973Y000860D01*
X017819Y000860D01*
X017743Y000784D01*
X017589Y000784D02*
X017512Y000860D01*
X017359Y000860D01*
X017282Y000784D01*
X018203Y000707D02*
X018280Y000707D01*
X018510Y000707D01*
X018510Y000553D02*
X018203Y000553D01*
X018280Y000400D02*
X018280Y000860D01*
X018433Y000860D02*
X018433Y000400D01*
D11*
X017298Y003694D02*
X017062Y003694D01*
X017062Y004166D02*
X017298Y004166D01*
X017298Y004444D02*
X017062Y004444D01*
X017062Y004916D02*
X017298Y004916D01*
X015416Y005562D02*
X015416Y005798D01*
X014944Y005798D02*
X014944Y005562D01*
X014666Y005562D02*
X014666Y005798D01*
X014194Y005798D02*
X014194Y005562D01*
X008666Y005562D02*
X008666Y005798D01*
X008194Y005798D02*
X008194Y005562D01*
X007916Y005562D02*
X007916Y005798D01*
X007444Y005798D02*
X007444Y005562D01*
X005798Y004916D02*
X005562Y004916D01*
X005562Y004444D02*
X005798Y004444D01*
X005798Y004166D02*
X005562Y004166D01*
X005562Y003694D02*
X005798Y003694D01*
X006444Y001798D02*
X006444Y001562D01*
X006916Y001562D02*
X006916Y001798D01*
D12*
X003290Y001130D02*
X003180Y001240D01*
X003180Y001630D01*
X003180Y002020D01*
X003290Y002130D01*
X003280Y001630D02*
X003180Y001630D01*
X004080Y001630D02*
X004280Y001630D01*
X005080Y001630D02*
X005280Y001630D01*
X006080Y001630D02*
X006180Y001630D01*
X006180Y001240D01*
X006070Y001130D01*
X006180Y001630D02*
X006180Y002020D01*
X006070Y002130D01*
X015880Y002480D02*
X015880Y001530D01*
X015881Y001496D01*
X015885Y001461D01*
X015893Y001428D01*
X015904Y001395D01*
X015919Y001364D01*
X015936Y001334D01*
X015957Y001306D01*
X015980Y001280D01*
X016006Y001257D01*
X016034Y001236D01*
X016064Y001219D01*
X016095Y001204D01*
X016128Y001193D01*
X016161Y001185D01*
X016196Y001181D01*
X016230Y001180D01*
X016380Y001180D01*
X015880Y002480D02*
X015880Y002880D01*
X019880Y002880D01*
X019880Y002480D01*
X015880Y002480D01*
X019380Y001180D02*
X019530Y001180D01*
X019564Y001181D01*
X019599Y001185D01*
X019632Y001193D01*
X019665Y001204D01*
X019696Y001219D01*
X019726Y001236D01*
X019754Y001257D01*
X019780Y001280D01*
X019803Y001306D01*
X019824Y001334D01*
X019841Y001364D01*
X019856Y001395D01*
X019867Y001428D01*
X019875Y001461D01*
X019879Y001496D01*
X019880Y001530D01*
X019880Y002480D01*
D13*
X017880Y002680D03*
D14*
X002716Y003016D02*
X002526Y002997D01*
X002505Y002933D01*
X002474Y002873D01*
X002595Y002724D01*
X002494Y002623D01*
X002345Y002744D01*
X002285Y002713D01*
X002201Y002917D01*
X002238Y002939D01*
X002270Y002968D01*
X002294Y003004D01*
X002309Y003045D01*
X002315Y003088D01*
X002309Y003132D01*
X002294Y003173D01*
X002589Y003173D01*
X002526Y003179D02*
X002716Y003160D01*
X002716Y003016D01*
X002716Y003058D02*
X002311Y003058D01*
X002311Y003115D02*
X002716Y003115D01*
X002561Y003000D02*
X002292Y003000D01*
X002243Y002943D02*
X002508Y002943D01*
X002481Y002885D02*
X002214Y002885D01*
X002238Y002828D02*
X002511Y002828D01*
X002558Y002770D02*
X002262Y002770D01*
X002383Y002712D02*
X002583Y002712D01*
X002526Y002655D02*
X002454Y002655D01*
X002022Y002828D02*
X001749Y002828D01*
X001786Y002873D02*
X001755Y002933D01*
X001734Y002997D01*
X001544Y003016D01*
X001544Y003160D01*
X001734Y003179D01*
X001755Y003243D01*
X001786Y003303D01*
X001665Y003452D01*
X001766Y003553D01*
X001915Y003432D01*
X001975Y003463D01*
X002039Y003484D01*
X002058Y003674D01*
X002202Y003674D01*
X002221Y003484D01*
X002285Y003463D01*
X002345Y003432D01*
X002494Y003553D01*
X002595Y003452D01*
X002474Y003303D01*
X002505Y003243D01*
X002526Y003179D01*
X002509Y003230D02*
X002246Y003230D01*
X002236Y003239D02*
X002197Y003260D01*
X002154Y003271D01*
X002110Y003271D01*
X002067Y003261D01*
X002028Y003241D01*
X001994Y003213D01*
X001968Y003177D01*
X001952Y003136D01*
X001946Y003092D01*
X001950Y003048D01*
X001965Y003006D01*
X001989Y002969D01*
X002021Y002939D01*
X002059Y002917D01*
X001975Y002713D01*
X001915Y002744D01*
X001766Y002623D01*
X001665Y002724D01*
X001786Y002873D01*
X001779Y002885D02*
X002046Y002885D01*
X002017Y002943D02*
X001752Y002943D01*
X001699Y003000D02*
X001969Y003000D01*
X001949Y003058D02*
X001544Y003058D01*
X001544Y003115D02*
X001949Y003115D01*
X001967Y003173D02*
X001671Y003173D01*
X001751Y003230D02*
X002015Y003230D01*
X002236Y003239D02*
X002269Y003210D01*
X002294Y003173D01*
X002482Y003288D02*
X001778Y003288D01*
X001751Y003346D02*
X002509Y003346D01*
X002556Y003403D02*
X001704Y003403D01*
X001674Y003461D02*
X001880Y003461D01*
X001970Y003461D02*
X002290Y003461D01*
X002380Y003461D02*
X002586Y003461D01*
X002529Y003518D02*
X002450Y003518D01*
X002218Y003518D02*
X002042Y003518D01*
X002048Y003576D02*
X002212Y003576D01*
X002206Y003633D02*
X002054Y003633D01*
X001810Y003518D02*
X001731Y003518D01*
X001702Y002770D02*
X001998Y002770D01*
X001877Y002712D02*
X001677Y002712D01*
X001734Y002655D02*
X001806Y002655D01*
M02*
