%
M48
M72
T01C0.0320
T02C0.0400
T03C0.1300
%
T01
X3430Y4680
X4430Y4680
X5680Y6480
X6680Y6480
X8180Y7530
X9180Y7530
X11430Y7430
X11430Y8430
X13680Y7530
X14680Y7530
X16180Y6480
X17180Y6480
X18430Y4680
X19430Y4680
T02
X18880Y1680
X17880Y1680
X16880Y1680
X5680Y1680
X4680Y1580
X3680Y1680
T03
X1575Y1425
X21280Y1430
M30
